<mxfile host="65bd71144e">
    <diagram id="slb4pxWjBV94zoHowDqd" name="Page-1">
        <mxGraphModel dx="2085" dy="1357" grid="1" gridSize="10" guides="1" tooltips="1" connect="1" arrows="1" fold="1" page="1" pageScale="1" pageWidth="1100" pageHeight="850" math="0" shadow="0">
            <root>
                <mxCell id="0"/>
                <mxCell id="1" parent="0"/>
                <mxCell id="2" value="" style="shape=stencil(lVfLctswDPwaXTF8gCR4TtP/yEyc2lM3zjju6+8LVcNaBK1NfZNlrAgCWCwwxYf3/dPbbgru/XI+fd39PDxf9lP8NIVweN3vzoeLPk3xcYoPL6fz7sv59P31efn99jRbzk/fTj/mL/xacN45cm6GBfd7eeWoxr8vPi+A4+F1BaiBfO7sS/vATfsilGtn7yOlsA3IlULqAUK+bgNSpRg7QIgkaRvAekJ/5ahBAIAoVKUHZCqyDQi1xbABOFIGUVWPC3eA5GCUvJ4QekChAE7QIMb+0lnzAC7tC2UDqJSRS8WeUBJ5ECUF+NIBxLXMbAJ8D2BKoDQU4PrEiRB7DOhdqp5SgWGVvrwrQz4EbkH8B5CWyi1A6e9QtX7BHebqHwAMohQCOW8BBdWSMi5bQEWJyxTCAECJC1QHlxBAHS73eKSVxMOVQRaSre05pqC2mThae1TaN6sCJDmRZGufAZuF3PB9Ril2Nw4IiMxM3g0A3C54BIArqDCNgAi4qXVdqgUgMmsWjJIoQFDb5iY0qzR7xE2+VUeoXYTGxBUAJVqjFAeqITUc2/ZMHdTy2LaL1RCxVUw32MmInXVkJxoBSIZugRLNVtrUPmJ23mWv2m2Sxk1XNuzNDDarTob2RgexrKl9788HuumsCn4gzK4NaGvlh/flXqHm0QLJMvmeZhnPkEqavnnpcOQBB3KL9mr6QqxUeSq9QzrfMUiY3sAAdIJEGYje9l+VOAGUYW9bUcAjZ/K2qLUToMk/O9uKdJIPiMWaJJNmEpA1LTKxq0hBmuZtu3ZwopVAUYw90g+JbYS42iNFkzT670EVSWl99mrv0Oqlxw/24Pu6qqVq7YH/dZg01R7NXLoEeRsf5I+M/keQr7nJWn8Sik8d4wnH2Ht33/8A6MN11X45HI/Lpr7+367m+mpZ6+PjHw==);lineShape=1;" vertex="1" parent="1">
                    <mxGeometry x="35.10579297749547" y="36.570966084978664" width="1.1274451220528956" height="12.94465267950574" as="geometry"/>
                </mxCell>
                <mxCell id="3" value="" style="shape=stencil(lVvZkhQ3EPyafVVIKl31jPF/EAGYDWMgAF9/75LX6hlldeeYtzVWjY46MuvoJ3n17cObL++ecvz2/evnX9/9+fz2+4cn+ekp5+dPH959ff5ufz3J6yd59f7z13e/fP38+6e3L//95c1cOf/67fMf8xf+epFLOcQ2pXL8+79/6WHUf//l5xeBj8+f7gViGLoJ5BjyuBbQkPu+voSk1+t7aHFfP0Jr1+tbKPt5JIWRr9fXkNO+voZKziNB4fd1nfB0fQ46tvVFQiXvk0Pa36f0IEwB67RrfY1BO1uf876+BCH3TSHu719NI+T3bfd9fYv0/W39fp4m68Wu1u/3bT1E8vsppLqv1zDI76cgZVvfM7WHhPbZ69LgxXrdHaz3UIk951D29+kaevkBexspdPL7gvYzhPpXWd59rK+hCFuv+/uPHhLxl7qs61g/Qk/U3/f30Rgi0a/tvp9fzSNo/IHzq2mE+ONYr32slxWRLuIh2I8W+p4WcAscyEIYCxDJvVANSizIMKDsKlB7ZGISSUKHHR74ZA1RUaCyS7flI3cC9A4jJBAYC3jOBRTjiglUFtcNKTsKNBbYTa8FBQa5tJkehF4TYKE9H5HhXoD5fg7d7TDIsxo2DndpipYaRJweiGmUvA5wp2kW78qZaSTiD4aPGXZoSzPnAiVEuIMFKUYpDCHBlgq9Q7MQBDsIZV2thOai0iB6MJAc4KKcFvXo9BApLnRZHnwEbqXEwnDSIwPz6W4+vR9ptCDkSCPis45CrXVkJ5BDI+Bjv5f2Z7U9C3FRA0t4VrtVJmHG3gSiRj988FxgIAEwzTA9mF5xhxg62WFazu5xZl0sLpkxZ+CEleLDhEAgbYmahjlk3e9QB2V56tKEWqk/WFCBQFbNNNiROgJK0VCIpmck3W3JQltiOwzUgwVP+kqKkGXhmV5aF1U7BBoNZHOHXXEiXOBAtEOApwvz0pA/Dsr3TAAwzihmJbF16mHPCI0jC1ccAMpMstgOHXNmYx+FGx+YxszKSeTTjoozBiXMRdtCtEPAiDuJfCYQ90sbC6zcRcv+rMYzhdCfiZm7po3JssxKXTA2rsxi62TmAIo0FTCMBa4+KFW3QAk8oC+ifBWJgcr0daPzUK/LLo8wSUsRhiVdYH1k6FZD36Hk0OH5enERjDq/ZaaQBhR6X4NK2c8jNGvoFY2ax0fL9KF2kalbGk4CIeEo1VwtK1GXMZQEOpJWpDlfLxh903LSK9oJ7x9pulAV/SWtauEVDx54XyH2Uxti7OFAV8RcIVJT+6mC9mMOTeynpsUhbvaW2e/HIBnWK1lfBrL4wksvDXGj0tJCcWk2B4Fi18P4k9l50ioL3OIhK/0a2+i7vjjsSUcqawGdpdjiDShTCxWPMbxaI4Ihd+Iky5gTZjmJF1OM/zS4w6BkOR9p1h2bYFmOaQnM9FYkvSpEoN9kCmSzKAcChTKiWfUDT660amm/N/ZXmljJLl2Q+9ozMPCYpA9eSXm5JiIdN2Nh4doEwB2mdbFLR8xyTIAREBMQR8cfCED3YR6JlZziss37S7NqpGLMNoHI6uvqnvWA6f8v0LmACgpUZt7RZTn50SthkynTyDoVp06AQOc0jeEEuKa7vwPfYbgjsUL4JBPuSKxsNtmEe6XBj4S9OKGE1jenTIBGjYj4MP2BP2tzOzDObALF+QOrRmZX1JoCrFAdXdbP89npDy7MMHyYHgc7ZN6DPHXRB9X5iAK0ixpPbOmBHn5QIKOLzuyRmbdg5+nWW7oSgNrIzO+YQEG+nSsPAtXVRmSliFfAjjj9IC51bC/OSMXJCeTMadB+sL06EqyDrlwxsgw71PVu5wJ5kc47zseA3VgloKjRUNqDrSelDhaMjRkD81Za/hfFrv+glQJj9gDrnTL12bXZL8Ar86WglislxcWVawttmltmlQHdKAUojpVkmrlZZog1wuXcV5knxOBEz2+ZLSYBPNNuIe3n4c2a2wzHbT3NzHXxm9t6RtpawlJcXL3Mq8pFElxP3rNVnNKItLvbOnZGLQqR9T1ijOBDNf1EvwzEZw8HiqGPWl8VKxesOT2Sr0Qw+xmCyCG0uTHaUs/NHxnQjIH2UGhAHOorj7QymxBbK+2fakb/bZROqPjKLNPvbGBhZYRxZa2IGErbiOrtJ/KmRsMmnyEMbfJ1V0sU3mfpJx2EB30WqE6lRoOKCcCjGtLTFtxwsKrUTGe/y3VyWEXRBIC9PygRqhv3eVDDM4Hu+128BYdk3JIYvoP6nh25Q4oRB1NmW5CpWl2Xjw/hzVtDa1Me3brsRzLK8KBpB89U+BynCSSgLHzkYnaMoSfduDE1LLMZ7DJyPQe/doGWV9y/CkuQ5DQ+vDc7XtCIHzQrmsN0+w6d90JnpN+R37CUNR4nlOyK643ewbAKqmaGpozvj4LgM3gUGG5mafAMe0SE21FpWaG7TsHgQ072JpCdjkHjvb06lHc0UsV1N1hrumfx3iwHetJmXSzZbAXbLypUcS25CbtDlVc0GC9d6XCz8fK8g5w5Lbt0jRiXlGenFrZwdmzQedk581FRgOU64rp4E/ZY8lixHmQCjD3PYo4ToKVzxWLkDTGu6hAwRX0HSle1EXAIVVpGnvOdEQUYjiZ15qrUmJIfLdZFS88FGvbnlJecjIFBmjdhjwm4SS0TYIlhci1S5TMOtw7enUBkRNSNdzZ6Z1c/Up46HJ+33MUMGvewMmJBiflnw0xSE6U+x3DSXRxmqUnBwU5D1ETn8aFSMCcMmTNjTJ1TIayAh75vWMiGCrKboMxr3PbcgByaK62iJszMe6ffE7imXK+0qe2nJzMtvUSsTLWj/XSxHnv4R2Z2tX5/z4ff00CYazxdcOepnfJmNxNRy4P3xMpgpE0gV80tnU5NZmQhhXd0BO1TlHK7gqzf4JO1+tyMkqTVPL+IJ/CtxRy6YDPNrk0hHMZcIyTxIdHkiOAswDPcc5+gJT5nciuG3wnQb6zcJy9TgMMYDK+bAKt2mEBztQgGY7PcMtyRWBcuuSHRvr5puRLAaZlO2xRzNsYrjoVS5zuJY0dywT3xYHG6A8sRfvx71ccC9sft89j3zx8/vnxde///8XNa+6eXT3Hl9T8=);lineShape=1;" vertex="1" parent="1">
                    <mxGeometry x="25.33582250663477" y="32.92571702829076" width="21.380976255371223" height="20.271655270154202" as="geometry"/>
                </mxCell>
                <mxCell id="4" value="" style="shape=stencil(rVvbblw3DPwavwoSdX9O0/8IEKc26saBk/Ty9x3V0FlrtGc2AfrmC6mVRHI4JLV38d3Xhw9f7u/Mf/328vz7/V+PH7893MVf7swePz/cvzx+w0938f1dfPfp+eX+t5fn758/vv7+5cOQHD/98fznWOHvV73cXLChZf6f179EV8p/f/j1Vf7p8fNb+ex6Yvkk5M2lSPI1nsun5opf5JPzVchjPyyfvJA3VzLJt34uH7uzVT673IR8dm2VLy6J+4w2r3vKV5fFfVp3pS/yzVWxPj6+r/sJ3oUgFJLLq8FCcMWEgjlbdxSii+oTvLPVZCG7IM4QmjPaUnVBGCEUF2lLff7lukJypS4KFlwTZ8AR/Wq24XfCr3GJad0SDG3CsfsWZ7g2cUnNpfUEEVYQ61fnKS6LdLzsSlvluw5kPi8ir6lAcHnFoRHZyotcpbhvcn1zft1/Dq4qC7sSVvk0b/hE3mh93LAAojBh7ZDvLon7966v6xd4qHI459f9l+RMnjesDl3KtMiJPOF6aTpi5n8PnAvTIif2iut5K/xZnDe6sOJczTIxJT5vrfOGT/w/res34KiAlMP6h7xJVMTtrf7Q0ryBM0AhB2pFBjwgizy6AVeVhY/1DoXumtpSd3k9c4eXKBsDRddL7ea6yjXF1RVVepr5+bpXeNdWWOlZ5+M0o+pQQBwIu8W2KVRpuIGDpAAOpihLYYoDBcm5vKuNFbrwVUBbpFvqLqhPqIy+UPDCcAV22M+gFCLHQ9fxCbgi4gUFRXRKZyYIS3tx6Aqis6ZkOF9VKTZxzuxxZonrCpVjGgGUFciA1qwohhCtIh4a1iMYq9NZrisANVZvbXna/rpCnjs+FKJkzNgAw0yQAYQjErTiGlQq6d7l9RNqmZa5rmCMSzClIpywa1oDCNlNhWjfXAPu6IW3ArYq1RUa7uHMBPcIKeVLF9g6FLz0JUQw3RJgQeUHKFBpAeDp+hMIBEDaVH64oNBbVii8dQDjGtOgnUVvqa7XCjxXvBAKkYh8lxUq7NBIoUjmAAVbDx01zMA1iJsjTSpuBeejAAK9KWpLaebMQyFLbEUAUQYy03YwBgEwZFXiDRBYoRJlpSJwYEdcOZfJMc+AjGpClJUmrhUMr5GCTRy5rmDcjEAxr4oYAGMgruGCylhHc+PSjagqJQZ2jCIPUCqz7iyLkmK8fpJU6Vo3S5ksxwknhxdJJwKzCut+gmQAqXIVFmTRnxI3LvzEpzMuSbnT6yK7MUkKE5LP5ClNaT4CeaoAwmznncnHyOsrOt9mGr7ISzbfmFAFXUQ2zh9B5v1r8v7G+uv+vcyY8YCoi7xKyXFLNn42tk7tFVj+hj/wfhTNiY0RzkvyGI865c39KHnk+5+JF8iHzV66+xvYn2W5ufGPIPFknJfXz/p+amJ57T+c9G7G4xbv2n+Mz3tj/9t9Kqo/4oXxwbS/bXirKoO4UVgv+eXYP8tXbV/b4uV/lB/ck+NXNR3T1tz30v+Rvzb8Ufkd+TH+zH2C/2/xqPAf+Z3W10018Afm0jL/gp+kNV6SjN8amD9kyYvBrwjfiiyAwN/Kun6bBj8jiHReEETVlxnV+jbtUR4Nkkt93KAHhqMhQRB0o8IKXEuHKkdcKAXaClo3omD0DIn1wY2UQuZmN/xC8eJeeJphVVfrldvLKMkUc+0bM0DRF1QN17gTirJS1T+opakkQ3aTt7SNJi/wdKbQ12sdxbeaaXjPVd+o75UhOhPebLrP0pkR5SwH0L1zyslHUvnBhkDxugtSOYmP5qgI6l625lKRMdq3nl3pE2jPIijSNMd0yBkDZU2SuewoUHU7d8wmVmcCeKqBJur7sPUdm7D0mK9Qs/VIX2f1PXc2i0w/o76nT2i6FeqZH3UvFXCJFKPd5FgZGYtaDj3KWQIcodKWshwkVj87Q2/68GqyOZoIW6e/K4XEVcIFDK8reO4KIspVky9X5uVdj8pAfIyIttdJC9SKhwkHtl3nboU7xuMQmkyWbTAlq6nGsAEF1c6JiacPo+msPsFzpxK+oVqbl/7TG+9TaGz7oaMsUcOG9yOCVNLKzJgQo6oIC8ajfqCAnLv6DZhAKxXOcBUGpFJvLQp3XQBUsu3FXTvglCxTebBWm7by9LJDPstHXIGrpBolJHlm0eD5JizmmbyNtxBiP57vc7y1EPe5oXxJcnK/saSiXzN5xsfcJVv1kwce8seI+kS+rPc5Bs4i7MPM9Ie8LgsDo+94RSjfAnFXOes2GRMwQKVqgyZG3jHyUQlq61oXad+NEIL7y+kKdznG6zKFQJ4fYWKLMsCMq5HxbFOcAEUjsbXRCVIm3ihquAGKdT49ORSKfHGwv14JSXqdBXbrYNrtwJyoFPb6jVvhR32aluPfRoNu+WYiGgcyOIO4orjNAbO80r0dmuT6l1HqRV55UdqG4lG+1QEs8OBTjsOy8TjGZDt6fxxtkkvs4yqT7xIgb9z+urE+tXNNti3ydj83ztt4XGgSJnLjiIma8zZ+lhtlDXhNXlGza/tReWk/b5yZ/wfvM+o3tpu9omSKuz/ceIz/s4/9b8rjh8s3Cz49Pj29fjHh7f/5mwj40+u3GOL7fwE=);lineShape=1;" vertex="1" parent="1">
                    <mxGeometry x="118.56488854331172" y="26.743375254916998" width="19.519753156862055" height="22.261738444175656" as="geometry"/>
                </mxCell>
                <mxCell id="5" value="" style="shape=stencil(rVnJbhsxDP0aXwlJ1MZzl/8IULcxmiZBkm5/X6qupiNKfg6K3pyJ3ojr4zIHfvN8e/N4PAT3/PL08Pn4/fTh5fbAbw8hnO5vj0+nF/114HcHfvPx4en46enh6/2H89+PN+1k+/Xl4Vt7w48zLiQqtaGC+/nnSaYSfj95fwbcne5HQDWAQNkDQCbnBoCX/opLgGAAhTwG5DACIiUHAIWYR4CnGgGgko8DQIjReaEwSpShyuwoj++PlIECHCiO7w+U0PszxTycd13A5fmo8tjzDsgTVdxk5UngfCafjb4Vvb+QG88XEobn2USEpwgcpgLJ6ACfKBesgR81VpOCNFATlTHmNJMCuoHJjTbVKKnYaTKKpG4XcANXCibqmFgAIBEbtwklYFaN0zAqnRL0gyaOG3XInhymI+O4rPQBdAhqVhlDyfcna4CzuV9Sz74lQNmKywgQyF/KVnkEVJw+ja3G8K5K48CsylajVWvthLM8r2w1+lk8eWCjaOlCNJCAAurlMSxE5QfJoxYyuSCafygsJkJVwJ/YvcTwpugoIAGRNLd8tQBUB5UADOc1AEjP5C1pCy7NqRJPOhTghhx7Mu4BQKQs/d97AAiMEilMjkORWmpP972VAKB6S/XNccBKdSVSBI6rZYrW3PNpDZCu4g6Ayq2o0lMseZTPlcrk6YAAYqm+WQlUUAXkydMCSEwBYqxUMIk5ZxtDVcuD6NMrarGAgmVKxtXSo+USwBULQCmnAkSxAEHMVyYdFAAySAGhWgBqA1qCZQuIyKy5F/2dWVHf0IJzAjDywwwoXcjXilQ6e75WaUyuC7NmHBqz41Qr5OnaZ5A9AEerDT5MTIvwzjg05gQqsE6vclQ7b+SImQbUDii+Z6IRbNeZygQWXhUgzzkKpo2Zjnd2+E+IRY1QoVDZmquQehMw+KLOSR9BXltJsWEXtVrg3L3oBpSaAGDRbwgM2EVHI7DvW/RMAmegRVcmcBxY9H0KADq0znJSGq4z6kSvCgDkp91xmgCoyfJsR8sGAFaqvXfenwduiHZObCSABoLpfIGd7kxjCS5Mpv2HhN5xrS3a69923sGFUrTjiQ5kiJKKHVrrtvO6MGCZZUNlqsieoQfMBnCwsfepT9nbkFsgWXglCzNGM2wo1Qd1vKGxAQKw5XllA3hD7kPntp0Q7GWxc3eKsC3h0Nda28KkQjriZPvJGOCWiEuvGtvSJ0GlWWynFHDhid7u3jR6I1q+ees4j+tIU9FUzwQ5WAFmD9U2Iohegs0f6eP+JRX8WKjwxMfKwGO+RRiq6qNqIg9mG7MtzRXuS9n3tdxmIO7N5aUFtGm4fcElRKyTr30G2MacDXDlQ8PUSSoLBgwoyQKupLMp5a2S4htMm6eAiLdKmS0A1c35Q0PzNBKpLG64AphvgCJlS6vXlM5223jNrNn2kdccl3pxfW1o/MNXrmsA/fH3o9rH093d+Zvc/v/2I5w+On/A43e/AA==);lineShape=1;" vertex="1" parent="1">
                    <mxGeometry x="124.04076145932345" y="33.313721317800855" width="7.80557287009987" height="7.76215621805149" as="geometry"/>
                </mxCell>
                <mxCell id="6" value="" style="shape=stencil(lZbdUttADIWfxrdnpNX+XlN4D2YIjYc0YUKg5e3R1mOIlkSd3vnv88pHR8c7yc3L9v55MwV6OR0PT5vf88NpO8mPKYR5v90c55MeTXI7yc3j4bj5eTy87h+W8+f7/mQ/+nV462/4s3CNUEKnAr0vV2JCan+v3C3Abt6fAxmlGCAJWnWAhsoGyIKaXSCJAUoEeyUltGyAqis4QG2IFmiMFh1AVbIltYLE14FCyFYlJgLRdSITJNolGtiRKRGq7ZzqQE4jooBtI2oFO4BUkAVK84EMsrrmBhIHKGMjUkV1VIphXCGqW5zO6W1pFggITklaQK4G0CKzs0KuaMkCGSE53lARrZlU6OB8dG+TXUFbGfyBoGFG6V8zykPjCLFcB87c/OkNWoPh8hI6MBbQofJa3UdysGtbX3FZJh36YUg1GJySeqzYkr6i53KrBeXbjFYnBjQa6wBofHozmhCHoVZZHTN1QP4HkDima09Dx0whrm7+BBKyE0yc1rQ+i43ofHRBtW4tDHHaEMYwzrym7cXn1ar2AxKvKXLteWuLSODg1ZNsYgRfUc0TWz831xQcR4GYkZweBxmBBHEmRz0x/Bm0AY6garpBofHfpgdfO47HebdbNizn98cdil5adjdy+wE=);lineShape=1;" vertex="1" parent="1">
                    <mxGeometry x="131.5371666643652" y="41.075090448862824" width="0.4835812961995928" height="0.4850647618470396" as="geometry"/>
                </mxCell>
                <mxCell id="7" value="floyd warshall me ask yourself ki ek node se dusre node me&amp;nbsp;&lt;br&gt;jaane ka sabse shortest way kya ho sakta he" style="text;html=1;align=center;verticalAlign=middle;resizable=0;points=[];autosize=1;strokeColor=none;fillColor=none;" vertex="1" parent="1">
                    <mxGeometry x="-80" y="-30" width="340" height="40" as="geometry"/>
                </mxCell>
                <mxCell id="8" value="" style="shape=stencil(lVfZctswDPwavWJ4guBzmv5HZuLUnrp2xnF6/H2hupRFMF5P3mQJa5wLLqf48LZ9et1Mwb2dT8fvm1+75/N2il+mEHaH7ea0O+vTFB+n+PByPG2+nY7vh+fL79en2XJ++nH8Of/D7wvOC6U6o4L78/8NBffvxdeL/X53WNnHRCX09p5Kvg1IhZLvACFADzlR5h5QKQEAB/KxA8RCDEJi/dx7SEzB3wYUjbgHaJAcAUA99FXSIDMISTSHvg1cKQIPkin0gKJvEgAIhT4kcdBD9eRTD9CkBQAi1T4k9ZlB47xz5FyHqIUqclEp9zFVIQadm/8v94BKHnnIbdZWANTqqp1jC6ggpLkopWfQtQ63em3LVEkqAHiSaAEZZF102OpQJsQIrWu0jch3GNGvgbk1yIMuJraAgJJ2Qw5MhQEgtj20AkQEYOIB4AHnqqMQB0CAFCpjSGA09DMXC2CQg7ZJBsr5Aikn1QLKHUC/aNQn2t/z5AzDh/gw1yRZQAKjoWWNI4HQsqxUZCA1Gj5uRVwD8MK3Vaqt97fG23sLCIjTMiQtVEDSSlHbB4HT+nlAtBTVZYj6oAev6/ugZ1AFw1ecXTNatwwax2IBeo5msJd4+bw6qRmExI6kz0G1QEUCaDiCVG2gVZmd3RqqZzIoa8qtTYtikqahPlZ9pS3GlSarCKAnWr/5VPUJ4IMvVm34AI+sRbwsDsiBvTcoDQ+b5qxY8pBrrg1lM3eww6Gpzat5BsFEEvvvEY0DCRtzdJQLuWzMHTD3i/OVPRJ5oemClT0gpB/kv2vi+2N7tmvOQf7qoLGNR8Akf/aCdN9eH663sZfdfn+5zK2/29ubvrrc/OLjXw==);lineShape=1;" vertex="1" parent="1">
                    <mxGeometry x="-23.306883119830445" y="38.2022559276852" width="1.1565939379843606" height="6.64958550212357" as="geometry"/>
                </mxCell>
                <mxCell id="9" value="" style="shape=stencil(lVhJchsxDHyNriiA4Hp2nH+4ynKsimO5ZGX7fTBRURFBTSu+jUbsIbZuAtzo3fvzw9t2E/j9eNh/3f7cPR6fN/ppE8Lu9Xl72B3taaP3G7172h+2Xw7776+Pp99vD8vK5enb/sfyhV8nnFDQBRT49+kFk4S/Lz6flr/sXi+WZ2p5WK5UZX25RCpxWF8p8Pp6M4d5WC9CMQNApToaJIki2EErSRoBjWpZB8TqIxQixbYOSJViHQGNGABypTQ6rUqq64BSqLgsFLhDTVTKAIhMCgAtkIxOR6UQASD7RMdECYS1tZ6mM6BQAk4Ls6+N2CiBWm2V8piIJCTIiUR59DoFWH1NKMkIUCrAiZopOZMSBRCmaha3EVBIAONKmkxqpIjRjdoIyNI5dR0QKYcRYCwHlDMD0ki5XKgmAIie1EV6PV4HcC+EMyD2Pa+TOnvKGaegCoSuc2chM6kCUdJGYXS6RqismqiOxWfF0oAPGnwtVcwHk6E4qoDVbwF8MLVPo0lNYaaX02BMnFEK6YzpvdPKRUgAwNS9jXwwIanAB5mkzwANJM4AzukL5VlDhDptAYrJAJwmJxAg9r8vAOXGuZs9IN0AqAcElIh4Ja6IEAZoI+VMn6HTFqXqAQXUtwFUPCCjI8VSnScAilLyKrAAkNOZOEw+VAiQyWlYrrmfHxd5EBTWawDE0QXAHgCjlHshXFYrJnWd+NBw4rJMALyDTibdAEiYAJhAbSJQwZwuk5IlVBrXKKqYcWUKK+p/FplxgHorDzzxoWBx/RjAxhHvdMIAJXblHUlBWEPqSnoGBKitNnK4/qcxzLQK5dGkap9AM8okldYKMGoFatfqM8DadSCVUXymK0PViJNUlgx1KTZP0aJQNazpc6VRuI9qa3OWO+Nypoo6XfVhtTcZt8ZOKjPDE8i6zjZOQWYkYpxF3ZWGzQMVVOtSCG6AOMdtbURxU9My0wBOt9kHa77REFR8D2ftOJpGjfLRzYqVFGTaekLHaevfMwJMc1mMcAcbkN0ZFwX2SzYuuLls4SCqpeLHLGM5mi1tznO9tDIFYJLNz3n0ISTIOJ0SZ2qLDkVTPhnzYEc9ipJ9z3XGEvAZp/5+qfWebuU6iscsRHhIc79WOZtDAaSAfY4FChJ7agpkJvvWkOFQPN1+cL/dWFvu7/XQbMg+kAxbC/Z0YVj89rHolqM7DPbsNeuAiFogvO1oXOMusP+3XHwzi4354H3qzeX28O/q9mn38nK6+b3831/12qvTNbHe/wE=);lineShape=1;" vertex="1" parent="1">
                    <mxGeometry x="-19.79921546158539" y="33.21775787704598" width="14.029947540159355" height="15.621320638813533" as="geometry"/>
                </mxCell>
                <mxCell id="10" value="" style="shape=stencil(rVrbbhw3DP0avwq6UtJzmv5HgDiN0TQOHKeXvy/VhZTV4ewZL9A3e5YcSRQvh4fzkN59//zh2+ND9N9fX55/f/zr6ePr54f0y0OMT18/P748vepfD+n9Q3r36fnl8beX5x9fP17+//ZhSI6//nj+c7zh74ued6EPpej/uTyQ6Hz878mvF/kvT1+v5IMLeZcPzofb8tGFtsmX7mpm8j3s8s3lcls+uQrvF9fqbfnsatrls2tkP2XudslHJ+S84qrs8t7Fdlu+4vtzdZ3Yv+H+c3GR7EetvdszR5fIeYN3sjtE6nPJY4XgatwVxHVPFCJeWUquExMF/bnsCrpJcsehoJOqmQs7g7i8n0H9JLMVKl6zBkbtRKG7sN+bPhFiJQ3MsltJ1xQWOBq3u5X0VIF4koZO3m962I0paKTshw4aTewM4mJChcJWqObQeg/s0M21YhRIOKjn+GoUyBlScNGskMhNJ40vswJVSK74uxTydIQrBU+slIprsEKiSWNEMBw6uEYCKLXpOUvB8xW6S3te0jRPckDWcNjlZaadY/kVjivvuU4OkBPG53pwLJ/NpTlh+y/oqH4m5mP56mIE+UTcNDcn+H62f61KwYO8J2W2BFcyyhP7a5XsuH8GE7QKR9y/J+ct5WA/TF5RQbhHvs3tvlFe83u9Q140PPo98sFluUc+Tne88h9yv5Jmzf7pz4H4s9gSO1P3sby4tO8n0/wgFXGLUBglHf1ZKwPJodWj/ygs8aTi1+A6KKyQPlZIE2ddVXyGTOsqpsukiVb8Ks7vPqT1kyWJWjGJjurGwKkaEaBaoaWpmXZCE30kW2rGrxWfsotrEa2UhWKKlqbVl0KnUK0V5wHCn2xJcRYoaHZiChWTRVl48ljBlNfRRbFDdwSDsvz3lkKDPjDRPqR7hP2aEphZu1YQ2JICWraCAVLCL66n6WpToUbaO/aMVqqFBlBfIGIptAlxjxUM8tIIYe1mFye7L6n/JrZCnUdcCmU2M8cKDZ2vVQpFumk51VkKs1LH2q92Yz3/UNi3pHZjaDD4Vf2Wxiowb9aotBEem9pznxqCJcuhsCd8feK5AmRXfSIkDQyFiAqdlBT9uRajwFcQuyUWQvpzMofmK5RuzHqiAM5ReURYBfWNk0ODa5RZlW4qgFkz5Ui6YWFUgeYNVaiowPD2cI2MCqwBGI5gtlRO4kHQSpR5UoWO98Ag1nGMnpwal6iUSjo4RKON7VCALfVJm7z1Ijqlw+xVX9nhpobZEy2MHQkDfRL/V4Vm0kCeLN8tBcCunTcQI+ghM3meBgQTjaKoyJypIKJphYIsPSL09FqrPQco4H0DL7PsmhD3KYRPLOYi0iraVQhHZUACKmYqbEseAUr1Z1C07a4hjUIgvSYIauGUvioApyeZ1tGBvwG7RkpkDoS/R5wsPupYIeMZFOE3tkJCoFgyJZS0D5L9DCVQ5lM7rQSMWKUhOnwTRgeZuvfoFkHBu8g63jrJ3dUtCmUdRscLLF2kNWh4/64QG50EaNcegdjPtDWrAUHcYPYYL+AntL0i9hk1JqaXC4kG0OiroKJom88UZHJDK7eekj+QZVwhNtJWEmwkswe5SV5Bf0yhuiXHyp3kG5e35N6JvCEPT+QNOXkib8jPE3lDrp7IG/K2cPLWkMOFk8OGfC6UfB7kNt4vG1QN8hyGvJw8L0gRFVoO8ppi/fRnVm/GcAHq/gygY/lg+jwKIbMlM/k0YkxfQCHxKXubOOWK/WQpYkyQIMsJLYBjRrXHQGiUORxTMNhS51MwO2frlDM4mOSdKNhZYeeTPDuN5AoH885Oq/7BRLXziaqd2XY+s7VT4U4hZ0zIQkdPw2FMtqHEhplAjhU8YqMYKdUYTILXUxU+/4cIHfPIky8M4Aydzp3Daq6voA4L0bAIgiuunp4hoi8lPjMJdqa6EtWNhh7pp5w5m2QWqDOijiGqAc28n6pGPtLEKnjLWnkZBWjYXkX9wqbIeN6yWJnjfGFaqUgLecR+U5EYs3/EobMUSuYFDBtFkuyzGW/eX2nh9Ob93J7e9HWVxozHxKLyLBN5M1UROqHzGJIqz+xp+C+1P8vuVp4T7R5xqcqf7Af8TWECtT9MzoRPzjySQCrPiFdvPj6ME1ndkr/r48Zzef3j55eUn56+fLl8iHn9O355qY8uX22m9/8C);lineShape=1;" vertex="1" parent="1">
                    <mxGeometry x="51.647027155042906" y="36.922143568954766" width="53.422396872100094" height="3.8495720482926394" as="geometry"/>
                </mxCell>
                <mxCell id="11" value="" style="shape=stencil(lVjbUhsxDP2avGpkW749U/ofzBBKppQwAXr5+2qbcRrJu4fhbQnn2NYeHUneXbp5fbx72e8iv76djt/3vw73b4+79GUX4+H5cX86vOnTLt3u0s3D8bT/djq+P9+f/365W5DL04/jz2WF32eeCIksrMh/zr8w5fbvh69n/NPh+QqfmQIbfKUaAb5QjgYfEjWwQQkUgyU04gQIhXoyhBip5m1CTRSzJVRKBRA6NbtDClTCNqEVCtUSMiUQdNf1uiU0KiCGnqlbggTKIIbeqDmCKg+EC8zEVmmpH21RrHKaLB0FIdRsbmShAM7UOgWrXFblECF45QpT7TA3uFmCUAYxlES1WEKjDHZYQrSEqulatwmqU7NB1zqUWSWk4oVrWIfYKNga0ATGEIN3UKvDhOvJpOlvd+g8EnidEIbnL4SEjzSq0AXfYbLGkTdX+IYioCYe34GjA6U04cH52Yu8nAdoxr5sL/GC87B3juIjcM5kfnU3Mg5PerUh+QbeVfmOM0i7UvJ4HG8vHp/A+wwkEz6C84eV9SPMT5nOL8D1kRp7PKoSWrfEv/8A8j9RmPQqqKgQu3j72HHr/JO/BOL9+++wiccpPzuscdodLf6qv20QVjYAPZ9HubnCF5igcSoQKEHXDNahwWYDCzTwnBAMEkgL0GTgAtf/HL4Pe1zwKiEwgI6V3TWxBgULFz0vhEwNEGLxPaBFOEIloWrfadUiCjQT7XF2h6pLoGlcbWbfUmWocpnqkI7PEc2+wTdWXSKAGHTWSDbxchu9cJ1QJ4LA1te1d9tRNgdYG3VYFjfJ9lEO1gmFxE6BUuAdRCfZ6KbrNJZYJ0z9WBgO/DqRFatDquM1rAun9d9dKRI0kCrtHKcejGj0zcTWQFHgzJW7P5J6sAEdNBGS1UEHSXTx0htKcVUYdnG9NHX7VnFyK75agwaYqoov2eEzyKMF79ePKN7gKwyPa95mvOzwqOtL9DcDhk1K8ZIdHk0hMo05DKcKdZW7POEmvhRU/34+WL81f34Ur/iMZljrPvu15WO8Pvz/tPNweHo6fxm6/r//FKQ/nT8jpdu/);lineShape=1;" vertex="1" parent="1">
                    <mxGeometry x="99.46807009164309" y="37.09357475987895" width="7.079876005494987" height="8.050553068993885" as="geometry"/>
                </mxCell>
                <mxCell id="19" value="" style="group" vertex="1" connectable="0" parent="1">
                    <mxGeometry x="19.27582250663477" y="100.00337525491699" width="112.74881919353902" height="26.453997043527963" as="geometry"/>
                </mxCell>
                <mxCell id="12" value="" style="shape=stencil(lVfLctswDPwaXTF8gCR4TtP/yEyc2lM3zjju6+8LVcNaBK1NfZNlrAgCWCwwxYf3/dPbbgru/XI+fd39PDxf9lP8NIVweN3vzoeLPk3xcYoPL6fz7sv59P31efn99jRbzk/fTj/mL/xacN45cm6GBfd7eeWoxr8vPi+A4+F1BaiBfO7sS/vATfsilGtn7yOlsA3IlULqAUK+bgNSpRg7QIgkaRvAekJ/5ahBAIAoVKUHZCqyDQi1xbABOFIGUVWPC3eA5GCUvJ4QekChAE7QIMb+0lnzAC7tC2UDqJSRS8WeUBJ5ECUF+NIBxLXMbAJ8D2BKoDQU4PrEiRB7DOhdqp5SgWGVvrwrQz4EbkH8B5CWyi1A6e9QtX7BHebqHwAMohQCOW8BBdWSMi5bQEWJyxTCAECJC1QHlxBAHS73eKSVxMOVQRaSre05pqC2mThae1TaN6sCJDmRZGufAZuF3PB9Ril2Nw4IiMxM3g0A3C54BIArqDCNgAi4qXVdqgUgMmsWjJIoQFDb5iY0qzR7xE2+VUeoXYTGxBUAJVqjFAeqITUc2/ZMHdTy2LaL1RCxVUw32MmInXVkJxoBSIZugRLNVtrUPmJ23mWv2m2Sxk1XNuzNDDarTob2RgexrKl9788HuumsCn4gzK4NaGvlh/flXqHm0QLJMvmeZhnPkEqavnnpcOQBB3KL9mr6QqxUeSq9QzrfMUiY3sAAdIJEGYje9l+VOAGUYW9bUcAjZ/K2qLUToMk/O9uKdJIPiMWaJJNmEpA1LTKxq0hBmuZtu3ZwopVAUYw90g+JbYS42iNFkzT670EVSWl99mrv0Oqlxw/24Pu6qqVq7YH/dZg01R7NXLoEeRsf5I+M/keQr7nJWn8Sik8d4wnH2Ht33/8A6MN11X45HI/Lpr7+367m+mpZ6+PjHw==);lineShape=1;" vertex="1" parent="19">
                    <mxGeometry x="9.769970470860699" y="9.827590830061666" width="1.1274451220528956" height="12.94465267950574" as="geometry"/>
                </mxCell>
                <mxCell id="13" value="" style="shape=stencil(lVvZkhQ3EPyafVVIKl31jPF/EAGYDWMgAF9/75LX6hlldeeYtzVWjY46MuvoJ3n17cObL++ecvz2/evnX9/9+fz2+4cn+ekp5+dPH959ff5ufz3J6yd59f7z13e/fP38+6e3L//95c1cOf/67fMf8xf+epFLOcQ2pXL8+79/6WHUf//l5xeBj8+f7gViGLoJ5BjyuBbQkPu+voSk1+t7aHFfP0Jr1+tbKPt5JIWRr9fXkNO+voZKziNB4fd1nfB0fQ46tvVFQiXvk0Pa36f0IEwB67RrfY1BO1uf876+BCH3TSHu719NI+T3bfd9fYv0/W39fp4m68Wu1u/3bT1E8vsppLqv1zDI76cgZVvfM7WHhPbZ69LgxXrdHaz3UIk951D29+kaevkBexspdPL7gvYzhPpXWd59rK+hCFuv+/uPHhLxl7qs61g/Qk/U3/f30Rgi0a/tvp9fzSNo/IHzq2mE+ONYr32slxWRLuIh2I8W+p4WcAscyEIYCxDJvVANSizIMKDsKlB7ZGISSUKHHR74ZA1RUaCyS7flI3cC9A4jJBAYC3jOBRTjiglUFtcNKTsKNBbYTa8FBQa5tJkehF4TYKE9H5HhXoD5fg7d7TDIsxo2DndpipYaRJweiGmUvA5wp2kW78qZaSTiD4aPGXZoSzPnAiVEuIMFKUYpDCHBlgq9Q7MQBDsIZV2thOai0iB6MJAc4KKcFvXo9BApLnRZHnwEbqXEwnDSIwPz6W4+vR9ptCDkSCPis45CrXVkJ5BDI+Bjv5f2Z7U9C3FRA0t4VrtVJmHG3gSiRj988FxgIAEwzTA9mF5xhxg62WFazu5xZl0sLpkxZ+CEleLDhEAgbYmahjlk3e9QB2V56tKEWqk/WFCBQFbNNNiROgJK0VCIpmck3W3JQltiOwzUgwVP+kqKkGXhmV5aF1U7BBoNZHOHXXEiXOBAtEOApwvz0pA/Dsr3TAAwzihmJbF16mHPCI0jC1ccAMpMstgOHXNmYx+FGx+YxszKSeTTjoozBiXMRdtCtEPAiDuJfCYQ90sbC6zcRcv+rMYzhdCfiZm7po3JssxKXTA2rsxi62TmAIo0FTCMBa4+KFW3QAk8oC+ifBWJgcr0daPzUK/LLo8wSUsRhiVdYH1k6FZD36Hk0OH5enERjDq/ZaaQBhR6X4NK2c8jNGvoFY2ax0fL9KF2kalbGk4CIeEo1VwtK1GXMZQEOpJWpDlfLxh903LSK9oJ7x9pulAV/SWtauEVDx54XyH2Uxti7OFAV8RcIVJT+6mC9mMOTeynpsUhbvaW2e/HIBnWK1lfBrL4wksvDXGj0tJCcWk2B4Fi18P4k9l50ioL3OIhK/0a2+i7vjjsSUcqawGdpdjiDShTCxWPMbxaI4Ihd+Iky5gTZjmJF1OM/zS4w6BkOR9p1h2bYFmOaQnM9FYkvSpEoN9kCmSzKAcChTKiWfUDT660amm/N/ZXmljJLl2Q+9ozMPCYpA9eSXm5JiIdN2Nh4doEwB2mdbFLR8xyTIAREBMQR8cfCED3YR6JlZziss37S7NqpGLMNoHI6uvqnvWA6f8v0LmACgpUZt7RZTn50SthkynTyDoVp06AQOc0jeEEuKa7vwPfYbgjsUL4JBPuSKxsNtmEe6XBj4S9OKGE1jenTIBGjYj4MP2BP2tzOzDObALF+QOrRmZX1JoCrFAdXdbP89npDy7MMHyYHgc7ZN6DPHXRB9X5iAK0ixpPbOmBHn5QIKOLzuyRmbdg5+nWW7oSgNrIzO+YQEG+nSsPAtXVRmSliFfAjjj9IC51bC/OSMXJCeTMadB+sL06EqyDrlwxsgw71PVu5wJ5kc47zseA3VgloKjRUNqDrSelDhaMjRkD81Za/hfFrv+glQJj9gDrnTL12bXZL8Ar86WglislxcWVawttmltmlQHdKAUojpVkmrlZZog1wuXcV5knxOBEz2+ZLSYBPNNuIe3n4c2a2wzHbT3NzHXxm9t6RtpawlJcXL3Mq8pFElxP3rNVnNKItLvbOnZGLQqR9T1ijOBDNf1EvwzEZw8HiqGPWl8VKxesOT2Sr0Qw+xmCyCG0uTHaUs/NHxnQjIH2UGhAHOorj7QymxBbK+2fakb/bZROqPjKLNPvbGBhZYRxZa2IGErbiOrtJ/KmRsMmnyEMbfJ1V0sU3mfpJx2EB30WqE6lRoOKCcCjGtLTFtxwsKrUTGe/y3VyWEXRBIC9PygRqhv3eVDDM4Hu+128BYdk3JIYvoP6nh25Q4oRB1NmW5CpWl2Xjw/hzVtDa1Me3brsRzLK8KBpB89U+BynCSSgLHzkYnaMoSfduDE1LLMZ7DJyPQe/doGWV9y/CkuQ5DQ+vDc7XtCIHzQrmsN0+w6d90JnpN+R37CUNR4nlOyK643ewbAKqmaGpozvj4LgM3gUGG5mafAMe0SE21FpWaG7TsHgQ072JpCdjkHjvb06lHc0UsV1N1hrumfx3iwHetJmXSzZbAXbLypUcS25CbtDlVc0GC9d6XCz8fK8g5w5Lbt0jRiXlGenFrZwdmzQedk581FRgOU64rp4E/ZY8lixHmQCjD3PYo4ToKVzxWLkDTGu6hAwRX0HSle1EXAIVVpGnvOdEQUYjiZ15qrUmJIfLdZFS88FGvbnlJecjIFBmjdhjwm4SS0TYIlhci1S5TMOtw7enUBkRNSNdzZ6Z1c/Up46HJ+33MUMGvewMmJBiflnw0xSE6U+x3DSXRxmqUnBwU5D1ETn8aFSMCcMmTNjTJ1TIayAh75vWMiGCrKboMxr3PbcgByaK62iJszMe6ffE7imXK+0qe2nJzMtvUSsTLWj/XSxHnv4R2Z2tX5/z4ff00CYazxdcOepnfJmNxNRy4P3xMpgpE0gV80tnU5NZmQhhXd0BO1TlHK7gqzf4JO1+tyMkqTVPL+IJ/CtxRy6YDPNrk0hHMZcIyTxIdHkiOAswDPcc5+gJT5nciuG3wnQb6zcJy9TgMMYDK+bAKt2mEBztQgGY7PcMtyRWBcuuSHRvr5puRLAaZlO2xRzNsYrjoVS5zuJY0dywT3xYHG6A8sRfvx71ccC9sft89j3zx8/vnxde///8XNa+6eXT3Hl9T8=);lineShape=1;" vertex="1" parent="19">
                    <mxGeometry y="6.182341773373764" width="21.380976255371223" height="20.271655270154202" as="geometry"/>
                </mxCell>
                <mxCell id="14" value="" style="shape=stencil(rVvbblw3DPwavwoSdX9O0/8IEKc26saBk/Ty9x3V0FlrtGc2AfrmC6mVRHI4JLV38d3Xhw9f7u/Mf/328vz7/V+PH7893MVf7swePz/cvzx+w0938f1dfPfp+eX+t5fn758/vv7+5cOQHD/98fznWOHvV73cXLChZf6f179EV8p/f/j1Vf7p8fNb+ex6Yvkk5M2lSPI1nsun5opf5JPzVchjPyyfvJA3VzLJt34uH7uzVT673IR8dm2VLy6J+4w2r3vKV5fFfVp3pS/yzVWxPj6+r/sJ3oUgFJLLq8FCcMWEgjlbdxSii+oTvLPVZCG7IM4QmjPaUnVBGCEUF2lLff7lukJypS4KFlwTZ8AR/Wq24XfCr3GJad0SDG3CsfsWZ7g2cUnNpfUEEVYQ61fnKS6LdLzsSlvluw5kPi8ir6lAcHnFoRHZyotcpbhvcn1zft1/Dq4qC7sSVvk0b/hE3mh93LAAojBh7ZDvLon7966v6xd4qHI459f9l+RMnjesDl3KtMiJPOF6aTpi5n8PnAvTIif2iut5K/xZnDe6sOJczTIxJT5vrfOGT/w/res34KiAlMP6h7xJVMTtrf7Q0ryBM0AhB2pFBjwgizy6AVeVhY/1DoXumtpSd3k9c4eXKBsDRddL7ea6yjXF1RVVepr5+bpXeNdWWOlZ5+M0o+pQQBwIu8W2KVRpuIGDpAAOpihLYYoDBcm5vKuNFbrwVUBbpFvqLqhPqIy+UPDCcAV22M+gFCLHQ9fxCbgi4gUFRXRKZyYIS3tx6Aqis6ZkOF9VKTZxzuxxZonrCpVjGgGUFciA1qwohhCtIh4a1iMYq9NZrisANVZvbXna/rpCnjs+FKJkzNgAw0yQAYQjErTiGlQq6d7l9RNqmZa5rmCMSzClIpywa1oDCNlNhWjfXAPu6IW3ArYq1RUa7uHMBPcIKeVLF9g6FLz0JUQw3RJgQeUHKFBpAeDp+hMIBEDaVH64oNBbVii8dQDjGtOgnUVvqa7XCjxXvBAKkYh8lxUq7NBIoUjmAAVbDx01zMA1iJsjTSpuBeejAAK9KWpLaebMQyFLbEUAUQYy03YwBgEwZFXiDRBYoRJlpSJwYEdcOZfJMc+AjGpClJUmrhUMr5GCTRy5rmDcjEAxr4oYAGMgruGCylhHc+PSjagqJQZ2jCIPUCqz7iyLkmK8fpJU6Vo3S5ksxwknhxdJJwKzCut+gmQAqXIVFmTRnxI3LvzEpzMuSbnT6yK7MUkKE5LP5ClNaT4CeaoAwmznncnHyOsrOt9mGr7ISzbfmFAFXUQ2zh9B5v1r8v7G+uv+vcyY8YCoi7xKyXFLNn42tk7tFVj+hj/wfhTNiY0RzkvyGI865c39KHnk+5+JF8iHzV66+xvYn2W5ufGPIPFknJfXz/p+amJ57T+c9G7G4xbv2n+Mz3tj/9t9Kqo/4oXxwbS/bXirKoO4UVgv+eXYP8tXbV/b4uV/lB/ck+NXNR3T1tz30v+Rvzb8Ufkd+TH+zH2C/2/xqPAf+Z3W10018Afm0jL/gp+kNV6SjN8amD9kyYvBrwjfiiyAwN/Kun6bBj8jiHReEETVlxnV+jbtUR4Nkkt93KAHhqMhQRB0o8IKXEuHKkdcKAXaClo3omD0DIn1wY2UQuZmN/xC8eJeeJphVVfrldvLKMkUc+0bM0DRF1QN17gTirJS1T+opakkQ3aTt7SNJi/wdKbQ12sdxbeaaXjPVd+o75UhOhPebLrP0pkR5SwH0L1zyslHUvnBhkDxugtSOYmP5qgI6l625lKRMdq3nl3pE2jPIijSNMd0yBkDZU2SuewoUHU7d8wmVmcCeKqBJur7sPUdm7D0mK9Qs/VIX2f1PXc2i0w/o76nT2i6FeqZH3UvFXCJFKPd5FgZGYtaDj3KWQIcodKWshwkVj87Q2/68GqyOZoIW6e/K4XEVcIFDK8reO4KIspVky9X5uVdj8pAfIyIttdJC9SKhwkHtl3nboU7xuMQmkyWbTAlq6nGsAEF1c6JiacPo+msPsFzpxK+oVqbl/7TG+9TaGz7oaMsUcOG9yOCVNLKzJgQo6oIC8ajfqCAnLv6DZhAKxXOcBUGpFJvLQp3XQBUsu3FXTvglCxTebBWm7by9LJDPstHXIGrpBolJHlm0eD5JizmmbyNtxBiP57vc7y1EPe5oXxJcnK/saSiXzN5xsfcJVv1kwce8seI+kS+rPc5Bs4i7MPM9Ie8LgsDo+94RSjfAnFXOes2GRMwQKVqgyZG3jHyUQlq61oXad+NEIL7y+kKdznG6zKFQJ4fYWKLMsCMq5HxbFOcAEUjsbXRCVIm3ihquAGKdT49ORSKfHGwv14JSXqdBXbrYNrtwJyoFPb6jVvhR32aluPfRoNu+WYiGgcyOIO4orjNAbO80r0dmuT6l1HqRV55UdqG4lG+1QEs8OBTjsOy8TjGZDt6fxxtkkvs4yqT7xIgb9z+urE+tXNNti3ydj83ztt4XGgSJnLjiIma8zZ+lhtlDXhNXlGza/tReWk/b5yZ/wfvM+o3tpu9omSKuz/ceIz/s4/9b8rjh8s3Cz49Pj29fjHh7f/5mwj40+u3GOL7fwE=);lineShape=1;" vertex="1" parent="19">
                    <mxGeometry x="93.22906603667695" width="19.519753156862055" height="22.261738444175656" as="geometry"/>
                </mxCell>
                <mxCell id="15" value="" style="shape=stencil(rVnJbhsxDP0aXwlJ1MZzl/8IULcxmiZBkm5/X6qupiNKfg6K3pyJ3ojr4zIHfvN8e/N4PAT3/PL08Pn4/fTh5fbAbw8hnO5vj0+nF/114HcHfvPx4en46enh6/2H89+PN+1k+/Xl4Vt7w48zLiQqtaGC+/nnSaYSfj95fwbcne5HQDWAQNkDQCbnBoCX/opLgGAAhTwG5DACIiUHAIWYR4CnGgGgko8DQIjReaEwSpShyuwoj++PlIECHCiO7w+U0PszxTycd13A5fmo8tjzDsgTVdxk5UngfCafjb4Vvb+QG88XEobn2USEpwgcpgLJ6ACfKBesgR81VpOCNFATlTHmNJMCuoHJjTbVKKnYaTKKpG4XcANXCibqmFgAIBEbtwklYFaN0zAqnRL0gyaOG3XInhymI+O4rPQBdAhqVhlDyfcna4CzuV9Sz74lQNmKywgQyF/KVnkEVJw+ja3G8K5K48CsylajVWvthLM8r2w1+lk8eWCjaOlCNJCAAurlMSxE5QfJoxYyuSCafygsJkJVwJ/YvcTwpugoIAGRNLd8tQBUB5UADOc1AEjP5C1pCy7NqRJPOhTghhx7Mu4BQKQs/d97AAiMEilMjkORWmpP972VAKB6S/XNccBKdSVSBI6rZYrW3PNpDZCu4g6Ayq2o0lMseZTPlcrk6YAAYqm+WQlUUAXkydMCSEwBYqxUMIk5ZxtDVcuD6NMrarGAgmVKxtXSo+USwBULQCmnAkSxAEHMVyYdFAAySAGhWgBqA1qCZQuIyKy5F/2dWVHf0IJzAjDywwwoXcjXilQ6e75WaUyuC7NmHBqz41Qr5OnaZ5A9AEerDT5MTIvwzjg05gQqsE6vclQ7b+SImQbUDii+Z6IRbNeZygQWXhUgzzkKpo2Zjnd2+E+IRY1QoVDZmquQehMw+KLOSR9BXltJsWEXtVrg3L3oBpSaAGDRbwgM2EVHI7DvW/RMAmegRVcmcBxY9H0KADq0znJSGq4z6kSvCgDkp91xmgCoyfJsR8sGAFaqvXfenwduiHZObCSABoLpfIGd7kxjCS5Mpv2HhN5xrS3a69923sGFUrTjiQ5kiJKKHVrrtvO6MGCZZUNlqsieoQfMBnCwsfepT9nbkFsgWXglCzNGM2wo1Qd1vKGxAQKw5XllA3hD7kPntp0Q7GWxc3eKsC3h0Nda28KkQjriZPvJGOCWiEuvGtvSJ0GlWWynFHDhid7u3jR6I1q+ees4j+tIU9FUzwQ5WAFmD9U2Iohegs0f6eP+JRX8WKjwxMfKwGO+RRiq6qNqIg9mG7MtzRXuS9n3tdxmIO7N5aUFtGm4fcElRKyTr30G2MacDXDlQ8PUSSoLBgwoyQKupLMp5a2S4htMm6eAiLdKmS0A1c35Q0PzNBKpLG64AphvgCJlS6vXlM5223jNrNn2kdccl3pxfW1o/MNXrmsA/fH3o9rH093d+Zvc/v/2I5w+On/A43e/AA==);lineShape=1;" vertex="1" parent="19">
                    <mxGeometry x="98.70493895268868" y="6.570346062883857" width="7.80557287009987" height="7.76215621805149" as="geometry"/>
                </mxCell>
                <mxCell id="16" value="" style="shape=stencil(lZbdUttADIWfxrdnpNX+XlN4D2YIjYc0YUKg5e3R1mOIlkSd3vnv88pHR8c7yc3L9v55MwV6OR0PT5vf88NpO8mPKYR5v90c55MeTXI7yc3j4bj5eTy87h+W8+f7/mQ/+nV462/4s3CNUEKnAr0vV2JCan+v3C3Abt6fAxmlGCAJWnWAhsoGyIKaXSCJAUoEeyUltGyAqis4QG2IFmiMFh1AVbIltYLE14FCyFYlJgLRdSITJNolGtiRKRGq7ZzqQE4jooBtI2oFO4BUkAVK84EMsrrmBhIHKGMjUkV1VIphXCGqW5zO6W1pFggITklaQK4G0CKzs0KuaMkCGSE53lARrZlU6OB8dG+TXUFbGfyBoGFG6V8zykPjCLFcB87c/OkNWoPh8hI6MBbQofJa3UdysGtbX3FZJh36YUg1GJySeqzYkr6i53KrBeXbjFYnBjQa6wBofHozmhCHoVZZHTN1QP4HkDima09Dx0whrm7+BBKyE0yc1rQ+i43ofHRBtW4tDHHaEMYwzrym7cXn1ar2AxKvKXLteWuLSODg1ZNsYgRfUc0TWz831xQcR4GYkZweBxmBBHEmRz0x/Bm0AY6garpBofHfpgdfO47HebdbNizn98cdil5adjdy+wE=);lineShape=1;" vertex="1" parent="19">
                    <mxGeometry x="106.20134415773043" y="14.331715193945826" width="0.4835812961995928" height="0.4850647618470396" as="geometry"/>
                </mxCell>
                <mxCell id="20" value="" style="shape=stencil(rVjZbhsxDPwavxK6JT6n6X8EiFMbdePASa+/L1VXG4nanSRA32zvjMXlOdTO3zwf7p72O2eeXy7nr/ufx/uXw85/2jl3fDzsL8cX+bTztzt/83C+7L9czt8f76/fn+4qsn76dv5R/+HXlWfImUpy5vf1B+fJlL+/fL7iT8fHDu8ohgFvM3HexgcqacQHCmYbnynbEW/J+G28PLbjAWKPA/jQzG34SBbYb7m5Y3EQFWC/PGYe8Aba4xIVq/AG/L+XgCWF9wzwfgowBWCPjxTGACeMT5RH/1hHNgJCbvYuBHExOiFTGj0kJiWQokKIbiDIS1kLCWY8IXhKyKmp5cySRI48OiGSUV41lAMMW/IjoVBEeWGJ41gHOLElkfz40sVQAS/tSkvkhRBxKRQKY2oUhrUv72BHk1iqCRS/l+4yupUDrIZgdGpwbA1tnSD9aIw0J3Ig+WJq2d8REkjvFMk7TcjghCyvOJn0r8muEoonLprAIFu5UJlOYOAlZnJjtnKGNS2EmDTBga4hBNUmeWkLWwRWJxQywEvWLI23Y0RskyoI+QXNKnmcvSYEYFN9HDUB5YY81hW0+GEr1Hk6gUEFCSEYTUDZJwQ7ESJ6h0ylaILFhDyFOqPcWCM4lK6zSbn57b0vLWMPE7RbM9RhK4F7s0bt1GeQcnvNzc4kNNlX0ju3CfDeAhLxBgbEeo36N46YQl0wQTcaJo+LWrcyhuJhpVkylIhzO+788J8YdUZ8jFHHUPoQo066qRMwnqWGJwI4IUxSscYCNCfRA3YKHpoSoji0SaWJx3URxE0+9wICVJFb5EIvgpAui1r5lSX8WyeoOi0BShS3dMdFW0qpI5OmIpJsQS1clJ/yUlp69DrBaV0mgtriPUhJxWihCJJIp2kpCGixiW34d2uHQSZFvXY4LOSqSarkpPkgfex1aljfqnbLrWrQFTjnaqBHrwY4ImQ5V9uob91zHT9FLbQ/WMcbPeQSbEk26W26wA1FdltVOvV6AjV7iqwDgIp5meHd9YpB+4mOl8VqTOwf/VOvP5BD29LZ4QPqLXq2CT6j65VWgx0eiRKrh20NMFL15KYSQ/40enBWe4B/ZJ+c8GjgGL3sCR6pC8ln5c8AtYJpa1eHRxvGpKcczk/TvN3hI7TnY9eLb+Plw+td5sPxdLpehfbP9d2n/HS9N/W3fwA=);lineShape=1;" vertex="1" parent="1">
                    <mxGeometry x="-17.97180297086811" y="112.81765688926271" width="8.754997307160535" height="6.453253370116272" as="geometry"/>
                </mxCell>
                <mxCell id="21" value="" style="shape=stencil(lVjZbhsxDPwavxKUqPM5Tf8jQJzaqBsHjtPj70vV0Mai1lP4bbPWRDyGo9Fu5OF99/S23Xh+P5+O37e/9s/n3Ua+bLzfv+62p/1ZnzbyuJGHl+Np++10/Hh9vvz99tRWtqcfx5/tP/y+4DxxbSDPfy4vmKT8e/H1svywf71anii6YXkkkdvLnaechvWOKWcAKOTKCAhU/W2ABhDyCKhUwQ4SyPkB0HKotwFBqIwhCVMBO8RAfgxJEjEApEB53CFolcJtQA5UxjaE0INcBRShPLY5FJh0ZapxbLQj5wAgUjEAIQ8aV0tv0wKI5CKgBjMxj4hMAhC6RTAxVcooidDL3gHJw6xLpTR2rvUSZK2NkHEgUu7NX2+1TpwMgOxIQEhJQxq5kSP5BACe0ph0rhQZ8DuRH0PSrAroQ2SKI/tKIQaAxuaxcdVDWZJMdaRG1TIAYVJAqhZQQOMUEKYdKshBAWyU7JPA64hkxbJtgbJOFCYAUiYFeG8BaCCacE07BKAbDTCVyaMyre3AOCQ/8lvHvOCyGhVQAORGsiqggIjJxHkCoJByF99rACaT0ZmWA+p0pjLtUIAKiE7kRA1G5FNAsADkBdqMRguIKKTcrcI1WzEgzjOKuJTJTSpQMb3LPKIYEKekkZ9p9J5CQo5JAW5KOmIAOwuAjVOAWADjpN00cZB89wLUk9kB0lMRlDVUcubMSlBb1cQVA1AvC6qUlmN5OUYLPqhLj3gBhD6D61YgWmpkhlKpEZuyJtVC5E40pHHi0uJX1g2TWLueuDvNdUAiGVUjFljWqjM9VqnZD6CtdWqctjIi08dW+aKnANy3ltW4k4BP0SzdWiyA1IVnnRrSa7IAfJ/BdbaKpXc7YtA8TKZPPJZ7b+8o7S4IqOFDt3gLwHWlWvf3iZK5KyZIb+fsTU7fICcQ+pG5kLUb2dXlbA8HbLzZGhnXe3Jr+SjbeuO6bzkaG7aOhKGDYeupGF6s2Kovw5FkSt4sR8cH2/s2Q1l0VuSwy3YUxC5HXzCs8WJM4u43rioDYr/z68t/l+vD54eel/3hcPlOdP27/TCkry4fleTxLw==);lineShape=1;" vertex="1" parent="1">
                    <mxGeometry x="-11.8600922723233" y="109.46329800657827" width="9.533096102039298" height="12.90062489487197" as="geometry"/>
                </mxCell>
                <mxCell id="22" value="" style="shape=stencil(lVnbUhsxDP2avGp8le1n2v4HM4SSKSUM0NvfV9uMk5XsnG3ewqKztu5H2l28e3+6f93vgnv/eDt+2/86PHw87eKnXQiHl6f92+FDfu3i5128ezy+7b++HX+8PJz+fr1fJJdf348/lzf8PuEc1bKAgvvTH6T078GXk/jz4UWLVyXuqTQozko8UixQvCnxRDki8RaUOJML18U9uajEC1WHxIO2TNsQZy3uAzl/XT6Q17r6RAkoG6wpPVMDtoxUnJZvxMA6iVi/X05EkZCpaGvKkwjez1STlq/kwf1L1+4cOh56t5H3Wj5SBfb3jqI2UGRKDACesjmhkQMaSAAUrXLy3SlzQCKnfZASBRATPlMyCcNUKgAUclkDGkV0QqWicyz7nqTzMHWU9Qk59SdzQKCsdcgFFgmJ1GrS3vVcmgMKBV20OMJQklhq+kqcqQHHxUBNO47FbkBpCTWvQ6P4boY5oFHWShdcLtJZxTOg9AyZA5iytlKRggEAWayuT6ieGqoY0Xq6pl6S5wDu7zsDci/58xojV9JFqRbKIKclEIIuArV2388B4jjt6SZngoxjqRFahyaNBZhVAqFqHVrohp4DpHInC2jgShIISSvdpFkAK1VHwZyQejjOAdGGRssU0AnZtvImvRxknLjJRKsAGCgtVrdXkrIAPC02ScUCKtChjTpU2EFbsy1angQMqH4AIKVbL1srQEQ6NNt15Qlsis51P60QeeNOzQJQV1wA2QIqYgLNctrlFSDllguMANCC5N+sr7SywzVEjsMRKPxaL+9rACiWi2fTYCbQg5bYGR2Bw88yYkwppyckrPSoQ7zVSnHDD8MJAVvJ8OLtJB2DCdW+abgiTjZNiIT9MKZcBjrMs5pvLRyIiU5LU8WAOgAavhKbCes/knSsAzj8bgTk3mhXAEQfpAuZKUWaCmJlQkcMFRUAIlnSSS0bKDCapFebsUZaL6obNVgat9XcnZ2DNuiDMBpD4xaCAk64kOc1BcKsjE3rDbC6ygBgw9XD+n0ZMVbMEk1aHCygniN+TqeHDBLfo9on/NsSdoZTijD8oCmQMHx0JZk+zRZBggWxB5lSvM64CzmdA4bxUoKlgPBehnodfCXDBIrZdogS4GZDpsVkpkUp+GhV1AYA410RW7PKoIM2aTJTB91SZJRCdFqmdtMgZGqvaJEwNK2cYRHw1RL2HOCCybPN6YT5jE89g8+AAh3nYy+Mq/0MIx3ESnpKkXB0sPHaK0k4JtSyiLXOkeFCtlobxQS3AsUyuOhhqEp66vsvJ4LKne10LE/gHsR2NwlENDwEy3z8mW1d28pq+/gC+7PvE95qi4siwtma7XGtcJTMmAsnGddXC6sVN7C+6/vL1QId9IOBFG6t582+fWv57/Tdtz4tGPGtDxfmMq6PGtfE2YijLjOswlzPg2tuckbcgSBzNgkdbEiuj0wrcRiSebgMFOdBHF6Gh8tAVYv9HIUNWa3dsZuq9SoOglu/jWFx+XH5DPd4eH4+fcVb/99+tpNHp09+8fNf);lineShape=1;" vertex="1" parent="1">
                    <mxGeometry x="35.024455050867346" y="124.96794553220298" width="26.17655677074376" height="25.16482807741515" as="geometry"/>
                </mxCell>
                <mxCell id="23" value="" style="shape=stencil(lZbdUttADIWfxrdnpNX+XlN4D2YIjYc0YUKg5e3R1mOIlkSd3vnv88pHR8c7yc3L9v55MwV6OR0PT5vf88NpO8mPKYR5v90c55MeTXI7yc3j4bj5eTy87h+W8+f7/mQ/+nV462/4s3CNUEKnAr0vV2JCan+v3C3Abt6fAxmlGCAJWnWAhsoGyIKaXSCJAUoEeyUltGyAqis4QG2IFmiMFh1AVbIltYLE14FCyFYlJgLRdSITJNolGtiRKRGq7ZzqQE4jooBtI2oFO4BUkAVK84EMsrrmBhIHKGMjUkV1VIphXCGqW5zO6W1pFggITklaQK4G0CKzs0KuaMkCGSE53lARrZlU6OB8dG+TXUFbGfyBoGFG6V8zykPjCLFcB87c/OkNWoPh8hI6MBbQofJa3UdysGtbX3FZJh36YUg1GJySeqzYkr6i53KrBeXbjFYnBjQa6wBofHozmhCHoVZZHTN1QP4HkDima09Dx0whrm7+BBKyE0yc1rQ+i43ofHRBtW4tDHHaEMYwzrym7cXn1ar2AxKvKXLteWuLSODg1ZNsYgRfUc0TWz831xQcR4GYkZweBxmBBHEmRz0x/Bm0AY6garpBofHfpgdfO47HebdbNizn98cdil5adjdy+wE=);lineShape=1;" vertex="1" parent="1">
                    <mxGeometry x="61.32185341316335" y="149.96741973822577" width="0.48358129619950535" height="0.4850647618468429" as="geometry"/>
                </mxCell>
                <mxCell id="24" value="" style="shape=stencil(lZbdUttADIWfxrdnpNX+XlN4D2YIjYc0YUKg5e3R1mOIlkSd3vnv88pHR8c7yc3L9v55MwV6OR0PT5vf88NpO8mPKYR5v90c55MeTXI7yc3j4bj5eTy87h+W8+f7/mQ/+nV462/4s3CNUEKnAr0vV2JCan+v3C3Abt6fAxmlGCAJWnWAhsoGyIKaXSCJAUoEeyUltGyAqis4QG2IFmiMFh1AVbIltYLE14FCyFYlJgLRdSITJNolGtiRKRGq7ZzqQE4jooBtI2oFO4BUkAVK84EMsrrmBhIHKGMjUkV1VIphXCGqW5zO6W1pFggITklaQK4G0CKzs0KuaMkCGSE53lARrZlU6OB8dG+TXUFbGfyBoGFG6V8zykPjCLFcB87c/OkNWoPh8hI6MBbQofJa3UdysGtbX3FZJh36YUg1GJySeqzYkr6i53KrBeXbjFYnBjQa6wBofHozmhCHoVZZHTN1QP4HkDima09Dx0whrm7+BBKyE0yc1rQ+i43ofHRBtW4tDHHaEMYwzrym7cXn1ar2AxKvKXLteWuLSODg1ZNsYgRfUc0TWz831xQcR4GYkZweBxmBBHEmRz0x/Bm0AY6garpBofHfpgdfO47HebdbNizn98cdil5adjdy+wE=);lineShape=1;" vertex="1" parent="1">
                    <mxGeometry x="60.21417096499613" y="145.72126260556365" width="0.48358129619950535" height="0.4850647618468429" as="geometry"/>
                </mxCell>
                <mxCell id="25" value="" style="shape=stencil(lVjLctswDPwaXzEkQYLkOU3/IzNxak/dOOM4ffx9obpyDFDaTG6yjBXxXKy04bvX3cPLdpPC6/l0/L79tX887zb8ZZPS/nm3Pe3PerXh+w3fPR1P22+n49vz4+X3y8NkOV39OP6cnvD7ghOSOoFS+HO5EajJvxtfL+aH/fONeczUsrFvFOu6fWKq1j4Wyn0dwIGydUg9goBGhS1AY0rrgFwpJgNgptjWAaVQtydwn+8sAiQT2xiyUCzrgJpIbJZKpApiaIFCsQANGsTQhLgbgEQYdI9z1q+AQhwAoFCxQUujFgGgURYDqBo06KUYNOpgEZkKyKse0R2gUgOV69reNgjNdAfz0JrvjaYdD1xqmlfr0lQa3BvVllrPFJAmYWKb1x5gIUqmHC2AKQBA6hSaBXQS0BupknQP6OgEnRcbw03xlxHZj5AegZhMmYmDBxTkU6Jke2NqLzBCKXpuVQCDqVZAsaXumjjkUvTd14U6OiHNE3YDYDAQmqXuSl2oATpOSu/ZA/5XZq3UvQ8A5NLAG5NL6IRONfqgE2gN3UEyANAJHCk4lyoVUIcJ4E5olEDQ01oUD+hoHrrnb23vDHhmWuTDUCOuTNeNczvUuDUiDwDcfDV5gKAYkt9BCoDyJFJLPq1oo0wj6mLQjYIBdZhppAU0huwAgnmJB9YQTN+fBeQrWV9XUJ+5cHmjdN/euuQQa0j1MrFlqAVq8TurqYZCi1qp0p0QZqZaBnQvBapATaZbttp5qKor0QnNt0YNUAq0MnP1VWLJ3L9rMrFZlyTNTi6nddA/RVcWaA0tXLYuFYYxjK2Rr+JgGTC8EOQIC6d/i5PreV4Ay9zK3qWPXmqynwcd2gBiiNXvab2D1Ewb1jR8pQleU6ZZAq6YR2+OnBlUd4SiZHh6pIR9t7kMkE/DzCPv5gWskIGuAyQulXj+6aiu7N8ksUZVLeXftZG5zmJw5hGYF8/qGioYdVXYQyLBVH3yO8GH5nrx/kniaX84XL5o3P7vP2HorcvnD77/Cw==);lineShape=1;" vertex="1" parent="1">
                    <mxGeometry x="60.69317000184151" y="146.20251396587832" width="3.080191368740788" height="6.7041794903845515" as="geometry"/>
                </mxCell>
                <mxCell id="26" value="" style="shape=stencil(lVrLchw3DPyavbL4BMmz4/yHqyxHqiiSS1Zefx8wW5wdNnZ6rNtqBM6QINBoNHlJn348fvn+cIn+x/vb6+8Pfz99fX+8pF8uMT69PD68Pb3rr0v6fEmfvr2+Pfz29vrny9fr39+/DMvx64/Xv8Yb/rmOy8X1OEZF/+/1SXC5/f/g16v989PL3j655ME+RmIfXMn4/nBsn7rL+P6WiL242hf7OD943z653hb75Eoh9t51Weyzq/XYPlZX1/fLdNh9++zK6v/mPFmvuiOlxb67TuxDc7ms/lSHkg0LGhBhHZDoise/YceKq8SlOoEKIVfplLYVbvZ8zc2ldQUaE16O7cX1utpnF0gOFNfWkB57zHIGQ0JnWElMJNfWkEvBBZYDzq8poEEuxJ/R5XW9mkSB2vt1v1LjEeHq6p8BAtQeUiBnl0kOK4Ks8ZDrTIoD+7T6p/j55Oj9q3+KYgTBrOAE3i9OSAKoP+H93TWGEXM3N0iJE5QO4iGDvVBMMRAkfc7w5+K/RheIfypCUC00H7tLYM/xQQGlrBvQ/Hxyf4Dm9/qFllwkGawAFdaQa+oEVgY8lrHW5qruD0gIEt07YYWgzjq9DdA4IWtQEEnrNvfMS3FxYd3nrotmX2gI1L06TwI7R1cDDmDVPgtCe290DVkrhccBlcSSprokHMCKTakudjOAoJcEhNMxJfIFMfVDB7BolTYpzc6thQzQ/I3gVnGFZKgmcAMvFRfJTtfu4lrTeqI8rUUE7R74AJ0ApOj2zfsD6szgbYBySQZLHr3UsvMkpzUhI8BMmJO8PyAh2ayKGgRm1OsJBhSXCfLpvkJt0L0XkkAaObAGLQ6suI0MXjdOq4+QjRvBDF9IFPl0QFlzWhQqmZfaXOJWcDUfTr6wurVk2uX0hiVLKUZjsdSQAwwOQxJI3SrQhyQKlTogrIvOnPVoaEDGKS1kNEODD3hD4jmt9Qa/4Gf8HuUD1OlR9ZiXwszgHZVn7Z3mNBR2ZXOdfGGU8XUN2owkEhoKKsBWlUx4knEKKhH6qTwblPsDAoaGtmSBDFBQAZgJHFur8kdo4j3tSBRUgCJ2ipSKKQBLjQKlFMzoLT2Oam7uYM/KleJDWNNTaDqXiC0bx7xsunKhYaoNkUdVgXUkqaOqI7QsaKZ7nA+116LhcT7EP4PSJ/QPmb9mbUJ/dm4fcL2NzH+02B3tGdk2GofQDn6ISma/SDwMe/QPA8abaHWzZxmv9oL+ZMQ8JuR3J+1ORoAok7Me2QNp5pLRQHGcz8n7K87nZP4gegnFaH2dx3hjitGwz5cP7K/OB+OTxk+2+FN5vojBNxb/2eIVq5LR1LCT/DXEV+dz0i2b9XJ7wf2Vk/zFfMykyMeEKrfQ+nVvPkwRsestp/4EiYkrTGa/TvPxY/YdTw0KV92jIeCT8/9k/SqTdR3WR8QTZq/1N+D8M6vXDfkGb8uUP3ScP2vYlZ+ADqL7S+JBjEQpk1kf8auG+MAUZeVvUC/q7JXv88M0VZsb3/NMoBAjgbjICKuZjxJWBojNEJoQaacx5IbVQ2GraUdyA35BqMrdOipRofGOz+jcQ8lmzU+aoLPrllgZG4IhnJRUum/aItZ1Ddrx0QEyFcZdT8m0fW1zqznMqKzNNampfTHTiXrH2q2dN9PrdAAUS+3tWbTqAGQrnsK1DkC4yDTfgveT7+0lEBYb3TBkP2d5NECgBJ66CSRBEQpiVsYZsMN0n4pVU/tSRls0+sTIaVTGMaKj9tZ0DQp86xda4G4NUwDciY5MHWsNY0ORh9W2JjM4d8JpZ0i2nZVsYBwpm20m+AaQMPlAMIM6r1d1O/rYK95MEGhY4G7RdSTCAyPvXPfRkgst6UhzxgHMQcIua++PMCx1AAM7iDZAM+ZEMiiLOavotGjlaA6ZGmXyqaE8pjvHoi+Z08rOexetOHB8OlRzRs4Fm6OTs4po1J8eaHwHK3f1STDvDxA84tespUfqaZ74bgMS7RiUHyEjCzTlGgqndbt2cT8fXLAnFSRDzTZrjrPIS5O57IoDPXBF7iNCi3RAlNTyxrbMm0sBndYebxg9b+E9KoI3NDiyBwLg6aUVb1hPpftrhHTtmfj74cQkB9oi+XnqtPG8RiXWgMcfabvpdmCPTDXRo7doDj/81LwP4hMKf+QXAjIqCqPlZ+UDL1UNzYCst2JHO67h0EtVFe6R8fwKHi9ljEsU7FJGNP0OvyYSjGg3UI9hXMU9C4HLoH5Czq3tPJFpgIZUfrFK8DKiViYWQx7pZqKyi4YwUIpIMVdbJzjhDpTYjQsf6/w9jaFsyKynGKqNFvRqnBApXQEQ8hTTx3WSiPaMP4mdD81hwZ7Ic9lIMMk8rfJq33D+rGbkTVW92bP2xr4/0ASz8+ccwvonfND/gV+8NNeFuCCSBTn7yWXoj16ePrXXH7eb2t+enp+vF733/8eb3froeis8ff4P);lineShape=1;" vertex="1" parent="1">
                    <mxGeometry x="67.35603008771" y="145.04677506508688" width="13.83876932644293" height="18.134790008682558" as="geometry"/>
                </mxCell>
                <mxCell id="27" value="" style="shape=stencil(7VrJblw3EPyauRIkm+vZcf7DgOVoEEUyZGX7+9TDgE/D4rwa6BjANy3dQ/ZWXd2ck3368fjl+8Mp+h9vry+/P/x9/vr2eLJfTjGenx8fXs9v+Olkn0/26dvL68Nvry9/Pn+9/P79yya5/fTHy1/bJ/xz0Uuulk0p+n8vf7Di/OUvv17kn87PV/LR+TrLB9fjsbx3Zf782FwJSt77WT6PEw/kw3yfGJzlY/ngYp7kQ3VVyJuz+T4huSTuU5bPD656cR8YHCeF7rLwD46v8wHNRXGf0F1JJO+FvVtCBJLv4vNxXUogGByUQ5MrlT2aRcZZ55QISCFxQopsAqLYRAxSHhfYk9rLIkjVlflKqJpiQgE29EkhmcuibDLyeg4b/pLFCdu/Z7fm6pJIJCiYTQoFXhIKsCG3WaG7rrzUXJpPqNlZEwq7E/fcgxuUQuLqbGm44bYCinG2oTWXk0i+5tochw4EFF6y7NpsQwdgqHpAttIJ2VWRGqi4GPkEBWERiTB7qcMNIpc2iJjroRXXhQLKJREoAYWVW5Pzs9E1DSA/igPVdMnyBKSGn+OQs06NzjUNWIgCNfB5cc4lWFVVa/Aj1XZcSiMdbyukEaYd+bLr4kqlLtkqkxUFnOZUSgMUjuTrDGPBpS7lO2H9iMpN+epdnBPPS1iFPDU3gJoonRqYvQBfhD8hnzPJeyUfOen27n4knz3fR1Qy5Hsk+aTuY4MbvMtXUTSQz5RwLgiEh3zhfJDxMk7o6ILyjy3sUZJHxKsTvEtqgfyhlhZMstnS+AB4VDXNsjAFoLFqmqVwyqGjqBgDB6lpglpEkURQ8DOUvnOHIxjKc9aBWlRlNLCXmEKSdQnmQZwQkVGsGQrEdmrRSLS0g6Z5ORQ6tbQiax+Bi0S0u2Q7dRl1+u6G2woLc0bjbyLSbSGRIC9FeKkZ29CBsCJw8EmiaQEtSJ2AjkMVmkZPuakAMkQKiLSiR70s1KK4IEAJCjTBgKZWUaK98rgABTWQ9OZsUVADSe9MwGCD4iJ9IS9QULgEBeoktUoQ2BRmqK+wSgWuDxN3he6CVrDKCiqX4FZizkh4NfIgcGQDFFQ9QCE0VriTfFwPfuTvUXrzOK8pRl9YJ7ykiDAUuB7aaDGHCpR8VRudeZJE8nV9QlsUTBldxk7kuoB0icbOCndKNHhWkEYvg2HdgecovdOikO8UUOI4KC8Fv3QUhDpoFGhLUatBDwo0wiD7VM/6uILxQq9pDoeO0mYkuzOht70dXA3cUTW5ODaKu0Idc8ftRt14jOn7oHXEcxst0fydScNzkeIINcqUvR9cGaFaCghQJHqSJOCXyDUH8qD2EiUwPUFoJK/0XEIgcZJML9vhDWiUDZ5XJXC05JWeJ2L4TcYhcEvZ9nRqCRAGA7ui61HHIcypkaIESygQ1TWQXxWHJV0x1Kgl9DZy0FypV4fIViq5EO/NWZUC5+LPTcbPTcZVvP5Xmwxb3jBcUvePY/W4o4Qc3JBvS8eRLWorMFqVVA2lNtjNbkEZ7wG396mNsdeKfArLkW1IVSY1/p3WNxK1E478glE0BbPG6L4Nn+pxKy8ThukTAgMduqyCUlset5rmeLawl23zobzkeYAGY1KBS3ZjJFGEKiXXyK1JPp+lheMBwLNKjcJMuOhlDHKJTkAuyVfJwgifg4Ts7VWSHiSSfj4zxlSr8rkgBZ4wtsd8lRrLMyZqOosrWeYlQIySvOACFIeAQUu9P1cGylDkmiHamOt2hSTnYVCVRq3fJJ/aLhD4BDUaAnpZoYwp/za2ukJY3CXTXnZoMekV8cizXf7OWMggZlFi0rIENNMrCS4dEFS5SuKVuOlF6XqfLNngaq9GyMZLnq2zSfkYWL4rtjO4xFXhq9fUwmQW8nfywT7y+ZlL7M7984jmtX/UNws++KWl+/L44f0bUt/OT0+XL1hd/5+/UYU/Xb6NZZ//Aw==);lineShape=1;" vertex="1" parent="1">
                    <mxGeometry x="70.71732792063176" y="151.64596515016547" width="6.067347064798783" height="5.937751465403205" as="geometry"/>
                </mxCell>
                <mxCell id="28" value="" style="shape=stencil(lVpJchw3EHwNrwjsy1mW/6EIUSbDtKig6O33TngM9CDRk2PdqFFlA6g1q4CH8OH706dvjw/efn9/e/318c/nz+9PD+GnB++fvz49vj2/46+H8PEhfPjy+vb4y9vr718/X/797VOX7H/99vpH/8JfF5w1oXSQt39ffmjNuPzvLz9f5F+ev17JO9Msy9t2Wz6Y2Fb5aqr4fjTFsXyOt+WzcZHlo70tX0zZ9uOEfDMprPL4ghf6cSY4Bnil0GCcXwHZVCcA0bTGgP+MeA7IptEKydQqADDRBgji0PCikldANDkIgDeZ3C7ILcEvUmWATQKQTaIzeOMUAH5DKzjjhB0CQietAGusAnj21QpFC98O0Mlq6VpMUsGWhtYnIBuvAMWE1XA1jjXPAYh2OkMwQQCiNXlNGNXJQ0dv7Ooa1RovXCMGk1Y7lDrWPAckY1ctFUSc8NaYTVy1VJK0dCzDmScAUS5CNDbjV7UW5BGxpWQ5HnIzUag1Qa2rHfK0/Tkg8KFzGpnqHIC8tKo1e1NExCWodU2VGZYWWkrFtNXS+CUL50vI3uuhj02eVxM3it8E+OEs5wA/qtkAwJRWnCEjka2WjrOEnQMQwesZ4PBe2AF2pWSMGAzCW+E5fvUlpAVZQxHTBIhD0ecAz1kjOGk4hItffQnpWRmuRE7GnRmoFdI44gQgjwgtlcxMCVWvCfcuiK91BdRVFaJIW8QEULlVmgGAyBjIRBYxXZrJa8SBrqgt9dRLNe6efKFcPFzlXN4ZTylA5hjIp7Uigi8Kx+u1Zv1+GOF3S55ymL/3fWfp+4q7QT/O0f6VfLdwIf0otl0mOT30n4T+d6duI/BuhVlbI99ZU1UQBKaSzo9SdwtA5R8+rYoCtkQuhxWiOkNmotc5u8peswM5lFRElMHIRNCLTBSdQa06yrKE1DRi8HAir5yucBB7k9T+qynr950kkbVxf2FlkgBNbo7krWrBJmE85L3QJ4g+EUInOzDIk1OjqAv9o/MIgfTftDz1tEU6KHonR/u3kiK0rWlGzFh14sRh77TLocO0FDNVnzkzCYERijr01MkEaK9G327XKEPYqCYVgEIVv0qKcExCJqDJ2QUAaVUraI7akrOWWTl6viISNpag3AJAU2pqXNHA1axSUxsJ/QqgajIAlC46QJ8hewZ4lQA2Gn9/hdA2gNZS2Fa4oyXKqd0O+gzU4XVLqwhqo+xdAdQkrJ8hMCCpkGsccgBElVgb9y4doA+dtzOoaUH3pbqtoM9QN4BqRXo85E2tatx2HqN6T3uM3skbbXcmrSY+dZS88ESvUY55u+UyA+7F6J4F9JbilgVkldv9O8oR4GkENb3CHqOKnv84oDL1QYVQDUmfZpMvWV2p69DJVZWTEbQX3izpYS/ttEIcpvyf5KHfIihA4vTt9KVEnzZvfEZSxMAh6vRQBQCaVTk9leykkjvhpOzmOX6SccpsnslJ0PJuVJuDFMvy4waDPEi3JCaW7z2cpKBoGhxZQA6e69bZBpkt0CTRbER32jWwfvK9zp+aMD10Lo3pKhwoqlnNdmuDvlalu5LGiPnap9UKe28epc2K50a1A1SrjU688BmUF5XAKRu9ubpuK5GriNPDTmiJKmHVk8jCE55ybyZHVSppM7dBuQ4/VUy1Wj6wl1ShT9h4oqXmL9XzXNQNwnRLnti/bp7rluc0mYK8Z/0ont0nfhzH6iKlxzE35zIP2e0CfNSemxPUzaPVSBQOwdML3VnA4zizZx33ZbCgq2a+KJ+eLn9VwFW1RO6ieX+3soqyba4Is0V9QVC33lzOFb3JxLG97PDKHHpd0U11S5h3Ul7knDBXvnyNVrpGzvx4IQZZdPLkEBMwr8XPAWHLRk22hNkxGUx+BNQ5wHIdTEkm7FT5BUaqstdJmbkd1lQhig0kuoQI8qlAmrOBCUiSxac5cJ0AZBlhuOTYcId3nQLi1uDBf1XExbrlPT1eiJta+xWa2lLiTN9vxNSteeTWBblQvc2Jm1qRbZVao9veFoDSiDOExncF4Ilqlt9DngBpcKBzQGZfqlmm+96H0xmq7MyR52h6Bu4tt7Rd74Lcq2tFUCh+VKWbCyT3SkXUDy56Doh8BdCH6sJbOyuiZ1hR9l/9MpcOnSRxQEtKRbH3uQpQuA0GQGVvl7a3bUXGQ+f7lQEqL/XbXwJUfRWzeUaVrlS2l2dVssNJXKZ8k4Pe3S30/XTg6+M+5xLhvF0H91Gd0I/dpwT6bstyR3UMD2/I+31DIjQtXyV1eZGD7eajTb7WsvyUqk8ahUK3WeodA5zJJy2/6VPxF8tTjj5l1Prcvq/GQJanHF1eJDq7RbAOgB99vntfHn8cb4W/PL+8XJ4aX/8/vy3GT5d3yeHjPw==);lineShape=1;" vertex="1" parent="1">
                    <mxGeometry x="81.55385805913716" y="127.28509421753847" width="27.898060054671113" height="26.150707114497717" as="geometry"/>
                </mxCell>
                <mxCell id="29" value="" style="shape=stencil(7VrbbhtHDP0avRJzH/I5Tf8jQJxaqGsHjtPL35dTZdQdcvdIAfpSIG+ylsfD4eXwsjrld18eP3x+OKXw5e315deHP84f3x5P+adTSufnx4fX85t+OuX3p/zu08vrwy+vL1+fP17+/vxhSI5Pv738Pv7DnxdcoBQGKIW/Ll/kQr3/883PF/mn8/NGPlErq3ykBOQr1VU+dap8LK9P8ypfSNKxvJDEVT5C/WOax09AZMoVACqFtgIKMTqhUzQnRKoBAITCegeGJlWf1brIV3gDtUhbFUokAuQLtfX/BwpA/9ScjyllKC9rzGnIIf07Bbb2Qfqr/Kq/Op1BzA3AqpDGRLxxg/UEvUJAKrkr54B91maMXQGNGnaCrEYqmSICaJiudyhCBbshm7DTuAOpOXJ5vUML85sjAK9WahV7mimsbNGEcoOAvKZaTzCZFdDSCmgzW48AvKrUeVLmnQAOM7qOAMmkQ6aMorXPx1dAnQxyFEsmgVhdiRnjm5uugBuxlKzjJM5vjjiSVz9IgiSpLCwrKUmmBPwQG/WV56XgwtAodwuoIDS0khjWGAAQrQqoyQFAxikgOkBGVroW+w0AMZ8CCluzMrp0sdGqgIJPiN0CUMYNgHFcgi3GUMkBIvJDmcG8iVbYZKhZXXijfBhNBltAQj1Dd3eI8A6acbF8j0pKAkWslZAfcnRWwn7IrmSNFAWAkiYLbaIVsUbh2XhtAB2cUNXTJoGuDewuQCtaMX5o8A6tuXxosDnpkdiYtcMTuj5OFoDYm5OlewV0YFZuk7a2AHCCaLPDFsAgvEWLojuhgUuLzJZzqxJwnAKquzQcNGTy3BWgTSK6tI4mzQIqYr4QbB+qCAEpN44wrhZYFfWxJSaBsSHiklpmv3IEiMECBKnE009bAFKJXTCpShhgyVVwMHWXcjLPPAJ4syJi2gHwHLruVUnNgDPIXprhFLdj1htJ7R2nOYpjKUZ3Ag5vG3xXM9wb3gznsp0EYiqo2djNUVRSdmhA5uR1SDQugwq+hKUymb3sIVk62hBElo6ON3b4rxBhTm7btAZ2GlXIJR0DBh91zhkWtXFaST2XoSzVWt2jBaB5VLuBYJpdhuSn/YZ1Hc+W5aijsd0xLozaMyWX1gFYSbuybFRqsMPXvs9aqRIDlcaK0XVlcMzXJqtaQEAboLgzmqGMiDw13gDgVvDHePkN8GO8/B+Ml835IeA7+KWU4KVUsCnKuKEZKyNzQod1dKyxVz9wmWcesUY0W6wAC4oCTMvUGQ5OO4AGZ4hBZGZfqdGKVfIb0YKYr84mb7NzzUilarsNrUkNkXG1O9daqSBPV1sUi0DmU0+bZmPsvtHOtcxG9d7tunslcmt/X+yq4tYbgmJXFeMdBD7B9EsxwZKlAMPejK2a7cBbsFGTXRg1vGAKbqVLGZdc06vrhRsqV67k6jfxRjFZAy/iQTFGaitAjRaBSmI38YMRUENpS4n6TECuXTuEa5gm/MbFFkPNA+TjaDd2Ko8asWhHRJWHHQYV/9YLVXPL2EMe6BPcazj8/8N8eqf+YVLnnfbxb9+x/YNlxlzh8tANqyqPeG5PPoOM2dMH7T2+99cGt+X1w78/bfh0fnq6/DJi+9z+FEK/uvyMIr//Gw==);lineShape=1;" vertex="1" parent="1">
                    <mxGeometry x="36.501938285719916" y="144.19565618152478" width="9.756172555099125" height="9.610759054569371" as="geometry"/>
                </mxCell>
                <mxCell id="30" value="" style="shape=stencil(7VrJbhw3EP2auRa4FZez4/yHAcvRIIpkyMr29ylmwFbzsfvJviWAbqNRve7a67E4l/jh2/2nr3eX4L69PD/9evfn9fPL/SX+dAnh+nh/93x9sU+X+PESP3x5er775fnp98fPt7+/fuqS/dNvT3/0J/x1w6nE1EHB/X37Ilap/t9vfr7JP1wfd/I+iM8zQCUXAmhSdQYECQRgKrk6AYI9IpwDohc/vyFkaUoARRQAUUo+B6QoGQBOQiOAzYkD4LNUYrQGabNbfZRE3qBZXJwBphIxWou0NgGKOBJobeJnExINm5rJYIFEpk+VNofZDQXP9Ake5DOJmclrAvlYqXxTkPfE3uwkoT4uUfnmUN4ReXNfQ3niT5Ovi/7E3hxGurzKJ6ZPEMV4Zf78Otvrab6ZfAuYP8z/Jg8lJoX7B/InS2H2upG+2/NNIQLoCQcGlJGCpxUwl7CVGDPBAHlppZHVTBWdY5CsSUQKSLNK1sk8VynOWaE63nkKmNuEBdJzL8GEyoW30oKJVCwVmdFlFMoGyLwVKcahOimst0QcaTWJJyMtWfOd41BNJeIlm1AVAG347WwGplml5kVJP42WOQCIomyOBylz4JpSlbyOBrcB8pgph4AllVodM+vYhBGkTb7RFm8dMqE808cPmrKTb4xLjYa7fz5JI4cT3OQL0d8adET5TGrTYaWZfCT2OkxSk3dUfzd3YIsX1985lE+kGZl8Q3lPCt8NQrPJW2chCeqQNpq8kj7hpDaUZyPWLxVWxjeH8va0sMiTruKTZFAo04HTKd8CYH3LzgJAAq3mEykBGy8JAInSOhvLGYIWh5uPneSRBxogsK4SljcEOsd7Vi4AT+JsAKCaHUDi0OuwIiCSOPTGEBYbSKn1ThUR0FiuurU6uV9fm+EOkLkRa6jZEOxugjfYmCW5YYGoBQGRdAwDACnvAGb0QkYaP0b1lrLYwJpqr/nFrYUZXcY5ZQdgbbUDIgLeUMkvBVGYW8tQYAdIHFATAljr64HzCGBcoY+mtgB4tiJbCPRA3tN7qdHE3Lqxg71bSaSPa5SR7V6jGQHK3LQxkH075m9I4CZOhTunWCqIncMscjim36jRHwXYhMBmmejSzGYQMk+lZLsvC8BLeZT52RwtkN9l+O14UueFvBV6SjIukBc2lgmg0/mFHrITfZE827zL33d+fnnn5/83fh5w49fPs6Qmy5IPSqmtT4uDEmVUvQIWrsCYamjLJPeUIPW2Mtvc9xAEkMKyGinjhuEYkLGX1jSG1vHyxeF6p26bibNdvM5Gl8b3QQkLreSxIToDQHsvgS5TVYcTv3cJpuN88L1rNkWCZN/QCwgdU3i/KnzjDesykq0K17upQHOpaww3R1YP7I5DkVH5MtxwDMjIXrwb1xhnACBUmW7l329R3m9RQP6/dYsScUcbKEWw50PBKO3ua3yrOH7rCDcc3tMRaCUPvbrzVFbyDk84vlLunhQPs4Gvg2IbR9cNoLQorQ3CCDQvMSLbr7rmN0RPDyyd+sItP1+M+IiblFjolXpZbpd548p4mZA8Pb9nnB1dniUSTuQuzxojck2Tp4k6Rt3eXnagw7o0eXZduax2TT6xCyPkOCbPpnfCOWBZy7j4Nnh38sp4IFZZrwo2+HArYPJsEPzo71zelrcPrz+q+XJ9eLj9Jmf/f/wRjn11+wFP/PgP);lineShape=1;" vertex="1" parent="1">
                    <mxGeometry x="99.90102207475638" y="148.20541246927337" width="6.566017051703301" height="8.66950157702499" as="geometry"/>
                </mxCell>
                <mxCell id="31" value="" style="shape=stencil(lZfbbtswDIafxreESEqidN1171Gg6WIsS4o029q3Hw3DWETHtH2n2Pos8fCTTMdPH8eX90NH4eN2vfw8/O1fb8eOv3VE/fl4uPY3XXX83PHT2+V6+HG9/D6/jr/fX4adw+rX5c/whc+RwxAghAGj8DU+Iijjg+8jcOrPd0DNUKjdr18gB4iQWoATSHQAvUBsgJgBvSshZG6AJJDFAQJIaoBcAX0AWxtEAc8GhNSeUDLUvAwkSG0UqkDi5f0CpTVZ4yJOFFCjUCwQcBnQGwVzQoKYlgEuU5DuAHROSAQRLeBlUs4QxQLkJIYUKLMTsnOlojbM3EpOGCpDzBao1VUDmRPE11sANoErUygf20DAJg4VyAmcBKs3BTyBqrqwNsBdFXlIRALZR5DqK+25FKrk6x6z65QJG/2qRctE2g9cthVgJTMQocwU6uUe4ZT8G7ObGVK0gKefqD6dneAqFKHOBOfVAIlQiwW8KlP09UyhXh3TboJiAfEkHXeW4t1AmSzc2BuqTYy15jPl/cbuVoBbD620T5V/q4SV/qwha++/MgAwYLt/ZcLYOcGgdT9NzX1J923CKe/JmGyjDVB9FRuNhcldj51DQGL2o5M8ka3C/MKbsu37/v4s1j/+fbQnm67v21vECt7359BgW//48Rqq/p502D0wbwB08X8+f+tPp3G8v39v53l9NP4X4Od/);lineShape=1;" vertex="1" parent="1">
                    <mxGeometry x="70.09229802405957" y="28.771048714407925" width="0.2501561960962835" height="4.438504026940196" as="geometry"/>
                </mxCell>
                <mxCell id="32" value="" style="shape=stencil(lVnZchw3DPyafUXxPp4d5z9cZTnaiiK5ZDnH36eZDUfLnp2W9LYHe0gCDaCBOcVPP+6/fL87Bffj5fnp97u/zl9f7k/xl1MI58f7u+fzCz6d4udT/PTt6fnut+enn49fL9+/fxkrx6c/nv4cT/j7govFWhuo4P75/xdr5b8ffr2sfzg/Xq8P1vyyvppvx+tDt1SX9d7Z+HoISFb6CshWqwB4624FdItih/F3XgC4s1MA2IgA1VwSgGQxrUb1FhQgmC8rIFvuAuAs0Q7dqj8GdAurkVK0Ik7UzK/PT9WKO15f2c0ZNxZeK9bjuj5ZF+cvkwPbepxQGAgOWu9bvGXx/GpxZV3J8wlH9qHnN0uCQ32SfgsbnEfYBw6uKyMqAiNKCnXaoVoWkYywKiurm3srbvwa+i3KMEBYkVEbWK0AzeKajFq1JgAxspVan7F6G4DYX/3W4Qdh1pSsrXfoQR4pu8n7DYBDigyZd37oybIAFGdl9UMHVxUA1Oy8QxXUGFTLfAcVzWBOpks7c2IHMCeu8Q9PKyuBOezpbF6wdTCHdgiTv7cB3TIFULMsuATm+PXSsJuiN5hDSbsijasd4gzIq6zUhVkBSATwVgW9h1/XeMhVHynMurQBdPGEleoa06lNdt0GuJnnNkCaeeTIcY4kTLcudgA1GIAYVPROzCXUc5VmQLVEiqHNCn874jrvAB3URDwguVMBCkEKsRonczaAk9m7VJZJvkp6Iy9Rbh3CSUQcJEXyDFDUSIWrKABZVOmUOUQBUKlyUI0unS2p+rDJ5Q2A5CniAYC6JgG//XJ0JJIyKPWKGilxAA15qY6UZ57bAF5mPvihVAYEZaW6s5KX8i31mVSuAMoPKLtsJfQFuk7XwFZS5IOgddSYxFlXDwFrmhl9gUgzONK+9QkqgDrHNABKRSP1MqBYUgFUud0bIao8XVicjBBVbM0zgq8AqlcCvfPOSip7I+L6zg9dXTrOmnkFUKlyJAGKhyjT/UgzdKQwE8+RlTjz+cnfw1TZGBDfSMb7EFVm/SgAUuRjMQ2xwyHq5XACcoo6FJhVzQ4g2EgZw9NBtZVtJvd3VqChBPbTCaWM8246EWSH0natOppllVshsDKpGa0ERsezWikmSW/0IyROYpN+6IXlD0IqqR0a51bQsatLI/PRACHIgUDf5ilXyljOcNyuBA3xrc7U+UxF50oAwmqmMUVQntuMsgGyNlNhurZN1d0GJFa6TXev6Ado8gMCB6WlG2uHrkc5I4KoP06z27wN8DyugxmKyjM7aQx6qf4Y4pu0A1yp6i5a9p4Y0FRy3VrP1zmrkxOs3Ocd37lF3k01Bx9V0Wrc+vVtwHMbEJiuILDyXCxT7lyNQpTqQ6ajSg1uBGGlkHY7hOnLwynZaqUxWFCTvp08aUWOZvucP12N4dTocafImp7NJC7TtcjnBx7lVD0hg0pYg6d0qRt2o27oAsUiN5udqzRchMd2aRuJvov7Og7+ERhiPWQPjbqdJgRTNOmuGLllPQ/CSA1+dxkbxTmqvp4HmlGr4babfWjF4x2/wAlZEnT0XaR4ENbKAxBEJOiLnN8giN2uSVct9HAaZS6ZS8NWJLeg0W/FGr8gSjILxTAbx7ke7a7iUOBU7eTMLUZ2spsmvr0+TUn6ul4VJ6zv/Hy5Hi0gn9+rOlA4iN2cRb2z0Dg5ro6Va6V+ARi3t2uv65VgHuvX+waZg7CemmY9QxrnX+8bpV758GvkN9fjw+s762/nh4fLK+/r//kdN366vB+Pn/8F);lineShape=1;" vertex="1" parent="1">
                    <mxGeometry x="72.46688411471291" y="28.194457718457784" width="4.711052411306319" height="6.37340145856517" as="geometry"/>
                </mxCell>
                <mxCell id="33" value="" style="shape=stencil(rV3Jjt04EvwaXwXuy3mW/zDQ1W2je1yG7Z7l74ccg69KEXyREjA3uypSRVHJ3DP5If7l+6ePX18+BPf9x7fX31/+9fmXH58+xL9+COHzl08v3z7/GP/6EP/2If7l19dvL799e/3zyy8////140TOf/3j9Z/zCf/+SZeP6idRcP/5+YN09PS/H/z9J/yPz19O8OxO8EHfFdznE7wePj6Hp6Odn96OIhaTjlxP8H40r+DhDPf+iO45Ph79vHgfDyeeH48SzvjxPuJt4xHPW+/LUZrCu/Pu+HZkgQ9HPeODM/AJ8OMJQeFdP+MH7wi8X6zywA9uqAqfAN+PJNjBHyGe8NGvHXiCh/2M44uL7+sWdz3w5fASX878E9sRxPrH1znzT3LrjZ7g0/l9Uzi82H93xDP/p/G+gh8G/rz+NA67XE9MZ3w9kvi+Aw/r70cQwoTw2S8OvIgPR9PvC/gkxQ/jyxFvPb8dTu8n4Pu99RQvzxfjw5HzHXw82q3nD3Vwa/3lHj+Uujj8Ir7d+16l33t+dUvCX8QPCXYLPyRwuYc3vtf5/Na4JNhFfDqi/l5gDJj8QPgu5Dnjhz69tZ66rJuL79vWTy7i++H1es745g535zwOvNK/jB/68c73bWFpqGv72aL1vgXxyl4i/dXS0oDP8O2Mz4a8Bftn4It8X9C/rVj6uiK+3bEHWl0W0TM8vG87vJRvJSFe8w/Yk83SRxXMc2fI8xYR3yV/9vN6upf27cDDesIRtH0YEV+lverO+9+j9C/8kn7v8Pr5Ad43SX7z6O8MvJKHHs9vz9K+9UfxiFf+iz8aPV/J8/F1zvzfi7RvA7qyAx/v+F8Dr85XWtL4Hb6I9SfizyL1aUbvt2t/sBw1IV75O3WzP1V834bnvT/+4hY/pEEhvOI3cpAGQRMGzfDXS0SCrgiGwjq7kL1Kk2l4+MjTVeqw4eLjO1TJdJ4CLoMgqVNT0O0cBEX9hbq8uncEVf2FvszOdwQqCDQ1GXBek57YdP0LEgQh6masIyKB8v3HYYtEkNWSMn24Jq2hcdw6vbQyp8f5CfQXlL89DlAGgi63NbIG1BZmDBgiGQTqO8SINsUgkDI1kZLt0smKhbROl1ZdrCsI8Z5AvfTYE9qlrMKKg70LEQipkTxZLn2FJvcEcQWCrhIMMUPbKgnKCrS+JxDfIVWSfAZBJ/NFE2RHks8gGNxKzCcJ4uY8SIJ85Fu7lB8Ry6sEbZn4FwmKw6inRfAI+l0liKTXDYK8zNirBGUJxqsEQ7jfe4e+ETOKoPqlZK8SPGL9VwnSEipXCcrND1frMgevEnTyADRBcze5tYUV8blKEEmLGgQZvWaLoJD5YxA0sma6jIMOt3cj7oXhPfxST7ykdNxwNNE16TLUNDzHREdU5RqGKxhpW5WzN31B+NJNGomDoBGBSidN76sigVLs0/gPSOCFnh5mbSB3QGU0xq/Zf1Ahg/FrlHxF8tJcMTBflsb6IMATl2RWozcM8wxmaeodGvnpQZo/00oFe8nr79DRMm7ampnHBUJPVbqW80BCbM7Y1o7J2yGp5IfrKIybzrYMAlC7tS2j7inBWQgMjeHUAerrfL0L4KuA24bA6RNHBKXKEMKGIMmY3oZAB+mYIPdlTFwl0GmCDUFc1sdVAn/EW0tKzWJv4KVh7wd94sDbTTrWOAngL/h1Bi+euNhldmee6bOojEUrFBICw9lU8fPeUdwP/9cQAmDdDw/b+A7uLFuH098UwdCZ512aNRCKNRraGiEv7/QZAfDSrGNROq6h5As6zTMDK0Dgl6P2jAD86eC0fhgEUBnTLQJQir5pydcwN+TrkbSehmSVL1plNQxIzcifVrvgZRnlQ28htAdBlNHQSeCRwOl3gPItH7SOa+t5DwIvUxSdYpXeaUO3LmPnYWtojfUIfT7UtAyedvKxqpaTFQNkRdYQ9YrufZEVcRN//mZZ5tjfos8Pub1Cr09NYlAM+gvXdRAfIlLmKGa8PQBeyopC0kgbGAXXH/Q5zhhIC7LmYhrXcGa07o+oN71WOQFtZ6/502EE18tY5kwBB8CrmqxGXpuXnmqjhImX1lfzmDT3i8GfhTDAOTfwFZNi2mwZJjXKdY2nWJiBT3jeDXxEB1Lv/8BHwquQUECf2Us1NvC0fnXe64aflQVVPXrYXhpQA+/w+6qcSqUijSBVXulYtBCkfB54kG9BZmBKwyS+lj/Dv4IYuPH8gkU7Yenwp7FdlJ9e8Odw3+j5yictkc+Lskant4f8rIyg4lH+exnRKY7xSt5mCqF6GQvJDYsWtLzNFfM0XtYYDl+V+F/VmOTE8lzFBYdrW1GeK37LAW17L8/L8ITRpJQ1bqljRNpJGzc1lCdOypNUUX46yW8zr4Z4pd9TRvngJH8mio87GSRKYYMX53HgIa3hdA2LR/50Mq0+S9bbDXzsy1y7iKeiFANfMVFk4sOt9ZQlDi7iM/ovJt4jP0t8OjJ+X4mPaN+aeHdrPwPqCwPv0Z8y8A6bSkw88b8sE+mYqTfw7R4/B/I3DTxVoZh4kldGWUy69fyE1Rgm3t05v2/u4kV8uMc/XJRo4m/JQy4S1nhPoWAT7249v7G+k3gqGjTx7s7++4L2g4HP977XwN/iH59WEdhlfMD1K33qIxZ5an098BHlmyz+oyZBJ2tOfcCiTW1vDHwkvKotJH/Q6Z48qhR0Mv4z8MQ/KsnsPcavtD3m3apIfYdXPYgOa/hMfMDzq6oQO1Y4afOzszSUGRM2fpSz1nAx2pZvaCrpdqdH88LFyA8eLL84+wmc4lDKryCxFmR+gUqzgzy1BcufonaqsWYgypRQRhaORos3RPSSjOhlTCpkmT3K+FUff+4ZPCJcuccobbKUHhmFpYYnTN7pfoeEpr5uJ0ro6WZdpXq0AHBVIL2BqzzLZjFBuen8qiqLkNCI1Y0mm8+kyqIzuihZhrQ2LKby1hsGVvUJGeNBWQqOjOpAp3s2T1fZMHImsy5eRTmTpUjNKCN1wpMiI+bhyzeeTnGvLO2ghGZl1uXVm8OnJQEdPg1HJgj/PzhZxEkqm4xlrdGQ77AYPTOjYDgwrPjFE3jG6LmTHVKNgsNi7ZXy4zIWSxXzXraXNo48KMuQaiCc3JnGcRDVp9HZDFZh3s5RJSVSOyaxnNyZnRHslJOwMbINPBnxiil3ToI6IjsnRL7vxslxyknYOFHK0N45abLrbeMEqmO1czIVO+ycWFX0tHOSVVJh54SrpNfOyVflRbsggoGnIIXEb4IgEr8Jshh4CuJI/CZIJPGbIJSBpyCXwu+CaBK/CdIZ+FvfaxdklPhNEFPiN0FSA09BWInfBHklfhNENvAUpJb4TRBc4jdBdonfBPEVfpckMPCkfCV+k+SQ+E0SReI3SRoDT0kgid8kmSR+k8Qy8JQkk/hNEk7iN0k+A09JRInfJCklfpMEVfhdklXiadKE0+75JkmsBonMJDSuX/nEiSbrOR1dyKxfVNHDTNLj/kT1/IrVwE6GGlPDIj8nizxmEQMlOVSIYWN/yiKVgKX0Omg+izxQ/6oi0UyTLNxyaPf4gpMynGxRmkUwFHdWgzIaF0Eq+zlTI4AuUplFQlj0o/h5FiFhZFvxZ6HGZl0UOIuoAuBVv+Es0kK/VyWxZhEYFaGqIjkqMvOS3wr13enBU6WhvvCSP2cRHhXd6qI9KhJV71tpMpTez0qTJXURWPUYY/Hrg+zxJJ+97P6pAfWLl/K8BtS/Xvp3swgV+Uedx1nkSniV2qEiWqeLPqlI18mibS4CNvBUZGzgqYhZ47lI2sBTEbbeHy7yHnjBz7OInOStKpp3aG973WcS0J/10n+fRfa4HjXFZBbxU5G3bl2uJA/Veih/53VLbsHzpYt635qO3/CqyGA2gUDjm4xHzSaWAHhln8wmGWgOlPGiiccmE9n5SvGKrPsnqcmnyHjXbCIqgJedVnXlhhe+Wq1cEK9ruoG6ob1ntLDSZCHv9AFoZBBoDTA78OCE6Tr4t1b9B0GUOmB2EdJ0bdn+2dBp9kmO+56NjaAldb6WO+W92bwPcdPZRajfAbqPvJ6DNQlgW7v1HbDyQMdOZ4MpyBajZY+qPmbLle6qBWtoiBfZJEsDm2bASp0HGmD2Vq/xjAAM6vAYevCMACyoaNTpdJxNP3uPb80TiEk6WbMHHJZU5PjO3ml+ede9xx3VVPK6+bBjgcTsMtdt6dD+mYqMBHjnkJmMVvkNhdGNv6PQDf87Cj1TYEehZf6GwpiMsKPQwxd2FHq+w4bCGCGxozCnVPSzDJxzMJSEIq6yJ22Afm+666VTGV6LspKCz960wfXZw/Ei1ZJQOPGka6O1oxPfvTx7vdNIuaC3ta1W6AeBqeJxyl2WiU4eFDBMa5UJ7uTJTFvcGOgDBFXm4XvdTDGSufJKY2WbtjoKDRprco7uHLNLA67kaA6qQprMouR42o0BU0c0bga+qdqiORGLliRVi99MV1MHaDvVS1a/7uaGSTedJpO9E4bPHHVgJpOC+sdMChrhZlLQlDiLggfRmRSUEjQpaJyeSUET+0wKGgpoUtDcQYuCRxuaFDQ90aSgAY0mBfe9WxQ0ZtKkoEmWJgUNy7QoeB6nSUEjP00KmipqUtDgUpOCUwgWBY1ftSh4wqtJwSVxFgXNqTUpaBSuSUHTdk2K3UBfFSHdjgxWIdjtUGLVgDDHHpM+U5NmIiVpepfT1efoZnoHFWCZw6FphqTycWOgQeNduknR0QzJLmvoQ98NYRXvECiVOF19RVDQx522keClWXhMBCr7PkeZ0y6p8sPAo2qb/NIzPUYWpPoOM78dkEBt64xSNSRQFuQcWk9WsOoO8gVrbt6irnuCTNNzqzSb52j/gATK5PRxMy1UNbfM6wkqEkjnma/cqDIi4x0xX5XcSnMCZ+5BFjUXemXlOfMdFFWWrvAdF/rOQL5DQ+OpTcBYT8KmhYkXrlTEyoDp7qnDTx9Y33ARNneSyHAYzfMv0lHzNKi+6NJO2p8sq9wdjXPLMiDusJOi6yF5ji6eSFIO0R1Hc1iu0ON8hUk07ohDmRKkV0p3Ok1HWJxfujOq63lNDuPaXafuHTn6zrpD77ye1mULBo3naV1aag71zPDKVSmEQxejVZmac5TJKwY/wHieeSeY5AdHcUF95x4ET807zfD51p1pcH7NO9mgMs+88w33x7pTDvHWnXWIt+7EY7y+cw/w5p1+sD/mnYGIt+4kRLx15yHirTsVGa/vbES8dSck7qd15yTirTstQT+ad2Yi3rqTE/HWnZ+AN+8URbx1ZynirTtREW/duYp4kx8Ab90Zi3jrTlrEW3feAt68Uxfx1p29iLfuBEa8decw4q07jRFv3ZkMePNOZtCP5p3P0Jkw75TW8vlsbyQ949hhJXEKxvuCfZt0IyTdQRqbgcep6MXQLxDlmb0Zkh/AbY5ez5PBhvGgMzueZn1XuZ8e7fOg7XMK+RqTMgKN89Tp5oCdUb5J/ow0XlGP+Y5UWJVkwjxSWiNI/UudYF7Lt0Q3nBgjKjBpbNyACWmDIhNem9EgSrZlTOYmOXo7IyskKUkyRmiT3JmMmQUtlzOekySPYcaGJQtO9ZYGHHdGrx0C6ro6M2PIx9r3eu+r4lUYutVkA5dflRajR+EY8PGPrx9/fPr5n18///HH9x/fXn9/ef/7X1+/vfz27fXPL788fvT908evL+N//wU=);lineShape=1;" vertex="1" parent="1">
                    <mxGeometry x="-55.265280301116945" y="16.478838440078334" width="246.4377832599941" height="162.49707583284834" as="geometry"/>
                </mxCell>
                <mxCell id="34" value="" style="shape=stencil(lVrbcls3DPwavXJ4vzyn6X9kJk6tqWtnHLdN/r5gNaR0sOcspTdfsBIBEosFyFP49OP5y/enk7c/Pt7f/nz69/z14/kUfjt5f359fno/f8hPp/D5FD59e3t/+uP97e/Xr5ffv3/plv2nv97+6Z/w84KzxvkO8vbX5Q+1GFf//8vvF/uX8+vGPsWtvTfOHds7Y/PGvjSTMrOPZWtfxyfs2ntj7dZe1h+ZfVafn01Lx/bBRAf2JD7R+KDXY8uxfTIO7B3xNxsH/nri7/y0G/tgj+2r8QXsSXyaiR7sSXycNdlpQGQHyJkKHsRAAGEc4FsACZGLJiGA+OyysREA7FCXvW9ggGYcbEMkx0jyssI+UIA3EZfEAHEvrAyQ9jaOAYrmlhWgGf+Q08Ga9hgA6aKMuO0DIvDXApBNeAxQTWiPACJQ9grgTQWOoYCki8gKIP9+zIe2d7wJIPkdnqSAuEN8FCAbp5aUTGNMXyGng6mE+ZI4raIk5EmILLtBjAOQpfh4AvBjARPgaT7kaGzaAJIkLfuGpFM0Oe4DhFVOFyso4mLYOi0HntWHXPU3SA5aQvdZaGbLfJ0WyJJkm9RZEqYqZEnFjZo8AcUUcjSKHzGZgCkM9gFB85LQcyQbV6LJVgMc8yGZEjXAsiVlfbylxDAp1pWgBwBbUtMk0AHE6QpquAPIPlSQt2tAcw8BoAL1QkykQw1Dr01AMJacVgE0tXEiuQgJ1Kilw7UrOAK07ZJc5U4nrSpFQQW2caI1tktychyZ01knkKhApsgEoKIkANZoVNB8ArCNAKqmmf4NzOmme58OYBvXdIq62a7si3s7dPAtgHxDc6MZnIBgEmsf3CDGCfAmEdZo3vgta0iDEMhZEkBVTltjmdPQ8lVTmAtQE7m2F/uy5Qyhbvb5Seu3aCqzl6Odlb0n564VXaID7RBb1Y2AUBSLZxvLHfaW1gWxb1bZs4lEt4/KnpF8t1eMSgtbt28qPpnE01mr8zLR/hO/QJp2tmHgQB0n6s4AzS+8cwMkYwp3QHV6AmgLgNOAxHhFmKsoF/LCPqkQsfrRmqahTBUe2vMq3oB5g/E8BxRHOCoge0B1zjCV3e11zrApVbev2n5x5IJeD49P0/4u4g85yYrxTk5yEt0ByIlYsMo2QpVXyqY1UVuxaMOUYWWgDRH3QFI+BqiDpm6L/aLSqGIvpYkdIxiOiKyjgDRicgOobNuiJhbH58e92itApcPCLieU05PMDgWLEvCOCngBBNVTeD6zddCqhSFWD2XdViJI+rAaiMKx10AmfoEgfaLHG8WvABjlobz2ixYBBLxQgGVdS9YpLQA2iRBAhLaf6XFpc1RlFpZJHBBVWBsl4t6qbY93sJSXejOomNiNycFhu7ml+uDpGKw3tAoQqYCvczozAYneUWFTHubs+s62fwWAwUIHEBLA0cUKAMORMHviO8cvYZ6uOwc8HcDmNTBC6oM2tqSgBwvX6fjRGEwlUCh0lNcHbSpK1WQGsLrdjJYCctOjvMiLYh9HblkjZlp2+8Bze/iSow1bhoYw5dHyHQ5tVYcqTTlJoD4W3m6ceMUu9frgWV17Bj7ldbqglEIPX4ImRpKWtRgJ2toaaVuFFwC9ALB5PlwxSE1i9QEvMRYAvCZZAeAiZgWAq54VAC6TVgB8YcABeCG2AoCqXAHgUm8FgKHtCgAXkwsAXn2uAHC5ugLA9e0KABfEKwBcQa8AcMm9AOA1egewPhE03woATwEqbwfwscEKAM8ZOoC9HYAHEx3w0JMMAdAZrJ7Od3tST+BNSbcnHsCbFbFnohXexHR7UnLhzY3YV+IvvOkRe/YGCAfIkq1ki0Gv9m6IxNNrqSftFmvfnCZ56RjptETHU+yZMpwdwrRPdKItmmobn+u47sDe6cEEHyFbvcHX2caBvW3aPpADarX8bzwB5oXDtC9U19rRZ0573nnCrKpF2m2jvafKBdfjVutXCdOoWLP6BkUSjI07rZab0qsX6u+jjxxX9vLD9UXlt/PLy+VB5u3/9QtM+dPl9Wb4/B8=);lineShape=1;" vertex="1" parent="1">
                    <mxGeometry x="-59.84485501830977" y="82.7036404240896" width="251.24893242420325" height="6.297670643018827" as="geometry"/>
                </mxCell>
                <mxCell id="35" value="" style="shape=stencil(rVrbbhw3DP2afRUkUdfnNP2PAHFqo64dOE7b/H1ILKQdkaszKdA3x+aJRPLwqrnQh2+Pn74+XKL/9v72+ufDP0+f3x8v9NslxqeXx4e3p3f+6UIfL/Thy+vbwx9vr99fPl///fWTSMpPf73+Lf/Dv1ecdy0KKPof4xf++ovfr+LPTy8H8eKSV+K17cVDdDUt8sG1AOSri7TIR1eAPP85r/chV8D1Y3OhLvLJNdrLE43rDvniYgLy3fn1PtU1v5dP5NJqn+4yuE+qLqz2CcElAMjeAPjIDADRpbYCsitAhZxcXFVmJzZgo5zHjaeP5yXvA6bNJ2BecgeofQWwmxGgalqw32KFgLTyQhyHTyh5JWpwHTCVAb2sADY0OqE5Wh1HZZy5A/RVB2EvCLbcXV0BKTgqIFlwclh1SDg8S9RsTRlyqZDWgSOkAyuV7Prqh9RdB+QrbNaV3jm4CuKh+uHXCSDIpco5ZiUfhxSyUi2urfTmkKrA07WbK2FqtKitxHQkYKXGbjIAlFhbc1kBODX3PaCzWZMGJMDWTs6bEzJwXE/DiMcTAJd6cSFoACGASTMMiMBKnf9szQrigQFkAAlwia+UDCAiK5XRHxxPODEraUBFOpBOAmIlZNagiyhnKtTEtO6KAXRwpVZNGxBgqmxspVUHTm0RXSnpgsKpLSMAaT+U5DrwQws6REtxhJT2IzFOQIVVlAFxTfelwwDivKSazxpGhOwAeQ2gGmH2ZgCpExJsyKpt4ArsWGszV2qwsFcuUCuAPeOR0tX51aztpKBkbVZOzwnUabZJWKnBhC/IrNH5tdfgkEIViIlQV6U5aCvqBOoIlwngvhUozeynla0940mGqbaalVMb6mYk9SodKjQrl/G81mlJz6gz5nZqTQJ90vH+ONBGFjoAUHefmP1FA5AfuMNTnQADUJrhHjJaAEgC0qWuVwreQ62Ju/+uj2iAGwxQWUAAwHMMCM0A0JwYRwgf7Yq0jjp9C+DkBAMoJycYK6GgZoAa5DqeacSsxtUZsI8B2eiQ0TgdR6v96wAdo7Nk7AZ8b05A464ArFmR0tzOWE/jE4K5UkVsNa2AsBXULLGSDaATP5AB4IjLhhqodxAu2YjDJ+gCcaqDNStqBSSAjNKoyN0PUTDTCMBk43KigwVgHcgGEM58yZxwEnGql/7fAeUOAJq163ZGAIBLXOSqPQHV3TQS47HuojJaTSvQhyt3ezt9pQanpmw2IQwIaG9X9fTK7QzabRZvqmgZZXK3nFGLPp4FUUzzQBJV9ibYMJU2IvjQVqJ9Mc8XKnvLLIhaY7rTGqMAus0Xx+YbXYlHxdXT0t6j5rvouUwGCLT+qSO+jiMKGoLM7rHOjepuCIprPLAZTgCqE5BBDo9ZVZ0Qhmd2g1xUA3Ufa4LtMLqeIOMuiGked5Wnhb+AGuwmNfkVPIwyEUgN1AS51JJ2XIlwtmxFF3aOclRFZW9nVidwm+P1TJMbpAZHcF/9IKtwBCCdW2VZCZTmwVDFdC4wHrqpQLI/xYs+5YdcYJqROY80ALVwtxJ4UNqjl7jbUHVc3OEjul3cYSXU01HGJUhKml2gIlfXUccPAFSo+1xxHdmH6Jr0kwUDoCPioM6vArx+CcrTDLuQC3bzjfZw+Y7SyA8tGkCFk58kV6V0gZVdipyiRoYbV667arORTyqKNwCcKzm7a6UDzPeyX1XkO3krj+Zxqo2Gf7uSUoAME9Mt904AwU5XwmX1gzzhAbPmqqsizVS1A6ilAOHUl007Q2kMLTtAUe+WAS6BGUDqdbePkrEDqIiT52D09pp11oh4Gc8A1Z3Ilwzo7dW8D8ijOboSjee0uVarsMNi9qtPKUKGe4rUzQkEs0Yy7/ghQD+kON5BZ3uPd2RNP0A0yFXZtKwXKmOzeFc+ztZ/ZgCYV2Mw1IasCEUX9bmouS9vdiBxJJD7LtbXCfD6XidID4cxry8z58WNeNDiEejq9WuuH3vmnXjQ4sAypjfy8B3K625tKrMTb0rcQ1XVK7GH453Xs5eHpPc6kXj4kun1Ig/v5r1m8Jn4f/r67FScf7h96Pbl6fn5+p3c8e/6wzj+1fWjOvr4Ew==);lineShape=1;" vertex="1" parent="1">
                    <mxGeometry x="217.2022063819229" y="28.87090983053713" width="40.370143477238116" height="132.8927604157273" as="geometry"/>
                </mxCell>
                <mxCell id="36" value="" style="shape=stencil(rVfZbttADPwavRJ7H89p+h8B4tRCXTtwnB5/X25VKSI3GjVA32R5RiSXw2MHf/dyfHg+DM683K6Xr4cf4+PtOPhPg3Pj+Xi4jjd+Gvz94O+eLtfDl+vl9fw4/X5+aMj29O3yvX3h58QzFEsjOfNrepEdFf/nzecJfxrPK7yjFCXek8vb+Eypavxfi+/ibaRgNaFY4JCllDWhAguuUjSSEMiabYIvFFNHABZCofafJLi4TYh59nhNqNuElMl2LnmQthzJdxY8cKk4Cj0BJLqU2YE1AZxSZaEpKVkyiJDISAspUE6AkKnIGCJrCREKFaklW2GmG0Fm2oY5qk1CkAQzC36LUKWFRN4BfCUjDXgy6PuVnKw3A+uf8cEovAHFw/hYFT5hf7JUttvDF/n9SBnIlPFVprhCDVmzxLdKMdQEW5AR2KWBbIYgXeKYA85BloXAQYedJMhS475skUwr+aQJATSkutTJQkhY16xTqWsXsJC4EGQe2uzClVPkKdkEe+Q7BDtnZpOgeuSeVpWUdkKuc5IWh/bOVLVgQxb3iugUHo2ppjtVClSw/6rDB0oYXyW+zDL8P/gyH8eSr52EJU3gKZdRBE53oxphCvqpyU6GD83lRgBB95O/EUD/6ncLJkQQdL+9NELYJvT7USMAl/oNjAkJnFK/4zEho7W22yJbcQML/Z761tH+bRFukxeFoBftVq0gz90iv5pcG4QQtAFUDIa81ScUQJa596iAE0yymZfwBc9zFqTM6G2wWnIYL7/PtWdAAno8b5vQf+VPsbDbdfFm3Fu688wJCqjLV9vHwQjv9NBudkDQH7057uP54e2a+jSeTtMtd/2/vtbyq+lK7O9/Aw==);lineShape=1;" vertex="1" parent="1">
                    <mxGeometry x="257.2035065667635" y="102.00610923506679" width="40.61781210712942" height="1.7360658508967695" as="geometry"/>
                </mxCell>
                <mxCell id="37" value="" style="shape=stencil(lZjbchoxDIafZm818tm6TtP3yExIYUpDhtDT21fbnaVIhp/mDhZ9a+vwyzJTenjfPr1tpsjvp+Ph6+bn7vm0ndKnKcbd63Zz3J3005Qep/TwcjhuvhwP31+fl+9vT7Pl/Onb4cf8hl8LlyimGYr8e3nAFPnvg8+L+X73emEeMgVrn6mG2/axUajGPjA1sECqVBxQ1iWvArlRZQOoCyy3gSKUowUKFbClFogtkJg6WKEHKg6oFCIAhFqxUWWSchuQQs2loVCsABCfhyxUQFgDaxRtXEuGTkij1iygiyInEmXrRM2w+HqjbsNUZX3FrUTEYICW101eT3WmbMPUmQLYUm0kNkpdEwFWqGEtzhUQFUQG5aqVkC2gTqP6Zu+DAq0DBQn15gEBxaSAaxoX1XKd6F6kugSSkAI8OFFBMc1toHggoS01X33SqaMwNd83FEDVN3YmBRg0SwWkW6BhpzuV4IGEUx2iByJaQbyoZwDUt1ZfGoAM2oYCvvoaPCGKinrIAwOnFUjdAwXkYQaGFVA7VoAHBSWgIHW6DqKGTvPq4qVGQVg1cdmu8B8a7YNGBXQmBVwbmJ1AwHBCiMDamCU3eM13gEFyBYu6DKkO2IfuMqdeoWb5UaB0P2J1rT50pGQSB6Q1brcGmmx7ZdNUgm6sP7u20SIURM/rEXU+qRssjXkCcrNAhILQ4aHYsM5xwyNTtT7oPIM6mQLOBxUhSpxEnwfNPWpM/dxKz0BcT4DreZB1yDsPljhxVTXtgASn6TJsKd4p7+KnjRgpgS2lTMmeWQEfEHrD6DYPIRGDTIdIbEtDLyGg3Q/NO8JxSVu3c5gKKCM9D5MzRxk7j5tnZ+EoNgzpAV7H2N9kAjz9dTM2MjqLwrdnf5esQMKqJnHmCbSI4dhn2KgDNW/OoPA1K9mbg71Hf2HjdV69XvQfu2XfNdcP/y70L7v9fvk/4PJ3/weAPlr+PEiPfwA=);lineShape=1;" vertex="1" parent="1">
                    <mxGeometry x="290.80256470362133" y="95.27066347604205" width="10.935068187863333" height="15.799060349953606" as="geometry"/>
                </mxCell>
                <mxCell id="38" value="" style="shape=stencil(7VlJctwwDHzNXFkkuOKc5R+pih1PxbFTjrP9PmCmKIstqSe55ZDbWEaLILYGoFN89eXu3eebk/gvz0+PH2++n98/353i65PI+eHu5un8bL9O8c0pvrp9fLr58PT49eH95e/P77pk//Xp8Vt/w48LTlwqHST+5+VBjU7z7ydvL/L354eVfHQlzfLVZT2Wzy6FSb55l8OxfHVBZ/lFw115RX1adp7oE8TVPAOqq0ShUFyeLaTepXQMkOB8nQHilAHshFklTU7JnaPdoc2AMsy8D1AXZy9odZ6olLIrmxMqAeQwNF4AeZy5D6iuKVopkcAr0aU4O645YQD7t2AosTtUcd7PsZ2HofcBybU5+IolAwMU12az5uaKEEDD9EzNqScAxViKbZy5C7B0DDPAUkpIAhkgzVYSTx33kvADYDmYuEqQcWUceSQfZ0ebn8kNzEY63yDwuDB5AflI5E0fP8t7ms7dBRXkC0mdfl8F+RipPNRIO5DLawR5T4K0BUw0PxLpSB4CwuRZPAQsd54mvqW5x/dnpo8g53jXmH0Eq6kZgL8/ZpBnlNntAxxLKbP7a9Y/xEFyhykMOS9XI3rOSKOgxkPazyGU0jDyoUpzDOXshAcFAIq1GpV6oc0AK9+MlltyGfgjusDyoIyytgDUVWYlK/6zlYz4A4kk6zwqkGYZtWMfYL3NXOo00E7BANoQwJJZ26g9q/aIVVMD1A2gMICOarU+gfjBAEkRoCSWDID9lFV4DtCMgEb8ELzH3qK3O/wSQDq9i2Su1tHGLoBI+9RuJo+AxlytmNQWrp4F09LcrAGkMBlAIqqkPFyxi7QBhd2hIhca4EoGAVmZH2i47gHYRNJVgksbAXCVWkUAK0zdrKCSMdwVx3kEFOY43YS3HxPEESC2jUocUBQvLYSlewIFBFQSGvs5KjyDcOjhnWfP0U24smb77wGyySClE4ZRFIZrG5Y+YjnoDm3So4C0M0A3ppLsEC8beqx5qLDEyHzJoDgxWPPA+hmbw2ROOWtPEom+WkcL+YcNUAfMwdenfGIlUynMjhNeZwwAbaW1iWyuMgCwXKEM9H+u+j9X/dNzlSCrCeXZrXyhOd/r1lyGgj3hAJzDltXHoUVnj4nyE5ZOYqkq17c7sHBSXkob7sCy0nVQLTiSlMa3bNbRQXWvtLEtin4wCmrk0iWN9/3hhJHbCLQVBwa2Ht2EtrEsA6SMlNZ5nO2EbUqC4PO8XETBCbpPBMTVkkf5X12CndDr4cZMypbzGXe81u5kYqYQsAT0UY+xJkarzeCMlpclxCKf6dgWRwVd7ZxZrxOQoowUGSf4QfGrTofls8eSXXkqbFpgk2dblc1iyOQ9CVM/KvoiH+mcsFk2m3wk1WVDySbPNiobSq78W00YA8FKno0t21We0PgMGJ+mP5uYZdxuJc/WZps6ZPKMM//28+B1efvx8i3y9nx/f/mUuf4/fru0R5fvnvHNLw==);lineShape=1;" vertex="1" parent="1">
                    <mxGeometry x="318.95837659334006" y="59.97862603219983" width="11.009497662456688" height="8.085749823674815" as="geometry"/>
                </mxCell>
                <mxCell id="39" value="" style="shape=stencil(lVZJbsMwDHyNr4T25Zym/wgQpzGaxkGSbr+vVMOUxcgsepMtjrjMkFKnN7fj7tJ3Stzu1/G1/xz292OnnzqlhvOxvw73tOr0ttObw3jtX67j+3k/fV922TKv3saPfMLXhDMRlMwoJb6nPwGM+P3xPNmfhvPCPkrwtb2VkD9XAR4kAQTwlgFECLoCOA+OCymCDRXAOwiOATjQsc7ZguUAgnqICnxYBwTcRoAHz3jwGnwdkhQCBJO1M2Bt7SJRydTVOhAEkLKO64AkDVkDQmS1Ycx8HgIkaM0AFITag1egDOtBilobGgRTVxNmcaL6DEtE3vYVIB8hGR5SAASAQbapVjNNCMAytMWUimioB464TFPdcplKTt+WElfEstZyJIcsR8bDQs1ItYbAdTU2DIqJ77nckjURuW25MtmHDsLB0GbOUbmW0dPWhqd1LcOtrb40Gmuqy/hsAyTVdx7QTFnbAMYDXgcLLXH9YOi4N2m0MSlLqiTtWRIedKQTy8zIEGDqfJVmbxMFhgxiB5FRdmoUYi9BMPUp29g68wlte3SPCcwRtuPH9GZ7rEDTPpfPEnvu3in0YMLstVPoR0Gwiv7vg+Rv+7Qor5/DcDpNj6flPn0tpV/TS0tvfwA=);lineShape=1;" vertex="1" parent="1">
                    <mxGeometry x="326.2662591593098" y="53.11680839205883" width="0.5815106567747994" height="0.5815137004456221" as="geometry"/>
                </mxCell>
                <mxCell id="40" value="" style="shape=stencil(lVjZbhsxDPwavxK6j+c0/Y8AcRqjaRw46fX3na0hZUXtTpA3HzO7JMVjqIO/eX28ezkenHl9u5y/H3+f7t8eD/7LwbnT8+PxcnrDp4O/Pfibh/Pl+O1y/vl8f/3+crcgl08/zr+WJ/y58moVGxaWM3+vv1gJ8f8PX6/4p9PzGu8k+gHvxZV9fPGSy4BPEtw+PifxcbTHSLCEYKXWkeAlpn1CSlKUx1kKcSHBZTsQnJNKfIi1Pa8TivhMCUYFNYglToOQxyj5yn2wLYiNEKKESghewuhDNFJJYqQo2Y2E1FJrm1DEjOcAIw07aSN2fAPeycKK1PBmJFSJxAcQVHJnL4n4AJPiaFLOkokPcDqP51CsZBal1MqrE6Ikdg5e51Kp4skbkEt2JCw1zghB0mhSjbREQzegE1BxjICeMh4c2pQnNe2TxJFgjRFj9hkOXlf9CuY1at6MJ1dLi/QmwUZxaSSg9RGTcmtbHY/kI23G6KjioCPpAQhI0ngW1B7AFZ41JZRnHvFFCilPo4sN+ETssZP9pTXmHXw2Gs9GjxNfJjx5/lxopfXMHXysk78kgbwebEs8CT7ojMZ5GRJP4IvGe+pvnfONVIzXvRH4TOx3bb6s8Cx/nLjJ38oKUpKd8DSf6xQf1rWgU7LGs05tdN8FPpB4btYjGeHAT/nDJjj6yYRn52Xa6azrkTzfakWx1AvruGLjhCfxd1LchCf2eC2JFvtJvvkNfzN9/ufwELpJTT3XSmibkHWHwyBmFY+SV+IaIymSFPJG3Dy5WYwgTtRYLS2ttpsQqixrgiFvCEmLOvhQyBuiFaf0TaAaLUYtJqqlhQMF5aZMrWTSY6PQqQclS0otwWJVm5bOPsjGOIYVwpSJgzSpj0X6knMAQeUSxHViGwWU7Og05HtiPgTdILEgOCZ9rZTx4LCCMIUT+wDrBEt3lphbR1mtUazHI5fyGFYsajSX4sYqyGQmCHVse1g2Lekasaus1Tr7wSpox4ND43GMgJIfTbKO1kPuf/eKoyt8MfpSIdIVZxncyuW2e25fciQtBbu23cOXqPCsh6GJ+qTxpBKAV/Hhy03tg3WFZ/6WJpxW/pIUWrYx7a9jz696YzR0KAA/+csm82rZeydkdgBVTx2MIZJwwKvOYps42cMr7WuptP70LdyHeHx4v/J7OD09XW8M1//rK0L8dL1e9Lf/AA==);lineShape=1;" vertex="1" parent="1">
                    <mxGeometry x="331.4606618914463" y="53.588819859868636" width="5.670873558208544" height="15.648583213478355" as="geometry"/>
                </mxCell>
                <mxCell id="41" value="" style="shape=stencil(lVbbcloxDPya87ojS74+J+l/ZCaknCmBDKG5/H3NnBqwKdvJmzns2tJqJXuyu7f14+tqUnk77He/Vh/z02E92f2kOm/Xq/18qKvJHia7e97tVz/3u9/bp+X36+MReVy97N6PO3wuvAQvR5LK1/LBZ+jy5ceC38zbC7z3SNoRtEDibUIROOsIglAIXpFGvCMBlQANHd6hsP1rxn0Ckcdf0+vxziFnSsilJ2RkTwllkDRClRKc6whmUHZCQog9oW6RqKiDSN5gLGkdc/B1CxaSwK4IjiSdU1P9RFB4kkMOI8ESEql09giDrA6eWCnbVeE8jHi1nvBX9ZM1IgoLKbS6nggCNaqSDP2M7Ai+QAezQlmdq/d7J0k78N9431xw3t+ReEpECkP8rAQlI/SKFiTenLGMFWA+dSKjompIrHdKs+XJRsInUobrc65GNTaSIlyfRG0FNrSLNVEumk1YGb5LqLeG9IQUEQLR1UH6MV91C6z/m4/PncCtFxF7QtWZ9ZofZ2SVmc2Xek/1RagzMJL9XRugDZ/5OJKxc7JCiKJXPk2h9eoNvOvxsTQFbuCHezlam5c38s29q0OmF62NL5Fg1BBhnFxB6J323ZfO//F1cX5WPc+bzfIqu/x/fIbVT8sTzh7+AA==);lineShape=1;" vertex="1" parent="1">
                    <mxGeometry x="340.73398669357084" y="61.47838611511588" width="1.66790830659726" height="0.589128727024013" as="geometry"/>
                </mxCell>
                <mxCell id="42" value="" style="shape=stencil(lVfJctswDP0aXTkkwfWcpv+RmTi1pq6dcdw2+fuC1cgRQOvJuWnBI5aHjQM9vO2fXneDt2+X8+nn7u/4fNkP9G3wfjzud+fxwk8DPQ708HI6736cT7+Pz9P761OTbE+/Tn/aCe8TzhlXGsjbj+lD9CbY/1++T/KH8biQL8YlKU/G5XV5l00NGpD9OsBHE5SGYBwAUOhcCCa4dUBgQNCABDTwbyINyGUdkBjgJMCZWtcBmQxFAQjXuN2mwZqqAHaO221A0gCOGwGTajEhC4A1JUL5kpS8BYlUq/GSBWcScIDlo7QnbskXSZpz8wlrgCoVuAJZboAqAD6ZCEhrJlXNgSUISNKkDZYZQJKEEGF5MmvKB048GNZiku0AWIMnbZJHicGZ77XTEdQzA7LrwoqIy9oHJi5hk5I0iVOjIKbZJJVLDrYYjpKVGji7cXWqhsHnI5c5lSULm9XpvJIvOFNVt2AKkP3VZGk/H4DiU/UYccl44LCzVwevJNPcAu9UQRucsQ+y2Ih7Jm4YOki0FVXFAheb+xJtG4CSjZU+ZFwKxRkriSt+DsPaaAuSh2rhhtGGp+Sh8ngG9d+P51avIKz9AtDqFRDXrxitSYH07peY1gZRunZrUmu0ANDtYZ/z9LYC7cGiQG4CeMGwWgEBFuwc8kWIPJgLdt4+FixbeL6X9pQK90j2TtZa4SwCAeraRa7zCXfK05yG99mTMqybzt/kYUJ08YwF7ncdX5E3BWi/ygfe41GH/+rFYlueHz5vMS/j4TBdgpb/9a2HP003Jnr8Bw==);lineShape=1;" vertex="1" parent="1">
                    <mxGeometry x="332.779388822963" y="61.50623995136175" width="10.666079904242833" height="0.5344727178935806" as="geometry"/>
                </mxCell>
                <mxCell id="43" value="" style="shape=stencil(lVjbUhsxDP2avGpsyzc90/Y/mCGUTClhAr39fbVNd7OWsofJW1h0bOt+pB3fvT3dv+53Kby9n47f9r8OD+9PO/60S+nw8rQ/Hd71144/7/ju8Xjafz0df7w8nP9+vZ8kp1/fjz+nE36fcSIU+4RK4c/5S6AW/334cpZ/Prys5QN1HuQjlO+RZJRP1NO2fCtURnmmWrflayORQT5T69vyRUjqIF8pFiAfqYzyjXrYls9s7SlQngvF8fyYKLZtwOX+BZBJgEXVQTmNgE4RPCkWkjK6LFIVAIjEo86pUM3AyXPILD4OFEAQZRtDnKmD85lSHmNCzwdOTlRGC2WNQmChRDK6QKMkAgNlSqN9Sp2j9npQU2tjjCaob1T1xiSonSowqIZMMlGdKTIAiA3Tpl9Q1GXiMYg6UwE6a57U0Ui9UQE6aAy00QtamxrwMotNBGFioHReSs8CKMRA6dzmsFkAFVejQDJ6WjQ3gJVKpjymgnTKIDRKmyNnBUAFuGoyj7GkLQIlZ1WbBAtAsVTVD+6GCKyksRn8DaBGNlWxOADoIl3ThZ3SQIcuNuMmAPCDAkp0AOBpBfR6i9Ia/aFbQMKA2CyAwZMmgNMBpajqIM5xFQTfZCWnQwOVuLu6NAGwp23VkLnabgGSiyVUZrRs+eBD7XOqc9kBkNKN2Cmd8Q2cLICR0s2VGZk7xhagOschXqVmDU7pAIqAArK7AWZcJ/E34JxmfwOy0hIIa6XBk6YUdX5IGODDm4FZJ4B7UsY6iCtkqE93uZJAFTlOX+yqRsOO85XvgxS9DaD9QdyTBBHWPPPHNQDcoD3OZFwMYe5i1xFKaV30CWqj4cZKpqSz+thAZCNd4Q6It2aZB4sVICGGVVydabBsZB1mHCVDowY3lxAMqTGnuTKuaCVSWqcZw3+0GDagtE5TpjApNUYsMSqJHINJyXdCgGhnRA3gBMza5n6zmh/QVJ9nYrEaUATNG3agUVqKanewHFQHrATOD5YgToEFDBRmBy0DpWAfzxx7NYAiDlDsADptAVCNtEsJPSGD8yNbh01TPgK4NU/Eg4Y+wMSczowFJRpbnqRRiNIgLy++bEoY+Lg4JzdIb0u3tKrAxlbrzNIumyQ01GtKsd1UoSVDDzMxvWzC0PnaN830GSkACqaVU+wmD9EdLc2mbuEljMqb9oEb2tQr3HvQ+XLlPYjqKE9pRh6ttabuKFYejUdit04BUuBVg78AGJE78QbKyGFaQ6wC//dWmwpHK4/Gu4UpXuTR6vXm1fGH8vrjsqd+PDw/n9fc6//bvbZ+Ou/E+fNf);lineShape=1;" vertex="1" parent="1">
                    <mxGeometry x="345.677057172863" y="42.58645325764951" width="8.928494288715166" height="34.33701933123016" as="geometry"/>
                </mxCell>
                <mxCell id="44" value="" style="shape=stencil(lVrZchw3DPyafWXxAo9nx/kPV1mOVFEkl6wk9t8HzBZHw8ZMr/Qmr6d3iKvRAPeSPv24//L97hL9j9eX5z/v/n34+np/Sb9dYnx4ur97eXjVvy7p8yV9+vb8cvfHy/PfT1+v//7+ZTw5/vrr+Z/xDT+vOPEu5IGK/tf1k1pcbf9/8vsV8PjwtAPk6jIAssuRAPS/wwqILrE3ROdlBYT5ySEgdZfiAijd5UIABW0o1TVypJRcKitAv4IB1K19BYjL/hwQqwvwhuwKA2xe3wEiMTp01zMCWiKA6kpAGwoDiAsRvdQqAcRp4gZoTjIBeBfTmhqeRrq6DqkUnZATFRcgV7OrxOSMLtLq6eT5ZIqnT4uOo+xqXZ5vwQkpBXXoam9L9PzJBXheXCX+zM6v52+V5pBmxBqv1l0j31+crAnRgyukzhqyV9dKJQmkNbDGq+fp4eOEC9N9G0BmGR0DkitrxHqZ7zwrmgIm1PnJcYg149eY9eYSY4o0CX0HiMRorZra8UiUHjVNszGaMXabVLVzayRGjyYCceCFLNoyVhtao5UpdSb+BlA+JW5V9oQ31DYjcwzohoyCayQ1qjhvegLrOkomaX2DFMqnLbq+MnZus3EdAwRbrTbfTrzUiiurl1KgDKCEElYKUNJJ7EiqV1ajR+MigmRQ3GrDqHKSSyMRoHNOt515Na8mbPLh+HmP6iLMNnEcZk3VAM839rxMf7ydh0m8mlxcn68ukghoD+4JHcocpF2+rUmhIRPWFiryvJrACGYoFUg7TylMK0vWNyhHMVlbEr4hF9rKFZBWL0niXkpYzUVJjQMgL8rG5GdGJ6AwPRKLg0xK3OkX6qXiPAiYPEXiGaAD4IYNDSVJ95QkS0cNqa0kk8BpemNLTzSXVGNid8uTo84KtEPDFSfES9ppsKXLjP0ZJRUDaIzDCpboAJA4DBFilRLxkgKaUUosvbvpbgoITOx1JHoFJOKlbkYkBbA4BO+d94hgAlpf0RoCOvNrxxlJxRhr0QoIRr1RTdxMblRaEN2q7kobVq/YgMaRWG6oiRUBTB+qE5sgwLM4FGN0oZPMIUBYHOyRNPuIzBhGmzcE7qWSEMAWJSNwcCThydewyY03ELmnyRdNPfgb6R0QQCPdDTEVKruPa5QNlYc0wGa4QTRgRJ2D7ymVmQpiM9wgy4KAzI7UUKgPAM+NjwFGhzDExBrvkMWmRtkbtMt5YzRjsppnRe5ZgLh1DGCmgqie0XQ1gytbyKgC61DUebaxMwGEaiPONnamyQRs2ATLmeqDWVolFktv1ZXwhjERMYBZQw2ZyESciYOG0rM3BGxBY4PLAB4V0y0x7XGsVLnOBNA40loPmdO3AmBs0pGDpkbCetChhg2ub+uC3dhEvVSQvgNv1Kq+ERBo8lWzveIL02o2FImm3ph1V5M9HR+Gku7wPGMMJTGJ8DzLCq0U0HtprphPtxkV/EN3E9sqbx8AxsJ9SuD9uoRZbCgv8gsfBcD4kwId1ltFH2U/h7qzDU5ejc6N3q60gKJBtu51tmKBTjIuS1jeRbPZj3wdUGbf2K0POytmc1PX+P2NmP1B63RIVL4SM+gy2tYwBdM+2aYrZSNxb+yu7WzCr/YGwa1e2um/Y33Y5+rp3QhB4tZDCam5kIyfGt3YBW8UaOU0M5ew+zGU1GjFmzqVMWzJKrjRHCsQeq+E2jDSySRio+qeCuiAiyvlQfb9HglDKYStcMzIMO7RSEp47P3KOEyee7xsGMXPMgjjW/nwae6rVU+xOhO8fVb2YuqoHty4M3o0S4yxmWTxVfIEmSB0Z601GUHf3bgOb05gWZr4rVgw9+eRtuZRNIIA1nRGFZsjsY1BikinY6NLwpDEtDWhF0TJzJ0aOM8uxAPyr0pE9qOBbK/QPVV42qUgDjrFsQtT8ah4aqI7Om2ccN9TtzX2aaftCGBLDLG/A+Bz5+EbCvHSoQ2sgBTgDcXQC9OIuyEVTYyDFYBxqHR/K5b1Kp2oFABt5DYAriduHcl/1Gg/56f3uvWjP8h6B0D/ePv917eHx8frz8f2/4+/F9OPrr81S5//Aw==);lineShape=1;" vertex="1" parent="1">
                    <mxGeometry x="364.8047851997785" y="43.24604272133797" width="8.820676175474249" height="20.19232319387872" as="geometry"/>
                </mxCell>
                <mxCell id="45" value="" style="shape=stencil(lVjZctswDPwav2J4E3hO0//ITJzGUzfOOEmPvy9UDyURlNfNm6NgRWJxLbSLd2/PD6/7XXBv7+fT9/2vw+P78y5+2YVweHnenw/v+msX73fx7ul03n87nz5eHi9/vz5MltOvH6ef0xt+X3BFyKcJFdyfyxNPpf578PVifzy8rO0DldzZR3L5un1OlENnX8jF6/aJyXNnzyQJ2DvKvr9/IAYOxNDuOwMqPEEd5NgBpicA4Atl6SlyFAUAHJWeo1gpAlILxdLZp0SpAJIo1M4+a5BRECj0FGVuLG8HmaR/f0mQUqHQE1QdMbi/j5bRqhSAIHtu75uzyFNAQdY07V3mTAkANKSmbljIIUCm0gPEk6AgKCf9lUTj4gCgkO9ZEg0Mqk1Ptc87qeTBlXKlKhZQGSRqbHkwAxiyVD25OgBAalQeWNJyBoDJRR6cBrQu7/tfAFP1AwDUvwjFZAER+SCN9RWggCt558g5i2AQOT3Ceq2dGZScAsoQOVRBCvDDCWj0TO8TC+AAI1fjAEBOl410ZVBBCgjDCRVUkFakGZ8KyBgQ2AICYimTHwsCZV+202HiDeX32MkqjrSyNBQE6sZTHMbGdCPSQ3o75LTm0uC0R5GWDVojYknrYWgbGfkgrVmv4wBlw1jU2ixxUdv+zbcaTRzSFTWaJf3XBYGuNCfnuuRQfn8WUKVxMgMEFvU0g4ykXJi+NuZCskegIZS1IooFZHCnJBuNpiBAtPpkGXzb+kSz09CkjQHkqwppKzdCU8rbGqtQMtJeYP8OjmpfpFyaV9sVkZqiWsk+OCHscqK6kkGgsyVVcwWRqgKrL5+SYVsaCnoS3uA+ru1SK2GPFoEhZLo4oL5a2myaF5MCa013LyPUg+AeNsgMXa6QuNJ10OwOHnf65cYzQHU3ktGpdbg5yMTgAKXckgpzqDgrQH3TNdv2hWqfdA7HrFrF4ODGrfZGQd9odjo6o7VH99EFfrgP8lfsaHZw7VF7tu9HM013TaM7HWy9ah+Dsa837G28BM0n19rskg+op6i/Ztv2cBdWe5PPnjJoop/+InTTXn8sn5+eDsfj5evV+v/2c5U+unzqivd/AQ==);lineShape=1;" vertex="1" parent="1">
                    <mxGeometry x="377.8273847539715" y="46.89982042085899" width="5.3246574249935925" height="14.394513342133322" as="geometry"/>
                </mxCell>
                <mxCell id="46" value="" style="shape=stencil(lVfZchoxEPyafZ3SHLqeHec/XGUcqBDjwuT6+2iz2Qoa4QbexDItabrn0qQP79unt80k4f10PHzd/Nw9n7aTfppEdq/bzXF3aqtJHyd9eDkcN1+Oh++vz8vvt6fZcl59O/yYd/i14EypyoyS8Hv5IpTi3w+fF/v97vXcXqjUzp7bDgwBbP0BiVIGAKYUOoBGKugEJuEOYImyAkDwPsdChk4IlHtAqlQCBMTcAUogQ7Q2QH9CqSQJACJJf0I1yuBKMVJwV2pSGgAU4uoBQT4GJCXthStMCpSeSYyepQpYypk4eQDSoRjZoAM6ofLq4o0+1EQcBpZA8NXqo3XWAVyJQ6DgjlDKyIlC6pQzSuhORtHxGskQr2XN+TNALQAgA6+JFARTbjceASAhUiYrHsAoXHnd78yHBKpATFSKp/VfMbwMsCGpjQJKuQboa2VTmhEgDToICdChOW0OwKv2H9EaowcEAJiFc8HXchToMIfGCAApNwdf9lcSIFwL7zQ4nYFwLYFMPK2Ipcs5igp+KwO+uhopkPpuQCvH2XWIAmufqPf6zK2LCKXUJ0RjugJedS0qNza51lCG/oBIVZJ+/yttWr1oV+YAoXzXoCFribtxkmlR2fN5ZVTitdPcOIsNQYpnvUDJTW4UIDuu2jEkM3rzsJbXy/FPVp05CgU24uzsGdlXUnb2KPRlqClX7Ovasm+7j7bJxe7wV4vPLUynDY0Aq9XeCeJiEwbD3e+Kq/Zt8f8R87Lb75c30Pn//tHTPi0PJn38Aw==);lineShape=1;" vertex="1" parent="1">
                    <mxGeometry x="387.56570749017806" y="53.58127365243104" width="0.616909596092943" height="5.067718615536956" as="geometry"/>
                </mxCell>
                <mxCell id="47" value="" style="shape=stencil(lZbdUttADIWfxrdnpNX+XlN4D2YIjYc0YUKg5e3R1mOIlkSd3vnv88pHR8c7yc3L9v55MwV6OR0PT5vf88NpO8mPKYR5v90c55MeTXI7yc3j4bj5eTy87h+W8+f7/mQ/+nV462/4s3CNUEKnAr0vV2JCan+v3C3Abt6fAxmlGCAJWnWAhsoGyIKaXSCJAUoEeyUltGyAqis4QG2IFmiMFh1AVbIltYLE14FCyFYlJgLRdSITJNolGtiRKRGq7ZzqQE4jooBtI2oFO4BUkAVK84EMsrrmBhIHKGMjUkV1VIphXCGqW5zO6W1pFggITklaQK4G0CKzs0KuaMkCGSE53lARrZlU6OB8dG+TXUFbGfyBoGFG6V8zykPjCLFcB87c/OkNWoPh8hI6MBbQofJa3UdysGtbX3FZJh36YUg1GJySeqzYkr6i53KrBeXbjFYnBjQa6wBofHozmhCHoVZZHTN1QP4HkDima09Dx0whrm7+BBKyE0yc1rQ+i43ofHRBtW4tDHHaEMYwzrym7cXn1ar2AxKvKXLteWuLSODg1ZNsYgRfUc0TWz831xQcR4GYkZweBxmBBHEmRz0x/Bm0AY6garpBofHfpgdfO47HebdbNizn98cdil5adjdy+wE=);lineShape=1;" vertex="1" parent="1">
                    <mxGeometry x="388.09290073174407" y="47.20237976696467" width="0.5650837618511074" height="0.566817249798558" as="geometry"/>
                </mxCell>
                <mxCell id="48" value="" style="shape=stencil(lVfZctswDPwav2JIgOdzmv5HZuLUnrpxxnGvvy9UlaoIyuvJmy1hRQC7OLiTh/fD09t+x+79ejl/3f88Pl8PO/m0Yz6+HvaX41V/7eRxJw8v58v+y+X8/fV5/v/2NFlOv76df0xf+DXjoqMsE4rd7/mJ9+T83yefZ8Dp+LoGeEquA0RKwD45qrGzd+TcbftcqHJnz8TAvkRy0fhTwm376shXG7BHgEASekAhFgDINmJOlONtgHdLShpCEnlwxAYiaNgJOvWP1SVNkSICeJKehxQoMyBCqPQnZCGpgGkh7vNUfHuyLb1qpVEKOUBdCJRSB6hCCcQgrklhAWSKIAafqfQurajZRhD38tNEF2DPlAd7QTEPIftWINv1SblnTQukFkBzE8Hq+1iqFIoFBJTSJR8LgGFH8kwxWkBC9ba8XslCUAzqQLWAimLQHPZdVbtIBC5V4mLtawa1Y4uzRvKAtUicPmIvw/dDa2o3VJ0G/yNQqWtv1wkF8Q7tbmIMaELr2PivnAOGlS/zfQ8J1pkUrH0A/gfbfe9UTSJn/L9XlS4PVY+6+6BP7SqIXw1vKPsCOqmWjGTLQMA1lgeKPS57Gao4gxxpDNYlHe13AIOqIYCHMkvtzG0ZDSNQT0hAd7oXlEF4DIjW/a72QZfUmtm28sSmNdc2gm6Ncd+fkBnO/TJsYAl3U13xZNhdPAJkqyXdjirQkgLGBSyiZSe0xWPZ8XRRAPLWJLJZFCoF0CE1raZFqrpQC0ip7eGrRRjZLwvjahFGUlKAmbPTqEaAMCxH2gPQXUHsMqKAgsTKdm56rShQcHobSWwBiLdYqIgFJMBbHBbtCYAuVMNsVgBSRpTWIlYANEwi2z42NVt8xwsDcajgtMuMWoJBf/jaeR+gP/7fcl+Op9N8SV6/t7difTTfqOXxDw==);lineShape=1;" vertex="1" parent="1">
                    <mxGeometry x="392.9002373962596" y="57.29805371707607" width="2.183422914726118" height="6.577124803571586" as="geometry"/>
                </mxCell>
                <mxCell id="49" value="" style="shape=stencil(rVjLjtswDPyaXAlJ1Ivn7fY/FthsEzRNFtn09fel4DqxKGeCAr05zowlDTkk7Q0/fexe3reb4D4u59PX7c/962W34U+bEPbH3fa8v+jVhp83/PR2Om+/nE/fj6/T7/eXhmxX304/2hN+TTwJlKWxgvs93XFUpxufJ/xhf1ziM3Hu8JG4Anwl1+O9o4QWqFRST0gkGRCEUk8ITC5CQu23xJ6yhwQp/Zk9tZ/3CN45cq5jJEcCZFphZNUJrNE21QcuC46EUOSOUAolxqGrHaE+iHWi0AtbhYoDBD10fwZhKmBLlYljT8iUQHKUSKE/tJ4KEXKgYlYQyuDQGlhn8vUWy1UGFwrVLoECEVRXZw8RwQo+rsiUwQqZJPT4SB5YyK1kxl8T3sEXb/EO2YGqeT7PZWpdUorF4iNwdCJ2Fh/A8wt5sXgG5qwkyeKRmbUm8nCACgLgPTFbRQNS1M9OXBBKgQSr6dXe986QkyUUVFZnCa/4TA7sqMwpvMAzcIGungc8eD7PjW+BR0kRbGlp+4emsUmRYGVx5OsQAJBEQwdpEYb4GC0+gCLhB7wqBuIbSAaTRaBnpDx4gMHztfIPeBSvSjyYOKL+RzKcF+mpjnHFCuoxwTpGNUB1XQnGMon8/yS06a/fUusEiCAUDCHB+Y6FfN8LWm8CKkWtE2YFLccgbkmsrEpwqPtpN612SxFNFdlaTQ/tQWmpwdZ3HXTQjFDL0KFkTt+7o9TYEMCWxFtZdRxE9pShKT8aOL3NpUcjrfao3qEPpmYl5H5LbTBHlvZzXJejPya4Plu1TSBPy1CFfZ4HxPVIyzg/wsasqRH6upTmPd6bmWufGZ4SxhtRsaatKto3SAFtsBXFbPAZmK11sWrwEc1e1/pzw6O2Wa9vEDc8mk1Vf1NTHda/zq80CzyyvsxddYFH779u1N9jH+do8NDGwb6uOFiv//mLwkO8Xtw+X7ztD4fp68fyf/u5Q29Nn0r4+Q8=);lineShape=1;" vertex="1" parent="1">
                    <mxGeometry x="397.0879333462392" y="51.21469646387732" width="2.8080079314721833" height="10.645878669468432" as="geometry"/>
                </mxCell>
                <mxCell id="50" value="" style="shape=stencil(lVbLbtswEPwaXQdLLl865/EfAeLUQl07cJy0/ftSFZRoSWeC3ChyRkvO7g456M3L/uF5N3h5uZxPP3e/p8fLftDbwfvpuN+dp0sdDXo36M3T6bz7cT69Hh+X7+eHGTmPfp3e5j/8WXjFI40zy8vfZUYg7v/E/YI/TMctvmBe2+AdIsGPClcMPqJEgs+QYP/vEQshjFB7gLojkc8JTmRdXxkq66GuhyjINoSO8JkQIkYbIWQewSFZVaNSQkkIzhISEtG1CEpDyHCEkGMXISCRQ2dBTvbQIwIhpAzNluAhJNUprpXwngeFklT3BB8gRNZ+Sy7CB35oS8go6Tuq+i/TZgtD4Iimc120+MS6pxae2hzAsXbuKtvVDfHeKQ2hQIhCV9qzakpDdA6gCUqS1ntMCMjMlHoTcwhE1t4lY7U9JQS/pmnTnsoMoPPtLwg5typlzw2gJtbmoQQEQkgO3tZS1S2S9qwiqlXpw2mvEoJgtBE21XKVUZ09WVOak08aqF4ertlT1YHVq18b/l3Xkfpkrc1o8ClRq3cYm8oQRCJSf7vpWiqf4GOjafUQgtcW32agDj5eG0/T4bA8Vrbr7eukTi0vG737Bw==);lineShape=1;" vertex="1" parent="1">
                    <mxGeometry x="398.29816646165705" y="47.512270810699874" width="0.9401705610042462" height="0.5687990581380168" as="geometry"/>
                </mxCell>
                <mxCell id="51" value="" style="shape=stencil(lVjLbhsxDPyavRKSqOc5Tf8jQJx6UdcOHPf19+V2IXtFRWP4Zq9nJJEakrOe+Olj//K+m5z5uJxP33e/59fLfuIvk3Pzcb87zxf5NPHzxE9vp/Pu2/n08/i6fn9/WZDLpx+nX8sKf1YeG7JpYTnzd31iKJj/D76u+MN83OA9UygNPtHybYQPsf5c8TZQ9GNC9MS+IThLuYwJicnallDIAkK2xC2BJQYQc87EoSH4QJzHhOLJtEEHJm8BIZNrjxQtGZAlawwZ0zISZcCQLUp70ZK4yDCI0p4pZQoJpsm2acqOCsirrJcVIcIjxUymjSEXGHQQrbWE4rC8HaXYEjwlELTUj1eESCGMCVJfvtVGSVRABVly3OKvcvx8A3JB4y0Q61WZWzzQqqfY49EdUOrwLoJLpmg03gN8qsW+wScgotTFW8hAvM5nqR1qcH4db6kZG+Qnd+tnoAfRY9b4AvIjDbvFb3rHQEDedBugXkQcNT6B/isDpsMHEICctmi8A4LuOuOt9Q3wrhNQhOuXrsA8LODcre+A4FgPj6XAoCDcQ/jQ3dd1+gwErQby0oDQQK7ltM0n0E+qs3R7X7Ag9XlED7Agi9P4APITtSNa9Awb1mN4KwEogcZ6JZ8XZOoUGuANsxggtQNDiQZLQd2ZxTnlOlOukzjDoFM3ZrIMBrCDeAfbylSeoLKXA6hGJ/4CWdObFdg4IjS6JYmhVZJ4roIIVrsJsXUOWaikYxDjmEBtipct7cV5nNbUuToxv9BzxTpNN/Y6gvIPSdfbMlHADr7oiWYjzBJ3BZShWZaOGtUG2EGx7kgWOhzBuxZvoKNb1i8KjzLqWFsK8ZCgEvqJYGrCRvisz29RfsRVR4U3CB913dwxIEk7kDv4rC2a4FE/LXrCmtprRvio88OgKB99p76Plw+3F/i3+XBY3/+3v+sXfnm0/lnAz/8A);lineShape=1;" vertex="1" parent="1">
                    <mxGeometry x="404.8837348370391" y="45.39161298211843" width="3.486802637431292" height="13.679806949701005" as="geometry"/>
                </mxCell>
                <mxCell id="52" value="" style="shape=stencil(rVhLblsxDDyNtwT1l9Zpeo8AcRqjaRw47u/2HdV4rkX5jVugO8fRWKI4HA61CXfvzw9v243X9+Nh/3n7ffd4fN6EDxvvd6/P28PuiE+bcL8Jd0/7w/bTYf/19fH099tDX9k/fdl/67/w44Rz4l0Hef15+kLF1d9ffDwtf9m9XiyPkvKwPIim9eVORcf1WYqS9VFqHdY3yX59PY7vwrDeBXGNAKqUMgKKeBJwKBLSAMCemYQcs8TxSIhZyQ4pSdXxTlVCWQfkKC2OgCieBF2ChPFWEVWJ64CqUkdWRJXsCACXOMYQvTQCaF5CGwFIfSCALH7MAy7aZwJApg2gSKRcBVlNEJWfqUkZU52QOX4mHRORnDRSDy3ZzKUgkd2rs/wGvRyJAZmLfgQUUZZqL2XkRmpL8q+zryyXeNYAR9kHuroxc2B8IiqQkeoxhoyoSMn13xuvtYDfJHFZbQwlipKSwyWmkd+4hswA0XKpuqVErgO8Ve6aqBaDmzoeqVa6A9hvxBXsYhWEiszjkVqkR4rJxoAyT6z9QMnGTKMGM9FKAFy1gErI13VrAjQWg7c6cyEka4g0BdFY1BBLNwH4DjZzbdGFNYBOOyTGDehWsYDAYzDiCgB1GojBAKo0diS/9IMLwI1Ux2IB5UaqpyMVIkydTGECEJ3pdI1TDBzgm71WJt+9giYAk+94bjgXANaC+g7JAph56DHMbGWZPpvOy3rgeajTDje4lMdM/0VRh6kgGmffFWXiQcxRUyfqrkgZ1e9rAM8Lwtj7zr7/CogTgLtptJRoYgiSiAGCK1TDDTR73hbNLdVCbSI8nhv1vkaJpKjh8bLZQakwpTy5jUw7Sjr3jzMg0BEiB2tPMq9RODAjfRmHJDEUb3UGe1JAmWyiUjWGc1XjjeuSmeuAbCezPquRoOGP7A6B6gz8URpj6LaOJA7sb2M9wNZVckvoH6YrRsgMsQKtWraC8JHcEmaUYnbAzMyGGmfJh6JlR0IeDPnQARopIJRLMDtgaGcjh1+cwnlCrtQwYYKwI3VaTNralG+sbnDcMCU7g/tClS9kO5h5T/uDr9ZhOZCFBO3VzoouUg/X/22eZ3RprNepYYf8Qt19sF06UKuu4s3xlwtYWe7s0xjTVLV9RKn7nB4blM6Hag26SuK/nsxyNuqptZ1K+75aTTnjV5ZHe3Yl1YvIil1OKkuXx4SL5TSrzdvlRN2cfbFRWoT/+Jx6czk+/Hm5fdq9vJwefi//b1968dXplTjc/wI=);lineShape=1;" vertex="1" parent="1">
                    <mxGeometry x="413.6777555710628" y="42.37068391881985" width="17.694157996524194" height="19.93604616018376" as="geometry"/>
                </mxCell>
                <mxCell id="53" value="" style="shape=stencil(7VpJchw3EHwNrwjsy1mW/6EIUSbDNKmgKC+/d8IT3Wxk9eSEffJBN2qEbCxVlZVVwF368O3h09f7u+i/vb2+/Hr/x+Pnt4e79NNdjI/PD/evj2/46y59vEsfvry83v/y+vL9+fPl318/zZHzr99efp9f+POCy83VOlHR/3X5pQUX0j+//HwBPD0+r4A8FkDFJ7wEeL8CkmtVAKqLeQUE5xWguJgWQGluqD0kN+IKyK4qQHS5r4Cw/XIO8K6ve8jd1XIdkIbzbQXgGIYANBfKCsiuiD2kYgDJlSAAuyMcAF7sIVY+JSwpCdeIWMDqGjBlbQLgXaQZmisCEKobtOnhhjBcgG+uhivRNXGswRtAcV0AOp9qgemFofG11VcrnFHZmXdc8QXx/X17+/jhgjih6GJYCQO/iOjEatf1tLLF95X1x5VfWpfnk11f19O9q/H6eHjE6nM9bid2On6wfXuW4+FBYd1AR1yIOAttO78dAI5VJxpcX7mi44jElrHnbmYYygZxc4EDICj6ahzJHZEsZgCj9tXtenJJmbm5RjN4SZCI27warlWXBFcUnNI6A1KhskP1LlNoFlfEkqrx7dJdF8c6v7caDnknieBELs6GsyWgM70gT6hTAjuQL0VNwc0zAUwWF1kBALI0QqoKOwBAGqZLRsL4RMl5ExDXttxWigmSUXGmZnxQjARpsLqFv/n9QuPV+UwbdxqfldchIfH4qF0iJRqvJCTG10jjveAKjB/8fa8diASkl/SI8cWMF+eP8ZRy/JYTz8dDvvL6VYhNBc7+ICMssCpCBCn/GZw/ohSz0984XqR/NvafsQXcNZZLFC9F6kbwaCVKgYpRHhrZQyFuFQeh4sgkx73m0bC5zEFoyqAMpmjpmxteA3QqvOpGlNdOyVNplzbDnwPyVsgdU6yaoXI+Q9ZXORme5FfD9eGymgGhv+5hRFm0IBbGariRt4R1DsisvkaV+hEqgjLmaLJoaUZBji7rqKmEAs8gS4rGBDaXJAA4xOzNppUI7kypONYkTgmAGhigkiwAYxiAmgGkUs2ShGsAUI1rKN4DoJslNaXkvedeBxCq3Bx7NboDisy1c02ZAarsn7v2DGjK1GNbwAEwRIzCcnxMZYvaa4ASDED7BrUuxl4VnwMaZzgAZEA0lmAAKL6fgMiAoE4JALJ0vrmHwgAlA4bpLMyA0IBslhQ1C3QTckr5TF8ytHHDvYuNUT1DN5uWlh5nCULkrLOghqn1JoYBKME9Y9R4X9W0kQxtqCz37wHJaLgu63PkICpKpi2F5XoyLDCkbG2DmxIH05wjyskUKkW0uBX8x8wrRFnbK4sjuyoV14z7JelMtbACgmTqSonm7XvHVowWx9QogezLSsV5ZleIKK86K4O5b0pX1btBBboabopj4a7vfZSj/BbsihmojZlvFLmepStKCC98CXqdao5ZZqljjdy5DVl26aZe576H9IxquueSvX/0MX70Mf7PfQxb6+lLuRY5HYAqFbnbHrWUR3M8Jagk6wUAyIGi7mkDQBaISLvaJai+SEXaoBoBlpOsDKtRziXIC7O695d3wB53V/PTarZJZGJJSAZ1PSWcm2pAlcxE0dqWE08BSC4ktXuQYmfeOBMApaTw1dRNa+XGDYzxpd5lnTcvwggA26uLv8Dh03WLK1RzKTRk4yNEVlPYtMogfSu59vFVNqyyuftLsrSNJsEGGZ/BdNy6vKv15i61yFAwlcgkBGEB8C3dBWufCEx4VffzzGU5RI+UmvzIAaEaBX11vptGpHZhrxC2oDqQkeqOhMIeN99pqBk6d85ykdfB0SwJXKAoO9p3GlGmcZwSEWoOEpACF4PQvsotUmYhMmdQ98fVPH8JMtDS2OL2cEryOthoC9ghC9fDIQ5aUts6jucAo66Ll3I8Vy68itYX729XdsB+jX4OMAK7enkFgDxF18E1yfRfdgW7A5pMbAAket6xq8SrgMQApcoBiAag6qi5B/OkrSpLD+7oA6CaIwCQ0J5SVD0HG2YPUWZCWHqYVzbyDVzfXh4cAYJmAEjmtcPQAG82rS7dcmMSAEAJjPnEIzAgqU3/h8eLtwD44/2t5JfHp6fLU8vj//PbSvx0eZeZPv4N);lineShape=1;" vertex="1" parent="1">
                    <mxGeometry x="444.7690093409892" y="41.54965392921281" width="10.330675518880627" height="14.081635736583644" as="geometry"/>
                </mxCell>
                <mxCell id="54" value="" style="shape=stencil(rVjbbtswDP0avxKSSN2eu+4/CjRdgmVNkaa7/P3oBcosyj7BgL0lNo9NHpKHlCd+eN8/ve2m4N4v59PX3Y/D82U/8acphMPrfnc+XPTXxI8TP7yczrsv59PH6/P1/9vTbDn/+nb6Pj/h5xVXmaTMqOB+Xa94iu7Phc9X++PhdWFfIkXp7ANF3rbPieZ7C/tIHLftU6HY+1PIp237WMnl3v/QrqwCpFByPSCTK9sAvjlwi5gpAIpmj7kDsCNftwG+ko89IFMGpHpPqSdJYqNtnVXi3j5q2gFJ3Gqg2SdPHnFEvi8KTaOAAISq7+xzJB9A1VHqCSqOKmJUKPQ5K4kcKLvgqNQOUB2xh0k2faCdlEChcqLSN0JNuFA1pX1l10wJkBqFuK+7WmCWE7fCXwCSgGb2VLIFBECrpinxEAOSl2p7R1mKoDL0ebUv1RrbI9YByskAcKCWFLDyBuRSbQq3AARQSwrI3gIYJE4BlS0gAoB3jtwQREZR1yHq1B6xBTA9qgCkegoI2QIYVJ8mongLQCqjAB5iEPSGvPIGRjHkdnsBCChz2Y6rmSVEa1qpvoJcUp0pFpDuuDQUkwAlm4MeAAFMBwVksQA01GdVGd5wp0fzAIC01taRSwBuuTTkAQ0IBVitjHCz2uhR/Io6CE1FDaFCM/YoBsjYEIhXFcuhvuW/AkaWcpus6yPFt8QuhhZiKYe269wAmnyQhxSsHC9yuT6qeRBLLRcAEGkDYREEkgGOw2zPeGvVxJr9RCgBXv2orh4u0rq1Si8DupShdSPa5UFTyUA2fJtoi60S6dJQSanA0nN2c0iuFe/GVsz9EqppRyqmItbnWFdAh+K9zcvFuQGpnjJqMhAqlHqtothTqsc9BpTKcNxTJz3KsY6r3iUtE7SpJ5WHvnXw8S1Lk+kbq3D2FCHpQ1b9QCIcrD+uzdMtezMXsFToscK0mdojf9gukw4eM7TLnfUHDsJBiRyeCGJLyOHtQkb/0alnthdjj8bBrGp9V3rMv4wfSO7wYzYL34R1K1+mHjxeav/xg819e/3x9+vQy+F4vH5cWt63X5P00vVLFD/+Bg==);lineShape=1;" vertex="1" parent="1">
                    <mxGeometry x="457.6130984429942" y="40.86065732610837" width="7.177096055691416" height="16.53121746359523" as="geometry"/>
                </mxCell>
                <mxCell id="55" value="" style="shape=stencil(7VjLbhsxDPwaXwmR1POcpv8RIE5t1LUDx339fek6slfc7RQF0lN7W+9yLJEcDimt9O5l8/C8Xkl4OR0PH9dft4+nzUrfrUS2+836uD3Z00rvV3r3dDiuPxwPn/ePl9/PD2fL89Onw5fzP3y74FojbWeUhO+XN0op/Xzx/mK/2+4n9iVTk8GeDaC/BuRELQwASZQCAATKddxRpAy2lOyzDoCYKFYAYKplAKRCglYIlOIAyI0YrBAb1TwAqv2FwBXi6HRtJA0AMuUxDy0SozxkqqMPzTIDnM6VZExcszXBlnKhMoa1FYoRUuOValdAJc4AwFSCB1TAJYtSdFEyvoMtWR7CDFBAWKNQrR6AwqrJb4mDLQqckEoh+yVeCbwMYBL1gATiyol0BmCwJQ4LiUBFXWZsLVRBPSgTj1yqTA3kQdXnwQAB+KzNB8lKVMGWYu4q1AHFqIFkxqJaPACJQI4U2wyAxFgpqAcgZpiLzN5pVKI1Ums+rAJ8qKVX8BUgfc1lQCZ1idNeg8sAoZI8oIJMW8ty/cG8SkiXqu9AtzAsZ9qIMNK7JihkaVY/BghYZpxU2pYyKqDcu8EkSg1QQ2VGDSVGQhaoOYCQgLDaCnlW00iM1bjkyBdg4qJ6tlo9INVI4sl3rjgQJetAcV7TSPhMVNgDUEMppadp4rQAgKXJ6ZIBGqrpTCX7PKAuagC/JemEfxvA/+Hkrw0nzQP+ieGEfSLecjixenQuR3gEukZwOtuDwSEsKADaP3vlPp9OAI/YxycVyGw74I32dr6CM4AfAewApyjD0lk8OSIG4IBIn6OuNL0K+XIhsA+pdFIt20efYqYMPIhWBcXZo+EzqZevANuODRianD3KgOkpe3s0U9kgKeLtUUcInWA3ezQrWENwFLKxE8SnWb6ys29giDTx5+rij24ATBDc7CK4YsKshqV3rOUF/vBa5ff29nC7w3na7naXK6Dpd3/nY68u90V6/wM=);lineShape=1;" vertex="1" parent="1">
                    <mxGeometry x="468.69692955800656" y="47.75270422568656" width="0.4733492579073887" height="4.706156272299104" as="geometry"/>
                </mxCell>
                <mxCell id="56" value="" style="shape=stencil(lZbdUttADIWfxrdnpNX+XlN4D2YIjYc0YUKg5e3R1mOIlkSd3vnv88pHR8c7yc3L9v55MwV6OR0PT5vf88NpO8mPKYR5v90c55MeTXI7yc3j4bj5eTy87h+W8+f7/mQ/+nV462/4s3CNUEKnAr0vV2JCan+v3C3Abt6fAxmlGCAJWnWAhsoGyIKaXSCJAUoEeyUltGyAqis4QG2IFmiMFh1AVbIltYLE14FCyFYlJgLRdSITJNolGtiRKRGq7ZzqQE4jooBtI2oFO4BUkAVK84EMsrrmBhIHKGMjUkV1VIphXCGqW5zO6W1pFggITklaQK4G0CKzs0KuaMkCGSE53lARrZlU6OB8dG+TXUFbGfyBoGFG6V8zykPjCLFcB87c/OkNWoPh8hI6MBbQofJa3UdysGtbX3FZJh36YUg1GJySeqzYkr6i53KrBeXbjFYnBjQa6wBofHozmhCHoVZZHTN1QP4HkDima09Dx0whrm7+BBKyE0yc1rQ+i43ofHRBtW4tDHHaEMYwzrym7cXn1ar2AxKvKXLteWuLSODg1ZNsYgRfUc0TWz831xQcR4GYkZweBxmBBHEmRz0x/Bm0AY6garpBofHfpgdfO47HebdbNizn98cdil5adjdy+wE=);lineShape=1;" vertex="1" parent="1">
                    <mxGeometry x="468.7760281457188" y="44.18216135711555" width="0.5650837618513117" height="0.5668172497989667" as="geometry"/>
                </mxCell>
                <mxCell id="57" value="" style="shape=stencil(7VjJbhsxDP0aXwlJlETxnLb/ESBOYzSNAyfd/r6cGnJHlOcVufWQ2yx8Ekk9btrxzcvD7fN+l8LL6+n4Zf/jcPf6sOMPu5QOTw/70+HVnnb8ccc398fT/vPp+O3p7vz+fLtILk9fj9+XFX6ecTlT4AWVwq/zl0Al//nw6Sz/eHhayddAQQf5QjlsywuTjvIxUa7bgJYoyQgQ0rIN0ECpDQBTKYEdtFJNA4CZhLcBMZjRYUBk7m67voWSjDqVRBUZUajmAVAjtQTcVKmMfhU7OLCDZGplBDRqwAZTIIw22J4RALLZEAeARtK4DeBA2QEqMbDBmJAcQKFKMZAEDxCgUvNsNXkF4WAKjeuvuHIVUCaTlZoCH5EUL18BLxLxZHAE60eKbv0GiRqIxcsH4NApclSIgf4mXz0lKly/OP0LKWIE5UmewfoWto4QFkfgfPPE0EwZ2MvNKyQKAdksTh6AGJdTTyTrwBcYxzFOO6DAF4p5sgHt0HoQXlJL6Dy8DtBOyhVAGwS0kUctwjgzAI910AqRoB0axZHZjWECztWHZss4n9rv5AGodObYqbkGoOSiVMQDElCJhap4o1E+5UpJvVsVUIOLr2sGiIDeBqju4CLMeKZSnsjH2GhfORXmJHOrqAdEALAQDS6ALEQR+TJx9QDUJBn5yhTTjLJGozQZrQhwSVsrt1Yccc31F7Gf/RZgpgait9lQ3A4Mk715SYsHILa+GRAzqatvBfbb7x3Mewfzf3cwMU4OzZ1T1xViXzk19RFuKwG7lqc12F+UOFV/poxmneydJBWSVIovhLVBry51ctzBJmkFtG7i42wZIYEN7ULL1ZCKOphFpbHqWC1NwK0ifTq7TNqC3XrJDBeA1QTgpco9GV6yUYE1YTnpEaAwnZqFTj6TgHNmI0Zz8pCq3Gfqi0/h1YLJszsD2BOafBoPGZdAky8uvcPe3+x12TT2Bm7Ln671D5Bzc/Nl6RitL75JCL0p3mq9sjh5OBxNlxwBjzrJd5uhH8hWo/am67V/y9vD37u8+8Pj4/kqcP3f3/3Zp/O9IX/8DQ==);lineShape=1;" vertex="1" parent="1">
                    <mxGeometry x="474.915783986424" y="50.34499835921838" width="2.0118168903223865" height="5.124189327878085" as="geometry"/>
                </mxCell>
                <mxCell id="58" value="" style="shape=stencil(7VrbbhQ5EP2aebV8d/mZZf8DiUBGhASFsLv8PWVG9rSPu88s0j4gbd6GUKfbdT9V7lN48/X+3Ze7k7dfX56fPt39fX7/cn8Kf5y8Pz/e3z2fX/TXKbw9hTcfnp7vPj4/fXt8f/n3l3dNsv36/PRXe8I/F5w1OTWQt98vf4jG259/+PMi/nB+3IhH48ok7kwKx+LZlDyJW+PTsXg1xYO4JYdx3lQL8sLks3HzcbxJmchXE90kn4zEY3l9XJDZOqpvJYBkbJgB2VgGKN07Q4NggicAMTKbNDhTic7NB3EOCGciB4ATkjOWONkvVs22P+JIBwAUNatwKwGgcrOqX2eAFJoGmgdxTpsaTHEEENBxtZjKY6nMoVGrcexII5Y3gMSOpNGaEMDSRwHOI6AWAnBGKuQDz2hF5PVMzHManIuZMrOr6xVoA6DB5LrZB2Dk1BHALgBaBWzPyE1s0GBSgCDAkTLsR0YOQDbphtKCAMsAGt9z2ajWOOYHfd6stGjEMyuN4BxJ7Xt32QWEiJ7WOsMSIgiGaywmELPGYPIcfPrOSBJCn5ehfHuTidJJTwwZpD2PBF/yJs5vyL1j78uHXhiHCsYRG6m8n1VWJ5CEVnmo3aNHHslnlL9xfsHzsEqfImaCp2Gq8h4pA+u3aWkMvit0JA8RoQ7h8sWBfGT2VPmZsEVagPfkE7cPtKnU8/pQX5RPhCy0+JnPU2nb1Pj3c49qpI85TAkwODiaQN4QK1a6ECgrjIKtX+uGEJ+1KjHHUBqF5giQZqWz7wzoCACVLlf+BkGCVFK325FZoQ4J7wfquDIrLaGz9X1ARjYiI3b3ZxGLfEdG8O4DUicGmxbFiKrSUhh3lHdGUo1KRs5WePDJWt4L9YMIhnfSBCJK12XCU1eyCq/kBidIbVocIAUBjk2FFT0daidARwCYw/QNlhSBxhk9Ajwxa2OlDgGZBF9jymAlR1N0w5Q3CGGeG2R8ADyd3JoSc2xoYbL8DVkQwLqPAqAbKoDlaHN1RYAwgPR28G/fINhAY6CcTQEpLFbi8Q0jSfMDM6tgUjdP33hDRoAjdabpAGYde59DKy0ATwqTOg42GbdTzgPx1PhlOtRORLZlg4d3WQsTP1J1aNYbOtSKgPxrAM8XYstyRQHCAah06G3vPwKkPghu2AkbSUSrMZANzTgGWGaS4vrUsd9GCzaIIsaSnNbnQZPTdwbGHRIWAck9WA7JBoy30qvtPp1JmHEKoJOew9BoRyIJpMQVRp9GZ4in47pGK3QFFbPxs1mVEbG9RExIBZS4sjWDAiCBrgPs0ZGwani6UGpcGuqS7yPsoVlhYvV8ZLIYSy7ymdVhny60Y73O9K8z/W8+08OYJNz+DvuySyawOrQs8vREjL3EiIDA9/+NDcGlh9Id8oaQ+r510wQD214uLUon7sIWqqVPXcOqiZZ3v4RFDZQf/aZXEsuRXq8k9vb//78rCYdlRqkr64MaTKgDn7ivm8JNyrF1vpahAncYhbJCn7H150pLn1YBuO9VJsrIthecw7Tc0qtPwUt0ZVRsZ+XHJcpmYUo9vbBCz5eN2i+xQdy473VYK12gl09OcEqqdHXoFjaf+ZcJHr98SLQC1LWjswpTsF5o6Wcsez1MJuIOV+5C28hSi4TOzBZVHbuMA/GE3CISy6xjGt0pLG2/0GWTxVFZU4EUoLExuQYNC8plQZgpyRkE5epVxvItdtZEy4LF0Y8v4233ylWcrch+8Sulm+L64/pB1Ifzw8Ple6rt/+MHVPqny8dX4e0P);lineShape=1;" vertex="1" parent="1">
                    <mxGeometry x="483.1381872814254" y="45.36483537404615" width="14.11316659134254" height="5.8024967443963575" as="geometry"/>
                </mxCell>
                <mxCell id="59" value="" style="shape=stencil(lZfbbtswDIafJrcERZ2vu+49CjRdgmVNkWantx+9QK5F2X/QO8fhZ4mnX9TOP7wfnt72O+H36+X8ff/7+Hw97PyXncjx9bC/HK/6tPOPO//wcr7sv13OP1+fb7/fnibL6enH+df0hT83TqiWCRL+e3vBJPn/i68389PxdWHuHIXc2QeqvG2v3/e+s3dC4rYBzxRqDxQSvw0EJuc6QCLluA1Eppg6wAeKAEhMtQdCIC7bQNYV+i1FTzEAoFDqs5CEEnC6ROI+rLpmBSuUSr4Pq67p6jZQHaU+0SWQIEDslnRNBzKtK7jQAfqJgn2QPko1UgR5KLnldQZy82p9S5m8WSFRQU4XYh4A4IMCyQ8A8KHWlqaFD4zCWikFC6COU6CKBUICGsA8eJ0pg3LVJYqJa7nnhOlRBQT0qAJcLRDQlgpFtgDqUXWx5AEAYZrCPvgQUDGlFsQF4NGWkhVXBZxAwA2pLsiHZMVVAdRyCshQrh5vyejMVN8oSpnc0KMVZVprs1qgoFrSNMkAoChp8Q1AxUAcwuruNNCgZB6d06s9mlAx1XaALICKMqdCM7ScQ+paVxrCo2IqlJ0FIpKNzwJ6pFQD1DYQrQPaEL0Pi0ivE34ovwKLQ8/ZOHSEA/WqewpGBiIJ2lIZWkhaLrfCxH35TWc72lKxUjZ5hRKRbEfofBLRBCTNxRlw5EFYc2wn+TxjeSiWKbcxcp7i8NgX50F1MScmEKUwi+88iUbYQT7bTEtqWrU+fusKvTLpNI3E0lUrx05wQ1jV0DCDPHNTrfnzsFJ56LZWiBvmZgRlOFsNEslNPrbMszFHFcq2GhgqNtuLlfIgs7pVe29Dw7Zr7fphzuAwcHZwxhrnqA7mYDPSppqFOehcsecMQ+355I32rrk+fFyeX46n0+3uvfzfXrb11e2i7h//AQ==);lineShape=1;" vertex="1" parent="1">
                    <mxGeometry x="497.81229821982697" y="36.33052322068397" width="7.565084023743193" height="17.196751239473006" as="geometry"/>
                </mxCell>
                <mxCell id="60" value="" style="shape=stencil(lZfbchshDIafZm81QggQ12n6HpmJU3vq2hnHbZO3L66zzSK8fyd3GOsDndFO8e5l+/C8mYRfzqfj983v3eN5O8Uvk8jusN2cdue2muL9FO+ejqfNt9Px5+Hx+vv54SJ5Wf04/rqc8HrlglIKF0r47X2HYvy78fUqv98dlvJGKfbykWJaB8SIpQOkUJB1ICayXqOYycANmkisA7RQLetASqS1A1KlXNeB3BQoHVCYKrChVKqpA0wo8TpQKxl3QDVSDNTqAQMqNcAZ3XYEAUbRPJCAW2umkjxgIJeqUhlUqgYAmcO0BEDgKlMebDBggxnV7IEMbLBCJXoggsA1gIfAVQwEHVIDGN0AG4CAbqgUXOCaVSgOLfuDBxIo0Ra4qh5QBCTiEUAq5bnkF0BWmN5puOHdqrUCSkPgBORSYCYeijojI+qNZGKU3+Z75aXMMwAKRfVAwYHQ4oGK/Nqeg95NCz/cJtqLI8MVqOZutbICWlmrah6MUAQUkjEQwOpPA3kALBKDyCUl7oESSIGXVLyXMlMAQBTfBrQ1GlARInNJ/nupC64Inc9bzAKolak3oQ0bqM8MBRfmaWVN3B1PAWjTHpP+dCYDEQteeaYExGVO4Q/xCJyvJMGJo+C2ocqcOKMBZn70FuKohOcRcCGOPMP+lWUScHyQ8XyUmC1LVJ086rstL4P3DhorPj00/1e+LT4m9Kfdfn8d8Jf/+4m+bV2/BuL9Hw==);lineShape=1;" vertex="1" parent="1">
                    <mxGeometry x="519.1697891971558" y="39.997719822362114" width="1.7492817997223804" height="8.876592346895542" as="geometry"/>
                </mxCell>
                <mxCell id="61" value="" style="shape=stencil(rVfbbtswDP0avxKiqOtz1/1HgaaLsSwp0mxr/370DLsh2xxjwN4U51Di7RxKg9y97B+ed0MML5fz6fvu9/h42Q/yZYhxPO535/Giq0HuB7l7Op13386nn8fH+ffzw4ScVj9Ov6YdXme7QKlORjG8zR9ao5D+fvk64w/j8QofqTWDr33Z4VN8o54tPlHm23hOVJ0BU+7AoUjSjUGpJMAjYarJGjA14FKKlNgY5Eyl3TbIQlWMQWqUQVJLohatQaAIXKqZgj1Bo0JBt7wkcTHQyiOXeiK2Qfclz5/jO3Ew+EBcIF6Sw4cI8bk4fML7V4tnSgLx3carnb6BtwnFff0RX0gCxtuWUF7i/aslpvIy43xaf1gTigssVimYtzxi8Sd05FLzJVADQT3RPM/0SBRCo2J7tEIeKz5bLcpbAWSbooQ5oP7YHo2UcbxOJpgi7iGnEppP3NPRcyzg/VN3+Ih7rgbnf8D4Vl1+YD8oZyxeqIN4OazxvRe4bpDSDactEWpW5PoWZVxDKAM2KpyyN+j/1SCRuB4NULh00jgh0tGEJo3OsmiLMA1cUDadlq7MmWFf6zxujsd9uQPcmvjZEq0U6kApNMRms1SFIrpGxWVarAaqfqCV9F7kTmhCCZGB2M2PQgUkSfx87QGGzMS2CFNrAX/W3a7wDYh18G10xdYbBm6gTXID1CX4W900sCA+2iZSOY4gocEXoFeodmG5d694fMv8oF1KVaQVYZGeFR+39ncF5q143UuiQ/VVGbH+6MujAcr860tlG6+L92fR03g4zK+q6//9M0o/zU8wuf8D);lineShape=1;" vertex="1" parent="1">
                    <mxGeometry x="514.2070803750478" y="44.035657964212305" width="15.519244189220371" height="2.041818119462354" as="geometry"/>
                </mxCell>
                <mxCell id="62" value="" style="shape=stencil(7VrLchw3DPyavaL4AF9nx/kPV1mOtqJILll5/X3AbDgaNmd6y8dU+bYasWcIoAE0MXOJH749fvr6cAnu29vry68Pf14/vz1e4k+XEK7Pjw+v1zf7dYkfL/HDl5fXh19eX35//nz7++unvrL/+u3lj36Hv244LZJjRwX3939Xkmj998rPN8DT9XkP0AUQxTkC8FJ0BngJ5AmxSWwzwIkGAsgS/QSwWyQGCFLCDKjSyJZClVLxCd4TgHnJoQ0hE4ATP29JA42DT5LBrUkaiYP3EvMESI7aUNBJyZjRSKClzlHIfnjt2GSpM5FylUTu76WWaX1JEhNdPzuo2n4i20+eaVeLKCM2JkLz0pT5U+f7tySJ7McC5tMMKJIKpYTOEWhVPAF00jV8gmMhM4/PtG7KM82hU9v2zLNcdhAFlcDLi5/DULJksiVLkzy7NRvTSR5oG17fEqFIJcRLVhDnOFiVVRJpS6w6bylaHBigYuCMXZ5wLztxsw2+jnJwDPDIVqOjI1zKYSTj5iUpJG62HspFkMDvDyXYSSNR6/dPsD7z+7cC65V5NA6Hv68PhBS2Hsovr762HjqIo5Sw9Yu9rC1nFb/cn9mrEtFez/ZjhWHxDykttr549D9fXwOsZ1nc1y/8YQmg2G5MtZCy0v0JqmXonrN4gb2NdjNbjwlphYwTqMyEswxj/SkvDc2qN2uYOaGyMxmV2RMKckit3DOnLlIwbWXjuMcGZLWVSpaWpiECqJZAu36poyxsgDRa1iHAVAcQNVuDIsyuCSNtfgvE6NrG/XYAJdw2WdAc2sCkWmtI7g4g1dQAWhHAeqYByuIlRg0DoA2ZKuwOaAhIfEsroBJ6G6AugWM1shvtEcC6cndrRgDTkD1wBQGsahg16sIlpsoNAH2qk49Rw4TH8gTWGQwQIgIoNepidKaFrD/BI4AJtm5DRIDnGZeWqsGKcY/DkqKV1KUe6TWnOZfiktOsthoAhbPZwBMIJEn3Eq8abQmcsiOe20TOPtR3knolE0/qstKVJUQbVWWfELy4hiVHacp9L8AaRAIb2hiZnLWgEBDAvGRNzoHRliIk1KUsNmRayUpEsWEChwLcoM4mBbYUOVMnea4CKfIzkp3f4ZyX6aCqa/TZ6D534ocYHFQ5mnJ5ERshcoXlJc0JZLKSdUUD5LkFtTGmODPBzdzTUXd+nPMuP855/8NzHojtMBxw6n8Yuw5ZeRbfsAxeaFHxSAhfaQtMS5cNfK6YlsIYC536JV1G/nWMxI4BHrtBqtSrurYPA5Awa0DxYh0oEy+ZiXDO6+cyBlhKb/P0NBwyjvybXWHTVze6/G6+W9nEPKEQ3gmmE0GF7Hs/+h2zD6uL2VAINcJIxm19oIdhh9lcy5gon6wHPdiH/mQ/DnVL4ad50zlwAKvjyjErcDqdHU//wYAtEZSeRPxWzXepxmS/V5wuqFKV49s4Vm8APhayBg8d31QOG22Fii8J+vibFKQYMcoxD56cvVVoAZ/AVEh/W+cXG3h9KSDt2lBWx4CEW1JPFbNuryg3QKRDG23YeQzQ2BMaJr/eeffSxo53AFYjO6Ai4M67FzhoG+CeDeDWRIdnBoCM1u012lkcoN8agLVPA0D77K+gWOAqSkgDsCJmAKjCyl++aDmwgb40++7PBO4D7Mf7Vwlfrk9Pt48a9v/Hrxjs0u0LiPjxHw==);lineShape=1;" vertex="1" parent="1">
                    <mxGeometry x="537.9559153920375" y="35.12641338295998" width="12.284916454208838" height="12.165233986321622" as="geometry"/>
                </mxCell>
                <mxCell id="63" value="" style="shape=stencil(lVjZcloxDP0aXjW25PU5Tf8jMyGFKYUMIV3+vrplTK9l7gHe7qJja9exV/L0sXl5X6/YfZyOh+/rX9vX02YlX1bM2/1mfdye9Gklzyt5ejsc19+Oh8/96/n9/WWSnJ5+HH5OK/w+4wpTcBOK3Z/zF085/fvw9Sy/2+5n8vnyu8kHYlmWT464X79QBfLRU+FeHyEOy4DA5EsPqOTyMkDU4n4HTsR1GcBMNXQACRTLMsDr736HIJSBDYWcdPJRyEdgMznfySemCNZnSr2LNIoC1hdrcK4wBpkk9zGOVECQNaS+d1D15EDWsaPaZ1ENVEHMRNOuV6mqkgAQXPPgBVBaZSwlKrMFoLxLWjmxByTKDEstVWt08iCN2MZB3VqBDfrbm8Cp0cBL6sRiqjmSA6WgPrE7aOBA6ikgVgsoSCWtdh52AG5VQPCDDSBbFZDFAhjEQQF1AARQP945coNfM4rctS2gX0cjEnnsV+um1NLr3kAkCggwhjpRREaPyaQ7IKPHdFUbUOSy7dyTlzBAko1DQUYrYAgcKmoFhGgBAnqlAkzbUIAH2Tf1rb71TRWEi9qqFHCfKVTKQ4DaJvK9KlVKg1uh0XVQ6YZbaxs49wZOAeNUxAVUhoqDyVcpDjUN0/thADcTLwBVEnipiO0aVUhA4DI3KjWbih4RSm4az+au4EEtZu7WxoeWqIBhJ7P+fJ2e1MaBZzoVxBBrGyAzqxGN9iMB8i29FiiiodFTpNEGli8p5UP0ZxhYylbQTPT2mKFxRGGONlMjt9Z8fX1ujPnCuS+0fYlS5l4jEUoAMFHKvgGokvBk4ixD9BlmRRhajPdwqMdCyUQBDtDs7EGA4UGm+FZZTd5Bmq7yKVp5oI8SVkMZbsobgqvywD8qn63+6Fyl8tWuj1qLdjtz9nQUkD/F9i4HO9Ekn4w8GpuTvMm41soW9TcJB5vE5B8rH/GBJFt9EsqfBy8jbsvrw/+bj7ftbne+OJn/tzcl+ul8yyLPfwE=);lineShape=1;" vertex="1" parent="1">
                    <mxGeometry x="552.5453309440031" y="34.173634138397574" width="8.402374942622343" height="13.906979488161147" as="geometry"/>
                </mxCell>
                <mxCell id="64" value="" style="shape=stencil(7VlJblQxED1Nby3b5fKwZrhHJAJpERIUwnR76tPyp/3cfg0SGyR2PdSza558kBef7m4+3h6i//T89Pj+9uvxzfPdQV4eYjw+3N0+HZ/t00FeHeTF28en23dPj58f3py+f7zZKLdPHx6/bCd8O+G883UDRf/99EMILoWfv7w+0d8fH87ogxMd6NXVtCZXpyN5dEJOby7IyI3zjTAjLuWB3ruQCX3tsv2i935NH8VVPL9WQt9cLCBuJvSSXAygTSHalOpk5Ke6HNf0KbicRn1GV4jASVzzI6BwgHYD7RKbTYQCEgBaF2oFCKOHih3BWEquxAGQPHW6VFBLIi4yp/ZORzPE3PV2GWBqBTuY0ERLWlwY48bCsigBNBRa+5UX6XNAz7PAJJFm9HWkt8gshD46j5FWiMBGHxXoE4kco1c8n3mR0ZfyJ/TivCA/TD+CkW/yMv1blBTQZyAeZPQ5Ar0yfYoraF9/hT4BvRJ/m8+XXkiW/CO9Mv+ZMnvqDrW078h/7QZf+bOCPrVb5DJgryy7gpJTliSqa2Ois7zlWQhXDIHEY3gDjD6kmebejaURkHMv5yuhoV4W7XeuzADZvUZXmd9ZwRtZqlbSWCBUTKUt9mx8EVAEO5ymtEkopWeeHZCdEpZqQEsbIBNnrWYmRZZYtmih23UHWOdACn8z72+o1sYar+Z8RkAhWjKApAlAMqQBFFhqtPkyQPUIYDnbAOAaBmDOF/ze/u165WVhu6Ig4IpeK5g60O7FADkjoHIAxKgFBMszBghTBAWiJnOmWqYbmLtaCAvKUEh1MEBKCBAOkIh2qMz7DDBbmsuArXbrLdAKoLO78hughNa9ZKwAbcqVV0IOKsr1oNaZJe7eWHYbT0wNB4y6O/wSAMnV94Hg9wGs9ZxZMudj7f8m9OTebMzb1Drd0P4qwBgAoQutilaCoJ/c0gKrWQGd7yx7ruponK6orPBGHKtapbsI6wVg+LQ6ynqynHCsMsXRttiyO2SB1BvHVYsFvlEyzQI26cXR1NaTVdYmTs3D9gtRq/0to5a2GZwBCqp121Nc6Vxh2JDO5GpahRYrmGWIWs0OOnpfoSXr/7j6f1z9t8ZV5f4fMHFV2h9ZREIXGfjAoIoVZ7MAW2nFKeYb7S1S6xzvKs104k6lN5m7TgO/IeH22BKdkihIEUcSscREtJQEb7DMyPojA+isJSa09FXl2ZqhsBtiD6yz1SLbGiSPoRCUxo4UXC1uu0iiVpG+qjzbUhO72d9t9IxMk4vFIi54+xJhufUf+REqcBAMHqG714bHJ55LXRwNpnRyifgEUWklCzirhegam4HRViY920wHDJlNW5QfmegbCTFLdMB/6puJi/S+S3feSRDn8f054/x8wo+fOhWhD14e50yjZ424nxb90hvCBb0H+khH62nDYfRC5YVGyIKdtaN/+n54nd4+/HqsfHu8vz+9dZ7/j4+b9tPpYVRe/QA=);lineShape=1;" vertex="1" parent="1">
                    <mxGeometry x="558.6468687976753" y="38.451352883518666" width="13.19129648961351" height="6.661015895340088" as="geometry"/>
                </mxCell>
                <mxCell id="65" value="" style="shape=stencil(rVfZbhpBEPwaXkvT3XM+O85/WDIOKI6xMM7x95kNWmB6oSxLeVuWqe2rurpnZXdvm4fX9UrD22G/+77+tX08bFb2ZaW6fdms99tDf1rZ/crunnb79bf97v3l8fj79WE6OT392P2cvvD7iNOA2CaUhj/HNwE1/3vx9Xj+eftycT4KSh7OZyRyPgtiHM5LgcXbgKIwGQCaYOU2oCrKaMESYr0NaIJqAyAWSCCACh1dShXNbgMkBIQwIEpAZj51D8a0VoERQC1oo08toJAgSkRKI6BASRDJ5u+dKncO6yrCClL0JozlSaF1JFODEnJI96mMgELTJBl5DCInVLkNmPrBWYg0rxrRqgcI4as25OwBSmKwiCA+ho/qMPZ0ztRCDAsLnV5cBYL6wtVGLaTRQuldSCpt1dO1GDLhUm96G7u69CyRGEygwQMaiWFSurHSJc9adR0gaOkzFro0VlnEQLgk0Vd6yhJrIEXWRR0SBYijRkMj5Ost6gGdSyyGhOS4xNkqDcHRO838vV4H8zPog47TClEPYD1tOnPzApBJpS37fph0ifV0gyWfVjYWe8dVB2hU75eAcuqQ/wNIaRb305CrMx2vz6zgtbU0FJLWPuRCXbhERKBvG82JsdC0dm62UTVSmPX8etDFi0AvJROBWBFH8lmf7CRLvQ7RbUyGyujdY3A7WaJLX57Jf94EYMQjm3ed0x6ASD6/WCkrnenLUQIhvF6sYrzRAnSMNSIyfYSOWmRcKPzcVAS2g/mmF7qodtka6xpmKl33XWZBOJ8PLNbodZTvg7LYQ07Jvbl7feYu8vH5/nC++Dxtn5+P96bL//1Fqb86XrLs/i8=);lineShape=1;" vertex="1" parent="1">
                    <mxGeometry x="576.2922140703711" y="44.26683304439575" width="1.2981311602937677" height="3.0872304587732224" as="geometry"/>
                </mxCell>
                <mxCell id="66" value="" style="shape=stencil(lVfLctswDPwaXTEgwec5Tf8jM3FqT10747ivvy9UDR0RktbjmywvIAC7IMBBnj72L++7wfPH9XL+vvt9eL3uB/kyeH847XeXw1WfBnke5OntfNl9u5x/nl6n3+8vI3J8+nH+NXr4M9nlSrmMVp7/Tm8cxfT/xdcJfzycZvjiyBu8p+yBQSCunYFPJAUYJAqxM5BEjL5QKUhnEDIx+EKV5q8ZxEJVgEGikjuDzBQdMKgU+5AKUwnbBo6ZmHuL2gq3/olMuY+pBirIwJPvs64FUy0kfUizKFctsieX+k9UkrhtEKvlWtOKedsgRKqLrBF1olz3TNSbgteZ0JD6HIqGBAyYqrNUV5ACkySLRzRoyaPFM/RvxK0tHoH0mHyyeAYVZcp9PLlQAqJwlmLFe6BTv4inkEMMk/OP4atYvIBeDpTcIl/gP7azZ15PwFe0XTbyBfQWyQerBwfjX+oT8RVax97wDja9NG8zvAd61nGRLF5AfdwiftcqtoF3sogf9kv0tj4Z1JMX/rkxstWPC37v+I8W70G+t9Njps8M9Omat7n+0YFItVi8g/yWsMCDfFU/2eI9iD9QWMSPZvGj+HEBMoIO7chbTyDaqVdK20jWI8p2O9CZVAAFie0ZpFNPAAc6iFO/dFUdnGjW6+Q2czW1MqwblMX6EfEOpYPY7AaC95XYZDPbiJDwtCZGSeNJgbY0b3eD7Now2UrazBpdYGCVgl0mRu5B0mPEfbcJ5kHFXHu16npdkIHS1OfglBlQpRzI9zy4tg1v4sXgA2gfxQfrnzHeLCDcxL6VsIlfNzCMNzcibr2xjk82fj3xwTzI2V6I7izVeZkvo94vbZx+4j0Q9aggb/AB5VvtgqDzEtWzUuoHgoNt/OiN9D5eHz6vv2+H43G6Pc//t9dlfTVdteX5Hw==);lineShape=1;" vertex="1" parent="1">
                    <mxGeometry x="580.4396721667342" y="39.3477896457664" width="4.644649436452025" height="7.567624432442775" as="geometry"/>
                </mxCell>
                <mxCell id="67" value="" style="shape=stencil(lZbdUttADIWfxrdnpNX+XlN4D2YIjYc0YUKg5e3R1mOIlkSd3vnv88pHR8c7yc3L9v55MwV6OR0PT5vf88NpO8mPKYR5v90c55MeTXI7yc3j4bj5eTy87h+W8+f7/mQ/+nV462/4s3CNUEKnAr0vV2JCan+v3C3Abt6fAxmlGCAJWnWAhsoGyIKaXSCJAUoEeyUltGyAqis4QG2IFmiMFh1AVbIltYLE14FCyFYlJgLRdSITJNolGtiRKRGq7ZzqQE4jooBtI2oFO4BUkAVK84EMsrrmBhIHKGMjUkV1VIphXCGqW5zO6W1pFggITklaQK4G0CKzs0KuaMkCGSE53lARrZlU6OB8dG+TXUFbGfyBoGFG6V8zykPjCLFcB87c/OkNWoPh8hI6MBbQofJa3UdysGtbX3FZJh36YUg1GJySeqzYkr6i53KrBeXbjFYnBjQa6wBofHozmhCHoVZZHTN1QP4HkDima09Dx0whrm7+BBKyE0yc1rQ+i43ofHRBtW4tDHHaEMYwzrym7cXn1ar2AxKvKXLteWuLSODg1ZNsYgRfUc0TWz831xQcR4GYkZweBxmBBHEmRz0x/Bm0AY6garpBofHfpgdfO47HebdbNizn98cdil5adjdy+wE=);lineShape=1;" vertex="1" parent="1">
                    <mxGeometry x="582.0344551120111" y="32.9641808115573" width="0.5650837618513117" height="0.5668172497989667" as="geometry"/>
                </mxCell>
                <mxCell id="68" value="" style="shape=stencil(lVfbchoxDP0aXjW2fNVzmv5HZkIKUwoZQm9/X20Zw1rePUzell0dbB1JR9ImPH3sXt63G3Yfl/Pp+/b3/vWy24QvG+b9cbc97y/6tAnPm/D0djpvv51PP4+v19/vL5Pl9PTj9Gv6hz9XXCBXJxC7v9cXjlz6/+Lr1fywP87MvaPkO3tPvqzbT597+0QhAHuhGDt7fcHr9kEomPtEEr8OSK7dtwH0ihXcKHuKoQcIiVsHFE8iHSBUioCjqie4DhALeXBCVU5ST2qiUtcBkoi5A+RAEgGgUupZUq+ioLzQvOmdKJUYOCFCpY90jeRAIPROPvcAIQd4Va9LHzkJMBD62fggGdPkbOTUK1Q+yom90kNANvWgbwBLCqgDgBFAK8j4UKgClhQgxQIyKLnqWnLOADHDgshpAIA4VKY4nJDQCYG8DE6jkgtUvKXVA1oVYFnSmnoAyBYgIDUUkM0JGkrEkjodLSAjYVJavQVUoAIaOCMbM11YzY3hCHmQfUPJVZB9CuBkAQnQNFXQcCUP1HWxRgvyQT8nCwggXdUH3+u3pqugK8mgM1qjAKBxSIMKIMHXUIc8AFB+M7G3gIRkg5uLM0BBgNBqfkarwwDhIQ7I6U8DtIRNHHLrYssdRaXPCBNDFZBb07x1Rc0udEKyLE1e4eGh9ido/kbU2WPrsrPhAU1M6jT3BZQjJZStiXKfrSm3N8v1UGxHiZoaQARybWPqbYgTmK1J+0dPa/Cws8dsle8+iy+PusnOlT4Tg+TjbGnV6V1AifpqZ+MCJ7JqW1xow/jy31PuGeI2la6Ym27FbZVYNHe2cDwc3VxrlXfzAlx1bSC/m6NJchiGPZyFXcvF+xKG4uSskjrYxgdpd1CoXduf7uYMiByWFwd3F9/UbLZvgiRgSmzNwb9/cpt9aK4P98X5bX84XPfu+Xe7aOur65Ienv8B);lineShape=1;" vertex="1" parent="1">
                    <mxGeometry x="588.2025743184461" y="34.1722409715926" width="5.388898728942263" height="11.2402078456298" as="geometry"/>
                </mxCell>
                <mxCell id="69" value="" style="shape=stencil(lZjJctswDIafxlcMSHA9p+l7ZCZO42lqZxyny9sXqktFBKU/45ss4xOxE+RO7t6eH173O89vl/Pp+/7X4fHyvJMvO+8Px+f9+XDRp53c7+Tu6XTefzuf3o+P19+vD5Pk9PTj9HP6wu8r5yi4CfL85/qCifO/F1+v4i+H40I8EqdO3JEP2+JOiGsnHyjUbfnp79LJV0pAHRHyRp9ALNtAECoG0BUKMDiS9IBPFOI2kBLl3mRVsgKVcibf2xxc+8QqUBKJ9EClCqJQhVy/QizQSzVT9h2QIlUPgEqlXyFrZMAKjjXPuCcqtLoWirEDSqSIrE7EJpeYArJa3dRHrmo6MgCYfG+DOk4AUDKlPnLqOAdUUhNNMi0ct04IpWR1KmgJrQhnAVQRRSssWiCCIlXA5OsEOAikYAHUNhSoA4ByQ/1qQz2HZguQAcgJAmEAUAmtAKU1z02ALeBBZ1LAOwsIjnRNFggY+N+tF0BERgfbXT8HeFghoDhIy/6l0chLsmKDR9mqwBAH/mSFoR4KcqtQHiou45q2gctNyS23+rFEcRzirSVaxhLF9eD8AOB6GNtMRoGLLXOWccA1HcdI464RggU8isPNgFacSY2Ks1WHB29XgN27tD43Awl6qbqhewc4U9Zx6OPWnrd29to3sslvwOip5HuVdNgoaGcvbaxdzDOCbEhtH58npoRtcLbN6EyGbJiacZ98kSGQ55FtHhN9i/365DqktwRYojHYEvUZRloVMEbrcUPAPi2eXK+SzvcZqOTnMH0MTHCGc75V8OxW8sgEcn1izBquirNtMUwVbA1sjwIMNwa2yjBlKM5WHB2uhgmd2wS+JW5PkmjaZruRayaAbGY7sDHsi9z2+A9xB78erWfQDs52P55t3xCvNqpohHf2VKHiIOVvPMF/Kq4PH5cFT4eXl+tdw/J/e7mgr64XE3L/Fw==);lineShape=1;" vertex="1" parent="1">
                    <mxGeometry x="594.6754663447553" y="28.99542866031834" width="13.54990683607018" height="24.95031411602693" as="geometry"/>
                </mxCell>
                <mxCell id="70" value="" style="shape=stencil(lVjZctswDPwav2JIghee0/Q/MhOn9tSNM47T4+8LVaUjgvJ6/JbIWJE4dgFoww/vu6e37Sa49/Pp+H37a/983m34yyaE/etue9qf9a8NP2744eV42n47HT9en+f/354my+mvH8ef0xt+zziJ5PKECu7P/MST8/8efJ3tD/vXhX0tVFNnHygysPdUQ2efKNTr9qWQ6+0reQfsPXF/Hx+aR6uAHKlyDyjtFauAVEj6CAVuT9YBjnLtAOwpgxhFptBfKTry4AROVHwPEArlOkCDGF2fBX0iAOBJ+hOyRgn44HMrmwYoiVIEAK2zPko1UEGZJtcnulbKwOdI3L9fmCKobKbUh0gyvE+kLL29hjRAh0OwgAIc0Lp0bAEe5ECvJMG6IIBsHNv7LgBNGqpUDWq2Qa3Ah6RsM1ENFO6ipziqIG1FL9DnoQpFUHiVreJpIXngg5SmWBdAbiJ1DVB7LtQEFUPzyjIAgA8K+P/zEgAyLdJqc+kDclqoDE4HQAcFSLEARk5Lu/ECkFBYZQhrbkp71enhShWf4JwFCCi+ifJpACCnS6PLEgC6jwI4Dj4A5ZY88EF1DAPSAMjoSnnFadRMphOGsDLKg954cPoGRf1Y3jisuZeZiUDoBNWIeyla8l0nXFr40gd0gtg5Y4rSDcbxkAdQ3t65FUJE7MRYfWj2mZwYTkBdUQF+JDVWgfsAVTu70RnBM6g2TTNqODhS5myFSXyr+PU2qgzqKad91wPKRRXr3ge5dOL1USDbTAsmdRg4qpwSAPCqlSZKWvF4QmQzqX/W43qYKIg9oQJC+La6LCcyUKwDGzRGGXjg7BCtWQugLnjgQoVsG0UsUEJ81p97TdLShVN9tYWqa8CtEbQ/QRcNtJlwsKqnqwxSPZbWzS7blcAeHUuL+WIdQ4OJzqypD+uUGOBD9m3gXKyUaInWIJrRR2sdnaBDbukro8DCK7oa9f0wto1xXfKSXZZ8GwrWNdVbPXKwLNTelIXD7Tm0VW1hj+awYNsOFgrlIQ/3QQMJ2zXGte113V4Xq2rjgzpztNroIGtkWD5d2yCu2Rf7fjhqRzu8OMr4/kaJHJ45o114HJ6z7/xKddte//j8JPayPxzmL2rL3+0nNH00f37jx78=);lineShape=1;" vertex="1" parent="1">
                    <mxGeometry x="369.1964458562629" y="80.74761606497805" width="5.331137892449461" height="18.568321666902467" as="geometry"/>
                </mxCell>
                <mxCell id="71" value="" style="shape=stencil(7ZzJkt3GEUW/preImoe1LP+HIkSZDNOkgqJs6++V5Q68frgJHJg7LbhrduOyUFU53szES/7ht/c//fruJYXfvn75/M93//nw89f3L/lvLyl9+PT+3ZcPX+2nl/zjS/7hl89f3v3jy+ffP/38+u9ff1pPrp/+9fnf63/47ysubKktUAp/vP6i9i3E//3m76/Pf/zw6en5tLV8fL5tpV4/37Zcj8/XrZXr5+dW4vH5so1+/XzMWxxHQN5GBkDfquzA9hRgx2lL5QiIW4Qt2J7n8UyL7QoAOeohFXtJ2HSuWwpHQN067CEPPdaSt96uASVsMx0BcRsESFs/3kOeDChbOO4h963Dpg3Qjsdqx0AXZ4B5vOmct8QrjONN57B1UAYD1OMrpY7CZ4B43HQqfA95K8djTXGrie/huOk4tjQBELd5FI1Yt0h7iFs4vlJMW2BZEhszt0jSPVVDG2vD2M/8IatbJnUbW5zHM90qPd+3dtSFyOrc3BXsknv1fCzyPpO1v4hN3YXk/HmnOBPVwLRkyH7LlsDG58f7PjYQ7gBBdmxehwBmcY+vZJvKINWmuOn4Sst+AWA5nqNUm9HOoAZpbP34Sjee0ACiNy3tRvYc0LdylNM20Mp7x9Pz1kAylmIJwOwXryC+cMTdjF8BxMoPs8F0rHV39w9A2c3HJaAooNArGSAqgEyqAXpVQKMYyfzSdAC6h6pRlQE6v5Jc3D2g+FcifTBAcgC+uOwujszqArhNF95DDgog12aA5DYdSUXPVsBo2FYQWUq7OF4eqwDCnSz1o3ibipI3WSp6XKHbHujizF2JmZnbpFMyu3S86VZ50xaBHGWpWdBB+jDVatSxxwRXgCEAjg3NP2gWkNHMmAeSPVgWUMnrPvzNAxBwD+YUqwNQnmF+WqTVABiY5P3Un/ZQKBJw8a2dEpl7C02CAB5B+BVAV+hbomNtGjrUiQmiAcpxBXO7eHFtG0dzb+KNp9SdeA80ZAaQm+5xNwtXgCkAC39ohaEq2h+xwVXMHY576HMPua4A7ShLy5DBsRancRY6VDAz5aFfTwDMxpLmAQaInIJKkNhZlizLlsjYjDGF6pbHS2bfKzrFMjSa6Y/E+hSwbIRElWa9QUVN5SUbaw2NcU2q062gaNRHOvVk7ikyNkAXQzbRZa0VxGo0JBsMEMXcV17BhE94qIw6XR9MwROtRCmNpReSJdqagWRp7IHC/+lQTPhKdgBSoLZnbc+vRHuomrmug4ZTWhrnjrWTPmTHB7Y9jbo0Ak6WKBc1QBFpzeh2DZAlXnoQBFeA5nQ60x7yzo88mRky9wYQ/2BhKDJdVb3oYNp3icbR8s0b29rVes/C0jo1xZ9t39WlxgmtMTD8qe6mDUDW22KXMN0KZAQs6Oy6B3IoK9gpekqZrPdQmnUGzNhbUBUdDf202eokXjRhxm7hlPAaK0OBi2uOoux557PPAVmthgVYJBoGEP9gIRzFGi1rltUycpQL4MgciowNIHbJDppEozkWzgCd7iHvLvAJQDmQAYT5XX6aj1V4vsZxa3tknk+ADFZjRRbulYjLXYDxjSskH5yATreiWZYBKh1r0Zhv3QOfUnZ7IKfYHgTXsyzRxXlAwvDHAFX2UDDAakXTAXOKqHGu1tIDMlimwUF4jYyppQHEZVkOdLOCJk1jp0auAOKBLH9AQDtZAS+uuwyl7xpyDhhKqnV2u5YtSNxquSiFDvZnWcFeko7VrknKLW9afg6oDhDQodiZaNzaMcW3axIft2gKkNbFcrui8YBNm89sjmqhTQ9XGbSAaMAeRt0N4xOAGCzz+0LQFq4DWUgop1RYvA0gReOb/GEMJZntWMmxG8DzfJUA0xFSY6f/rwDJOXaK7g2gbGhDaTWAlBNvLJ8B1MyUPc68Agj12LkGbDGkpgMRaygGkFMaeS+SXAGkBmnyS8K30ouqAArWZ9SocjTM42bSFH88uMVzQNabHhVvehYlQgaX1md1pFpB6nGlF668Rg0Is2sIZwB8JZNWuYe0+9UrgFbLbgFawEtIARtAzMxIWAxegK6ACqYyhuDKlglDsnPEJGmaWqxdN8HnNH0plYRjagZhAOId1tU5AMXGSziyA5DdmE4jMjIb01nX8QgnLgFuD+FmBV/CuwE48aPK6Mke0l6TuDwll4LfnFJzr0Q5+8lNpz3HvpQld0pEq03ng9YeGKD6kDDPWgC3AjEb5zpKOfhawrk5anU6MU3c7rCOqSrg5pi6MxuUg387YCgRNx5J9pUTmq4/gkoQ07dsVOzwmsU1VDR2EdnVjtpOdlwGA44QJR5hPriVJwAea9Ay+3olchCusmOnRKWgFSc6aaWQaXg7E7FAYIDs8tfMKwjbYqErxYkGkDTIgmOM18d+iE/hNyYpw1F9iV9p7N1BTxUFovoMoOloxUYvkxxtFchYJRyuM6xGFO/F7rtSEPE5K1lsCiAizmSzOACp6HC82noluofkskvuOzVhTu5YKYjr0xX9uLGlP9q0n7JLKkG8VX+fyUTwDz3rCq3gTffoxHsgqWv6JYlWv+EGhxoy21UmTqqftDBRM0Jr2gPYJ/P9ba+cPgxZYEDVGt7qXmBSV1srJ1ZrPSHa2y1H67J8Eu/muxcCSmtz5axVuKRSUNYG+nUMDJAODPsNpdTfqyI74HtV5ATw16uK6B4SRsYnx5qxqbwV12tTcT5k1SFFNCZXa7OrimQWb9drYzEfWr7ogvXE9eDgmpk7MtkWf0Wp/LPwrXKAACq3MFWNyCY3xteiLRsr6+eeJwmln9LTc4Q7JluCaK8yNGdfm6Amj66Fl1mRbCnVdSNEvOo1MCWOumPAVLIjaXlabzXbuIoZdty51jCLf0ghStToZLlReqXo3ChTg6vDSKL1wX2JSamQWnkPea8tPcXS+ErlpLRDpq+4oaYaMBTw3WprapI6jIYS/mVye5tjmG4arFf1yk1+Eum1srCkx4rdm0lZBDMkVM+q2dWzuKhds46KvlnPyxVchEVWo7o6yop9+VibVyBaIWg3gkW62HE31ZD1jIS/CZ9ajYYBU2mu6elGRYsjgQOPiiYlNgYHG6tf2gGI2ChhT9ueeWkaqptuPCZiQSEPFztMvOnV6O56yShgyo4J6TybZQC9uIhJ0JrmlCiRp/AMkEWBKg4256pWY/mHm6EJeaWAGfgayxAj0NEurcEPX2fnSRFdISObk/PJGD6OZWRlBs2OkHjn5CwfJ3I5ugZrrnHkoJnfzbcHsv/aQsOuED+VWrlldU2lijHmXuPkCsKtoZkxgFiNHnhA041Dd+5xXRNsotMdOa9UXZmGSePk5jhWIYgHA79PpabvU6kXgL/eVKpY71W2/KYh0xGwiLLGuiUi4xwouSm8RTuw1ZCU5obHTm7gYNV1aNNuKrU2bFRJQ01leVSrrqy3lF4tRmvsUMQDZR61ylG96LK2NOeX9NsRcWLi54dMY0ZWbb2xKBC2U2T3lRYuHmfXI5XQha75z+PzYU80rwJEUU+mZfxsJucmFhNLyhc52JsaM2QO3VyzU+MZLje4NlBGS9RyaLyZ4/RMF+eHxTUMx47eeY0/yWd4+AtNpegArgkdsXVrXkq+cNLR7xhAqOKl27yC0B85M5tRNR5e35GhFYp6trf07OpYhQlYssIZqPYwc1i1XkA+fFXuUiUJPgvTH2Ygxe+8jVFeuRHxbGuonqKkpOnemoEEAxm7SzMyftHBDK72E9z017ikoXK99WTGkjKrpIFk7UhaBXdCA1OM4PZ797zYi/U8vH/QBqc6cKY0qPLXjtXl4JotOnJDQSdbVnYOxsW1sd2ev///ydqdvT+1H56dD83zBTeMzUMt/n47Usnf+k3D++fth7cPKP7y4ePH1+8vPv9dP7hov3r9WGP+8U8=);lineShape=1;" vertex="1" parent="1">
                    <mxGeometry x="367.39895161890763" y="79.32623589145146" width="36.542439808086854" height="17.91764019182954" as="geometry"/>
                </mxCell>
                <mxCell id="72" value="" style="shape=stencil(lVnbbhw3DP2afSUkkbo9u8l/GIhTL+rahuO0yd+XwkLyiJo5UwN+WO/OGfHOQ+rCdz8e718fLsH9eH97+evh3+u398cL/3EJ4fr8+PB2fddPF/5y4bvvL28Pf769/Hz+dvv/9b492T79/fJPe8OvGy4zRWmo4H7fvklC7V/9+3oDPF2fN4BUSfIM8OQFACJJmgCxUHUAEIh5BmSK8Rig75NZh5jIIYCQMycIZaC0VPJxBjBlcIIwVbaA4I8BXIhlASQACJSdBSCzhkx+dlyMUKTgqSx+EGAlnyiFOTQccQWAQM7PANUBKF0ozDqnQp6BoynMRs0B+pnJl/l51bgAE5Gb318CBRAWvms3nk+UgYG4a9efrw7KPxw6nheYCKXn1XheXQhyWR1W6gzQuEUhoR6bg65WcihKhVKxJ0QgEmuUJqsDSk2uFI1IDJ0sWn1mL5RCCZWX2N+3CQsGYa0VL81+ywJ10LAv8wlJK14+BmS2kaclMoLI08DPs9KCzVochVkkTlSBWYunNJ+gFaqA0FBAnbPNV+gHBRjHafxCgLPNMGOraluY04F7Yzkyqglu3wvg/vOxV5NhImIgv3qZZ3kiRZCd2duC7R0JigrXs30A1MkA0NjCLJEmOKp4CjAFg5WhoNypVGafidZ4UDBUadv8fc+mfUDogb9pa4LcoDVsVjqNMrgPSDbZ9BUVBVLpmTIqjHoGnKCp4GbHFaGIkk1bj2lV2gqBSCVaElYqJJJaRL1pVg5mg/6cxAKQSNo5jFlVpAIc13pT+SRAvAUgEqYAw9rOlB7v2wA8yAfvXG+wGwSDhGhHFAuIyK51abmuq3UESAuPKVgkXgAVAUovQ1sASGoFrMGEqOcH0dnqACqZAtxqJXRCXsiVRjwya7YEvSUESLkGWDwdsFndYiXUERUQZh1aQuAT0pJBBfvBcuh6GkvrCSg06o5IFSm9tKCWoydJvfoBiLSf1IJlqkt1RdS+VaY1vnFSy5pBWOu14J/Y9XOAj1gbAA83B9rT3KI0Cldti2WNPtTlvK1kBbPcxikNQBkToifJJnWjsYhtDAY22EYkh1jfIFQbPiOIt7ou8YYxnZA4Z/YrHlbjlHtf3rI+oLQCwuw4ZjhXKsDsuRpzBV2xcTxD7hOsM2kZRJV9B+QH39n/B7336Hmda+ei4eH2QMOgzPnm4KyuoWq6A173aC74OdsCrNw6NZvh4WSiZDt3t3kPJSfbjtsmSlRgNGbmE0KGPm77oFllzt0IRzZNJrBVaTRsRNt8dLJHDbQlp1m6pV7J9+NU+mixqRdocRizrdtqBjTOSLV7wDII4D7A2fmnCmyg67a0jln8aA9laIZ2I9RKfLZ+2DTtfYTvFWtzBKL2IxA2OgRgJbblogocEr3dZjQGAGy0cJK2zcTPG24YYC54uwrIGW5XVV+zvQ2wHqU+PY5EyH1wP2Bhdr2SxpH7gLis3Cs8QU1kqKcmc0I7+rS0BIGrBk0EY9QY4BjTLia8BQTgNZEdgEf71Wp7ecS9PEbL2iJDTtWsbmok7pzqVzOwqh8y8ENKltHHAm/FtJebxpBOVm/RelqFRAUpL1vophXihdHeBiig4PXkCjjpVbahS9+4HCqdLQC1nhxtDUsjHI/IcF1OEER6xM5JDYC3geb+M41vjgCrDvAEtmPPmQ68owO6xvn0LfH/AOiHj0vp79enp9ud9vZ3e4mtX90uwPnLfw==);lineShape=1;" vertex="1" parent="1">
                    <mxGeometry x="376.00803459908957" y="101.0110786517514" width="9.547450384326734" height="18.163091328145036" as="geometry"/>
                </mxCell>
                <mxCell id="73" value="" style="shape=stencil(lVjLctswDPwaXzEkSILkOU3/IzNxak/dOOO4r78vVA9lEZQ2k5uj7FIksAuA2oWH98PT237H7v16OX/f/z4+Xw+78GXHfHw97C/Hq/7ahcddeHg5X/bfLuefr8+3v9+eJuT068f517TCnxtPHLFMLHZ/b0+YQv7/4OsNfzq+LvApkvR4T4W38bFSZLM+R4BPxNngawV4R853+Ege7CdE4n4/Qg6clwv50OEruQTwGr5+fR+IwzbBC6XYEwoJInji/sSsMXPbBKHqOnxgnDJy/Ybi/Mb1kJLrI5Rcy+EGvvTrp0oJrC8Ue7wUigUEyJH0KchCgggqgdoRiu4RiE6TLIZQqaAjuybKWUWRAkhyKE1lMyE3o275phiCRgkINQUK1RIcOLRWimycIPANMlpHwwoSnRNJr+zqKIItaZp8L40iFMAbdD3fV6/iSYB3NOomSjk3g28RcrYEDxKnUedgCagiKSH7TxEq+TJsCSROCWk4Q0BRqlZ8SkCWVkIdwppRlJRgzqBqRXmoTWoLAjLQdGhnCRETTNVQAtRSGeqSPsGZNvKeCKB5qvhk2FLChBAsIaBD55VDe/wGZ8KaqYBiXGcxLwiCHcejRUHVmKI0OA41uKkwDltCpVIJafCD+0BLw5Y8NlAc3oDmKiWMdSmCDjQ5ToY8ALV651ZSXfErymBqj+JaVxwUcWH6JIFb3ZobBLemtN6CUquMMyG3iXe9yWllNKOAb411vY1q5kyjTrB8i7dhVcVXoA0dBcxMP8UNDd3JGmKR/PV5RtqtYjFtJDRi5TaBLU4dQSJYW3ufCG326BA6l9vMRThtaIcyWsIeDa19LOZWlGhnO9Y0F4NKOdhN526PDDrM9Y4qUGqwBUDvDQHIqNgU600CNR9NQOkD6jXpQES+thlhJjAs3HoxqiZlrQqun5ibxO6XyYTwpd0r7pdVVF3icPn00MmxNN82vMMzfbJXQ+xKHelLNvgEFKGVhYvFA4UqXuz+M9qPH89bQNsUboK/xxNdzhVvRgUPb6oyXuZhhZjWTwafUTyZXDF45Ejx1jHcit4WPlaDR0OC4k0NxY4XZ+dNxSM9fPJj08d4/XH/svVyPJ1uH8aW/7dfwvTR7StaePwH);lineShape=1;" vertex="1" parent="1">
                    <mxGeometry x="388.3171319886544" y="107.78087853509919" width="6.225638185085054" height="11.63013632001379" as="geometry"/>
                </mxCell>
                <mxCell id="74" value="" style="shape=stencil(zVjLctswDPwaXzEkwQd4TtP/yEyc2lPXzjju6+8LjUaNCdorqdNDbrLMFUE8Fgtu+OFt9/S63QT3djmfvm5/7p8vuw1/2oSwP+625/1Fnzb8uOGHl9N5++V8+n58Hn+/Pg0rh6dvpx/DF36NuFopy4AK7vf4xlMZX3we1x/2x+v1hSq365k8AmTKpQGETJwBIFFJDYAT1QIBrjaAmKmiHSJl3wCSUMGAkBtAcRQxwLU7iJ8+cRvAJKEBVEceHTqStHFQR3t/H+CdI+dahFAACP07JQvIEbupDbVml0v3AVIoBguIwKQiFJ0F5HofkAsVtoDq7gNSJteadOW4m4jIU3YuRXC44SdklNZkqmuO7QOlbgfk2HTDTShynuKq1Fibe56kXS+VCigH5aDYFmglZhA08u33NVFQfWq1tfUc1Z/AnkTcZlHQ7wN7CuWWYJQkC/JPpMgWEEDA9ASGt9VGASnEMiXAFSCjIwdbzAMggNrMlKIFFOQk6c6QYaGJJlm1gAgASsM5WoCg7ha7Qxe8g7OkqgBU+6JuNSYJMSg1bU01WEAGqZE0NTuAgMDFMHXLhYCgZNIBkEm+dF7Ch66dk7BXEyWx61HY/kqWhXnhVUUFC0AbKOM5sQDYRHgioIXVE4ttInP16W1jm2GA0gmxGY6RPgyYxWogThaAeHKQel2gERGvByTyRn3i1qCAuqr3qLAToz5xcxt666ru+VG1YSdJ5rSht4D/rg3N7LNAG8oqxL9ow7xKEg/aUNY49qNpwzQNRgsnnzzNpwtHK63PtqBnZjf1j9GeeDhUbdh+f2b6VOVmtCceb+NEoQvnZ57IZOGAHsiZeQffADirhfENg5+o6n05g2zLdtJW+YOSM9hB201t8V55FTHrGdevia6bRo3bwepuCjA/pC478XoluWzPi+xRFg12PTqv0rS39iB/qsLu7EfxGrjAcC5Mh9X3WbPr9eH98uxlfziMd2/X/9vLNn01XtTx4x8=);lineShape=1;" vertex="1" parent="1">
                    <mxGeometry x="396.64554091185005" y="111.25165304754773" width="0.21563432517553416" height="5.975073708081782" as="geometry"/>
                </mxCell>
                <mxCell id="75" value="" style="shape=stencil(lZbdUttADIWfxrdnpNX+XlN4D2YIjYc0YUKg5e3R1mOIlkSd3vnv88pHR8c7yc3L9v55MwV6OR0PT5vf88NpO8mPKYR5v90c55MeTXI7yc3j4bj5eTy87h+W8+f7/mQ/+nV462/4s3CNUEKnAr0vV2JCan+v3C3Abt6fAxmlGCAJWnWAhsoGyIKaXSCJAUoEeyUltGyAqis4QG2IFmiMFh1AVbIltYLE14FCyFYlJgLRdSITJNolGtiRKRGq7ZzqQE4jooBtI2oFO4BUkAVK84EMsrrmBhIHKGMjUkV1VIphXCGqW5zO6W1pFggITklaQK4G0CKzs0KuaMkCGSE53lARrZlU6OB8dG+TXUFbGfyBoGFG6V8zykPjCLFcB87c/OkNWoPh8hI6MBbQofJa3UdysGtbX3FZJh36YUg1GJySeqzYkr6i53KrBeXbjFYnBjQa6wBofHozmhCHoVZZHTN1QP4HkDima09Dx0whrm7+BBKyE0yc1rQ+i43ofHRBtW4tDHHaEMYwzrym7cXn1ar2AxKvKXLteWuLSODg1ZNsYgRfUc0TWz831xQcR4GYkZweBxmBBHEmRz0x/Bm0AY6garpBofHfpgdfO47HebdbNizn98cdil5adjdy+wE=);lineShape=1;" vertex="1" parent="1">
                    <mxGeometry x="396.3614203151308" y="106.29920079258636" width="0.47002294210062384" height="0.4714648152533462" as="geometry"/>
                </mxCell>
                <mxCell id="76" value="" style="shape=stencil(lVfLbhsxDPyavRKUqOc5Tf8jQJzaqBsHjvv6+3K7UGxRu9P6tpY5ksgZjqRJHt73T2+7yfP75Xz6uvt5eL7sJ/k0eX943e/Oh4t+TfI4ycPL6bz7cj59f31efr89zZHz17fTj3mGXwsuUvIzyPPvZYCJ09+Bz0v48fB6E+4qxdrFO0qyHS+RXB+fSMp2fBj245hS3AbERNVsKFGo24BUKJQO4KVNsQrIhUoPEE/VbwNKptRvKQi5vA2owQKiUAJVqrol7qsayIEqOVZae0QOxCDreYnYAYqQMACktoMGqEwZSKNqUXqqdQoPksiZogFk8qCuypwrdgWk1lzbBm4ADlHNVq41UgZlLZ5csgBEtVY9810rROIhaZjDSByukgKKG3gApqGAWiygYkAKPaBAF9CkiwFUqKUS2nw3gAzkrTx4tgCYg7Mr3DThlpgsEbVVetOZkgUEQLV2UHW2rgUkoYAwADzIYQWgXYsBdksqL9SjgzHNtgFcYC6r0UZsjr7J3ABIqOVGbURofSvqi/AMmvUtNukQ7uqgTIwBNVsAzGF0gQLFdz8gUC62Sg5VqZCYKjE8FvXv2tu3UunQIeeJ+xX0GPXopGZ7edCTOiO1Kg/9ClEB+AjiXksh4I5zFHseROUItpRcm+/jxpTawbp+J2MKxvoqOWBkorbVr+Ck6XcdwOQN0zDeZXsNjRRBBmJdLDTeV8M9ST+7QFd17YJ6DY+g/twEcw1HFsztLP5gCwpuuBh68qDHhnAHbyPcrPkaLkAIbDueoVMPSuY2sEFT8Cbco7dLc9j/expp14kNBzTd+fD6Z7h+XN94L4fjcXki3v5v34Q6tLwn5fEP);lineShape=1;" vertex="1" parent="1">
                    <mxGeometry x="401.13185175026706" y="114.30022574238524" width="2.3798810199317066" height="5.287354040720797" as="geometry"/>
                </mxCell>
                <mxCell id="77" value="" style="shape=stencil(lVjZctswDPwavWJAgudzmv5HZuLUnrpxxnGvvy9UDW0TlDaTN1lekDgWxFKTPLzvn952k+f3y/n0fff78HzZT/Jl8v7wut+dDxd9muRxkoeX03n37Xz6+fq8/H57mpHz04/Tr3mFP4tdyBTqbOX57/KGKZf/L74u+OPh9Q4f9W/X4SNxAvhIocc7Iee3DZKjFDsDL1QEGCRKqTMQTwxCyJ6qdAbBkwM75EoS+pg9FRBDiSR9UpNQAAaVqeTOIAt54FKNlPodiqMK6lArMfcGlTzIkmO2FjVQymCLQq4vtb7xyIBbFq/cuG26nlhHxfikUURQumtWrgYJGij9pK9Eda02qwah2lpr9SuIQTL5PupcKIMdlP+xz2vm1iPrpXN2h7mpAP2YXB+C8juBEAZmKF4cXH/oH4b4aPxxlFHAJGzxMYCMkh/wAfgjK3hBnCBXhvVBN+sRGgf/wfqRsh/yUwGpbWPO+QfrpxU+oHiV8NHiEUF1Jgz8QS0TGnuveCEG8Uo7p+7wDuD9Ct4Df9wwA6VleIPPdYwX8JNJ/JBP4L/2o1g84jO3kX2Hx/6bGa58QyPZEQeLR+eJrjb0e4D9W5LFI37KCj5AvuWhfyPIT6Q49iPAJ+IBX2E/fg7vsiVE4qZ51hNabcenSgVEoIqp9gY5wxZWHchmTIZW9S1ZV3sSqVxA8kMdcGZyBzhX1YFqDDJs++ptndUAKiIZ1Ie6hFTakFZVaREpzTroQA/1zZz13iVVmmiHWfz2BqplMzLQs9N0s7T5v1Xp0o8PZVcAWVIyG0Ek+LwbLyHziAY7qKgzJ6TeWgJIawhN6d6uRRGdMNwO0OsGUO8rPvc54saUzfWTwSMFFVzLxw2PWKH4FAxeEF5Zadd3SEGJlZjcNNIWvgx4lP9BUnyAj+3+dodH/icreblpwi38UF9B8epJ5Qw+Yvynrvkf4/Xh9k3h5XA8Lp8k7v+33yD01fL9Qh7/AQ==);lineShape=1;" vertex="1" parent="1">
                    <mxGeometry x="405.79199837312194" y="111.07335002596187" width="3.0996964725361247" height="10.451871370847398" as="geometry"/>
                </mxCell>
                <mxCell id="78" value="" style="shape=stencil(lZbdUttADIWfxrdnpNX+XlN4D2YIjYc0YUKg5e3R1mOIlkSd3vnv88pHR8c7yc3L9v55MwV6OR0PT5vf88NpO8mPKYR5v90c55MeTXI7yc3j4bj5eTy87h+W8+f7/mQ/+nV462/4s3CNUEKnAr0vV2JCan+v3C3Abt6fAxmlGCAJWnWAhsoGyIKaXSCJAUoEeyUltGyAqis4QG2IFmiMFh1AVbIltYLE14FCyFYlJgLRdSITJNolGtiRKRGq7ZzqQE4jooBtI2oFO4BUkAVK84EMsrrmBhIHKGMjUkV1VIphXCGqW5zO6W1pFggITklaQK4G0CKzs0KuaMkCGSE53lARrZlU6OB8dG+TXUFbGfyBoGFG6V8zykPjCLFcB87c/OkNWoPh8hI6MBbQofJa3UdysGtbX3FZJh36YUg1GJySeqzYkr6i53KrBeXbjFYnBjQa6wBofHozmhCHoVZZHTN1QP4HkDima09Dx0whrm7+BBKyE0yc1rQ+i43ofHRBtW4tDHHaEMYwzrym7cXn1ar2AxKvKXLteWuLSODg1ZNsYgRfUc0TWz831xQcR4GYkZweBxmBBHEmRz0x/Bm0AY6garpBofHfpgdfO47HebdbNizn98cdil5adjdy+wE=);lineShape=1;" vertex="1" parent="1">
                    <mxGeometry x="406.0511449610128" y="107.37583813195533" width="0.47002294210062384" height="0.4714648152533462" as="geometry"/>
                </mxCell>
                <mxCell id="79" value="" style="shape=stencil(lVfbchoxDP2afdXIlq/PafofmQkpTClkCL39fbVlDGuZPUzelkVnLR0dXTzJ08f25X0zef44n47fN793r+ftJF8m73eH7ea0O+vTJM+TPL0dT5tvp+PPw+vl9/vLbDk//Tj+mr/w54ITSjKDPP+9vGDy4f+Lrxfz/e6wMHeJau7sI0W3bi9MNXb2Toh5HRCYQukBFXoUHcXeI68+pnVA8lR6lyRSreuArBylDhBie3MXUIRC7UmK5Ms6oDqS/oQUKGQASFRcB8gaFXCpVgq+AxQmBkE75panKyK2XN4/opD0UVemiHwKVktVqAIxKU2uj1p5QLzmSNzzqjxUwGsOJKFX342HVXHIcIRAADsLyCgITzFYAOJVAb5YAKTJtwq7AgquCE9hAGSQuTzUnAICikFLSCzAI5cCOT8AUOLCHZcgIA55eOBSGuRaYFUrIA4xZA8BedASVGuilC3gQQy2qB+IT5uEt4CMTojNgWUBgYaviYtmQjyu0fK5NiBNCQtAQT55SkPJJQyQoajlQY0OfQY18PmEQd8FsaQxVAuIKAZlaZCrYEAZTvBI3woonwGUTMWwFElAN9aRYtYNnUGCZlBoeV1MOXhCsloqqU2A+wBdLvrE6aiGLoltfXNmwKRWlnIfg64bFYnvWpGLhaagAmJyfQxBGwkQX7yq/7qUaW9De2IhZ9Y+jQo0Jsnk+jx4vAHN3+tp1dUVseQCcR9DgkORbZ5dWxtXzMW4A3XHNlxdnkBtDtsewy1Gzb0xR4OKbbK4TboV82AvJaivcBswN3OHVlvbSbnlbcU821AZ+D70aTybvC1FNQe8Dy2XW+2vmH/qdvfQXB9uF8m33X5/uYcu/7cXT311ubTK8z8=);lineShape=1;" vertex="1" parent="1">
                    <mxGeometry x="410.28524061986445" y="106.04856251551428" width="4.9336836571425335" height="12.195363253003197" as="geometry"/>
                </mxCell>
                <mxCell id="80" value="" style="shape=stencil(lVfLctswDPwaXTF8izin6X9kJk6tqWtnHLdN/r5QNXQMKFzbN1neFQEQuyCH+PC2fXrdDMG9nY6Hn5u/0/NpO8RvQwjTfrs5Tid5GuLjEB9eDsfNj+Ph9/55+f36NCPnp1+HP/MX3heeo+RmUnAfy4uRKfv/b74v+N20v8BHYq/w2VEofbwPlIoiRE85AwITa4Ks6VyfEJhSVAQfqcY+IUnOWedMPvXxOVAcdUTE4PslUdI18uRBxmMlFxReAgx9PDuK3uA9wvP6+6iggo/J4DPIV/DFm/q4CvFVb5gUjCGedf1HiPfunN95AxyNV1YwLZTI4ZRHHZIvVHHO2azA11YIehMCFhpX4mAJCbS1EEqwIWW8QtTK9CONqJEqeUPI5EZIcIbgW1Y3EmrrxRsjys2euilrqwhUcTzFSpOB9Neb5lpC3a6IBh/QHq/bDue76utIBVuFEU6BPfeFNMU8sG6M9mWg8F3mIj3HWPtWBrX59432+Dmyuv6rQ5oNFVf1ToJMhJX2CwhpHjlmBd+GRHemJUtAQ1aGpiVEaBYylbOZ+xIk6KWw2riYoAfPY5IVISUKaJCI2I1bBCjn3M4RZzWI34Ai+TaVzmIY21mmgzclmv0DtKq3B4VZ36BC0gPa7S70+iXBrRJgeLiTPU42gQTxUbcpl2ZQHbzXbsEJzgNnE2Y5uoCOWLlX5XY27OH1BtRCGX9f17NGuMHi/loC1cPT+72n/et4efi8WrxMu91yM7n8315F5NVyjYmP/wA=);lineShape=1;" vertex="1" parent="1">
                    <mxGeometry x="420.1544235125334" y="110.72667579220615" width="9.628148700413417" height="0.9164620419806708" as="geometry"/>
                </mxCell>
                <mxCell id="81" value="" style="shape=stencil(lVfbctsgEP0ave4ACyw8p+l/ZCZO7alrZxynbf4+q2qUmCUc128SOgf2ehZNfPeyfXjeTMG9nE/Hn5s/u8fzduJvUwi7w3Zz2p31aeL7ie+ejqfNj9Px9fC4vD8/zMj56dfx97zD34XnKchMCu5tWXDk3L+F7wt8vztcwh2F3OA9ZYCfP5cGH0hkjGdHKTV4puzH+OiJY4OPNL+N8ClQTQaf8xif4+reJ77WMV6Ekm/wCdpTKhUxeAb710IlG3wC8amVAjd4oRIh3sTfR0oFEkrrsFrkGBJq6wEX8rDkPkryw+dAETtdQ0PImSKoOiWIiZLGGdikhNiGqagTIM9K8G2YKq9bjBItbWHXuKZyROC206pbV0YE1xJKIEZOi609cVSQSWJ9SEIeVXdHiAHnoTMpaKBxWI3TXs9EJ/RhpYwS3eUtQcHrCyOvHfiflec9FdygprZnzb+pe5gpAc34okGjwKnQa0D2VLFNRmVEdRh7bXSsJIpYloxQ1kAeTIZeibVB403SfYXQzwYloGHYDx8lCIhSP92qijc4oR+fSmBQG/18VgIyqb8A1AwnYn/DUFFAQtlfYTQzEQ0ge0W6KPgvCc5Wtx6Aetp1HsT1yAE+tg1aZF0Z4EOLF+ywetc6nGXVkBHezOdMDtpj5YKpQn+NPRyuxMf4qylMoIS6ePpACe5v8pWuhKfaKzOa/LfeyK/B9eHz8v+02++Xf4fL7/ZnQZeWHw2+fwc=);lineShape=1;" vertex="1" parent="1">
                    <mxGeometry x="423.92309118327967" y="113.40546382314847" width="8.262659800474527" height="0.2116017418455362" as="geometry"/>
                </mxCell>
                <mxCell id="82" value="" style="shape=stencil(7VrLkts4DPwaX1F8kzgn2f9IVSY7rp3MpCaTffz9guWiLDatdnLLITdbVkvEg40G6FN89+3x49eHU3Df3l5f/nr45/zp7fEU359COD8/Prye3+zTKX44xXefX14f/nx9+f786fL968d+Z//05eXv/oR/L7hcpdaOCu6/y5UUJVyu/HEBPJ2f94AoOc4AJ9kfA5JKnAGxSckEUCTmGVClkCWlINnNgCK5HANsAb7NgCw1EYAZXRGQ2jEgNGkLQMkbQhJX0GgWB6+SwK063HAbkKT5OXCBxsE7dKtFJhOji+hsc/YjkrfjJhHuL1KV+EjavJ5iBhCLgwSd72+SSKba8+e8q3FcOVi/n59fLbGpf+IcgBaovSpu9k8r0r8eBizgxml8p/ksbc6hpqIMoBJmE9SJY/vAIlTwDT4SgKWYotFsSdGNfbUBIvVS37mzW2uVxja/+WQ2unpxJO9SGj9viRfFkUAn47cw74REvZQd8pG9sxAbckCaNzewwNkC3LykkAelHQHSbLSvkkngrJDonHxGOIWwttkAkc6DAm/f76XO28EPgjpyapwtcFIJXdj9wC+OVp3+/Az3J5Kodn/C5wcWMjfY53q/5/ZCAPheNn/C5ncjR47uzwHvJ9vG7m/Lepj/g/jl+Tx/4uIfvmcK5kO4s8cwvpH5Pwza2eUPs9f8Od9v+czzpwGrcP9bus9c7e8YYOUdAJUW5G7xDDC6p2IzL6roDgs1cbOPTLMwo4sfPt+JEEfeUDKqon6FAVTqDKiJVgNTHQVKoB+ZextgGh7KeKWBs+eV2UtqqUSW1DJSo9oVshdMeIDYVL4kDcMnG6ANOrgNaNiHdACpN/azrgBigyrqtQ5gek2lwBuUJp/9DF2CXfHMBh1h2gEi85IBGgIyIY2+pIyAym0oHgE0Djqq2A7AFN7V61de4pWk54ZbXsEi14bc2gMIF1s2twVAtXy9kRuFRW5TTztAYulasVx1T5N6qEvr39OVe8nBktq9yIEm7LFkS2rY4t3fo36lDcYzeoM2lC1JlyXZO/mG0LLEgXXy12zeh5qvSZc9x+S/LjXoatYh9y1Ew8RGT52wADhZ/iTA3SAa1t1aEXRLqJlA7I0jMFOmVFYVxYOVsUTcWjNualskY1frNKFZ7bWbLKnUkTk7tcEqtbWmYfaS6RnGZFlHe71TTFQXb7O1nSZjVa4LaRhtZZoaeZlU9VkLiXRquEe7ciU2GCDORt/Rxh0AY1LKfL+bz9/N5y/dfC4zLS+VxSsvLEFpqHPIHN8+DWLTnYIJ1+dNzOJl/Br4SL43n3AOYUbdaW+B6BKtsmnR/5mTtREnknXkI3ZL02V2yRqGuIwia5PA5q8BOwwro5XshNBw7G81kI3NQ8Q5hkkBT3LVm0ADBeZp4HzCcaq9gclOy80EdVzp9izLkLoMNXNwtADdsDnVscH8EGe7qDVCj8v8uEZR4qFFoZZG6cWhyi6BKtqA/ZftVjY8TijKez1hAwyMVx8LkZzzYbhjAwRab/zSTMUmlQD6aROcQW4E9YP7JiZ+bhGxpEXOLlGXaVviJ7Vx1IAdQ2bCLqneMJod7WaPiWcERdVpHjJoA/DG3OQsTBf6cTKxobhlxBjouYUBILkN0EikyyYNdgDWo/YlLYf4rEc1o0F99VN/VgsVJbkBmMI2QGoISEz0K57JG4CdZ+fliD1FGjgDQGp0ANM8bcxP9jYwoyuO57qXmEr66X9f3AfYh+ufPT6fn54u/xXZ/45/DrFLlz+WxA//Aw==);lineShape=1;" vertex="1" parent="1">
                    <mxGeometry x="440.5638966690394" y="101.27579934661617" width="8.188955918872509" height="17.22689632618797" as="geometry"/>
                </mxCell>
                <mxCell id="83" value="" style="shape=stencil(lVjbchoxDP0aXjW25Yv8nKb/kZmQwpSGDCG9/H3l0iVY3j3A27Kcs7odydpd8cP75ultvQru/XjYf1//2j4fNyv+sgph+7pZH7ZHvVrx44ofXvaH9bfD/uP1+fT77akh29WP/c/2hN8nXvYUubGC+3O646nEfze+nvC77esFPjG50uEDpbyMj4UkdnimCJ4fPUn//EjVLeM5Eff+F/JlGR9kcvccr6MEDGg+pPaERIGXCfp37i2Ec47nCY5Cb0Gd/G9zlpDJ93gu0ABT6ksQM6wx25SmTAxqnMilDp8TiV/GCwXpSxahhrxqrndIAjkQgK/EvicUqiCjmlLpa1axrJvs+pzWRAXIKEaKoScUygE2mqlaFVjlHKikgQBiKNrp1bokgCCeEluCAy61EE1aIwUQtHrsiyV44JISih8IoP9rpeAGl5CFSnmwgOqgBDMwlJCRWp0jN/gkAk3UQX0e+2TTpAJOkMDJEhKyIHZuKyEjCzLTQRn0aBNnuMtCmbEAY8hU5a4s5aHlrtQhT0Pi1krnaZLeKKbWkYP6Imq5Mh1/tzaEzKgVtpwMY+NKU1d7oDSXsLzjEDTjKTCmFc371nFiCQLm/QzhfEze6lKazsnFoAcLERPc2HFIGvcS9Fj2pkW19iDoEiiYSuvgATG0Q663cDE958/RQNVbExVtoLptZEtwIGpmu7+1QYJWSlWzySvDHdRnO8lEKCN923VGKxMBXqXZ50g3MgEhn98RLjY+lNPhgEvniBbwoZ8YurEmgNca96rg8xic150dkrqTRlQA3Qb7XlMXC1pZq82oj3CH1g3UmdYhBhE00ZmUkoBOi45832kMj4WWcPPaM22LS21mmsDBHshumiSfeNRk+p7qxOLR84dd1cFVVfE1GbwH7zA6iNj6H4BCFW/WSAcVp3ix+ITeCYcx5+D51PC9fvyk2MXBKwYfMN6+Z1+L15wEHp4cWi+xz0cT8d7vHNfxevH5UeVlu9udvslc/m8/wuit0wccfvwL);lineShape=1;" vertex="1" parent="1">
                    <mxGeometry x="446.4178989227064" y="104.6117492055082" width="5.652244903875021" height="12.173731287833014" as="geometry"/>
                </mxCell>
                <mxCell id="84" value="" style="shape=stencil(lZfbchoxDIafZm81kny+TtP3yExIYUohQ+jp7astNVlr4e/kbln8rSzpl2RP4eFt+/S6mZTfzqfj183P3fN5O4VPk+rusN2cdmd7msLjFB5ejqfNl9Px++H58vv1aV45P307/pi/8OvCKZPmmVL+fXkjVPjvi8+X9fvdYbE+CHEc1ydKCCj9ex0ITJzvA9Es1AGITDECIFIpA5CUtAKgUByBHCkVADQqaQBKpgS2lITqGNWaqSAgEY8WWuyJuQmURkFHC0IKLFSmPCZufqMAUKrNAyIASFRHC7bJAvJQG0nxQAY+NKUUVhYCAEyb1fvACKjE7AEk79YorfIgABDmlQnpAr5nIjgnFBZEKz0oVyBgrxOpeCCCzFkihD3wr0Rup7pSUQ9ULKa4AjKyYNpIHtAGCyKKDyvKg2lN1QMCwmqAOAtCERT1LM5VycEoqW8blWHbqJHqmDjbZAVOW+J4VdQZWGjm4qpGM9JS7G1oATTgtMlbV0UdkLxbT9MyrEAaBjTXvqWr6x5QVlpS0Fw/DFg9tDEPFjcGQBHfZmabaMgVn4dFq7o32mv1e0pAGyH2qbkYixVoI2gv4cXgzcAJNTWPqbbRjiaEZj/l7PCQQFxVvQU7nmQgJqnURgt2AIrAgkiv+WsiMgkA2DdjpQDEupo/AjuAbba55QG569swd+HezrBvkQwVlPzZ0NodatkUolvOqBX5gyTWv5g6g18PfJVrdbyvFxTK7I9sDMeHKS342KPpIc2fjqQ7dFv6H7wr/H+9PbxfTF52+/3lXrP8319k7NXlEhQe/wA=);lineShape=1;" vertex="1" parent="1">
                    <mxGeometry x="455.3177855330748" y="107.83624254917436" width="1.1013071969347745" height="5.539223579080924" as="geometry"/>
                </mxCell>
                <mxCell id="85" value="" style="shape=stencil(lZbdUttADIWfxrdnpNX+XlN4D2YIjYc0YUKg5e3R1mOIlkSd3vnv88pHR8c7yc3L9v55MwV6OR0PT5vf88NpO8mPKYR5v90c55MeTXI7yc3j4bj5eTy87h+W8+f7/mQ/+nV462/4s3CNUEKnAr0vV2JCan+v3C3Abt6fAxmlGCAJWnWAhsoGyIKaXSCJAUoEeyUltGyAqis4QG2IFmiMFh1AVbIltYLE14FCyFYlJgLRdSITJNolGtiRKRGq7ZzqQE4jooBtI2oFO4BUkAVK84EMsrrmBhIHKGMjUkV1VIphXCGqW5zO6W1pFggITklaQK4G0CKzs0KuaMkCGSE53lARrZlU6OB8dG+TXUFbGfyBoGFG6V8zykPjCLFcB87c/OkNWoPh8hI6MBbQofJa3UdysGtbX3FZJh36YUg1GJySeqzYkr6i53KrBeXbjFYnBjQa6wBofHozmhCHoVZZHTN1QP4HkDima09Dx0whrm7+BBKyE0yc1rQ+i43ofHRBtW4tDHHaEMYwzrym7cXn1ar2AxKvKXLteWuLSODg1ZNsYgRfUc0TWz831xQcR4GYkZweBxmBBHEmRz0x/Bm0AY6garpBofHfpgdfO47HebdbNizn98cdil5adjdy+wE=);lineShape=1;" vertex="1" parent="1">
                    <mxGeometry x="457.3706908138165" y="103.96649416291348" width="0.47002294210062384" height="0.4714648152533462" as="geometry"/>
                </mxCell>
                <mxCell id="86" value="" style="shape=stencil(lVfZctswDPwavWLAm3xO0//ITJzaU9fOOE6Pvy9YDWUTtNb1m0RhRWKxODi5p4/ty/tmsvxxPh2/b37tXs/byX2ZrN0dtpvT7ixPk3ue3NPb8bT5djp+Hl7n9/eXalmffhx/1j/8nnGOTKogy3/mBaZY/i18nc33u8OVufHkgrJnXre3maLv7C1Zs27vMhXu7AMxOE9gsr19oQj+Hy2F3t5EsmkdkDzF3Dvgm0s3ATloRp2nHNcBRUJgO4CPxBYAMtme05DIBBA0XoLUEDE1nte2CLEDpEQZbFEWHxsgR/Jgh5wplT5wwkMGAENGRRofKVniXqpXPKyJo/ROCA8FiCMEckafKQH5eU+m91rkEkGsK8BqAPJBAL6XX5YVdKTQaF8ADmpD1KlSTgAB+ZCaEq4AzgGAFI30EKBQHnxAR5KykcsjTgdDkR+hVQClT9IaOAzISQMicFoAmtYlMmtOh6QBEchbaPVZAwqoxn6oTFkqEwqc/C9rAINiKWrNVh8p43woA0sOOS0djnUc8p0UHQCox9Ud+qohWop3fBgADEpfZclpeSMt+SWu1xmHWJJIhwGAfBAtDTt40EerWoecTkAaNR8GlixOIJ1x0sUeS9E7AGlyqmd53IGWlF8A0mKA+FLUahVAQn3XEfc+FKlUYIfaqBWtsgMaBWTCG2YHJD5p/Krcx0wGSEN24P5IMgChFK1Fpa9Lflm5TWvRY67DY2IsOg42tknztjTSMIjm1rn/M6eNEA2cdqF9XgIHR2k5sMqfQB5NlVKVFEd4DGiFfYkBnPecnpSwuSWnIkwMzI1uha5NEDfNuaXIxRwVbCavzS2oXEymJ97CC8MwzFtYSFm3JwtvF6xVYOCAyrq9Gpgnwru+PqKBwrbidzFPwPzBy+xdc3m43Jvfdvv9fO2+/q7v2bI039Hd818=);lineShape=1;" vertex="1" parent="1">
                    <mxGeometry x="461.0638980810563" y="110.13185944775978" width="2.9909938104364615" height="6.144649214813195" as="geometry"/>
                </mxCell>
                <mxCell id="87" value="" style="shape=stencil(7VlJclQxDD1Nb1XybK0Z7pEqAukiJFQI0+2RafzTkvNfQ8GSXRP0vixLehp8SC8+3Vx9vD5E/vT4cP/++uvxzePNIb08xHi8u7l+OD7qr0N6dUgv3t4/XL97uP989+b0749XQ3L8+nD/ZXzh2wkXiHmAIn//9YdOqf38y+uT/O3x7ky+UGhGPjJFIC+UqpXPlPO+fIgUogU0kgAAhaIFpEgFAdTAbgGdMu8D9I6itSEXaENM1IIBlEQpAUChYo9UA1VgQ6xUxQKEegeARmxtaI0aAlRvQy+XbJBiABKJkYZMYh0nlQT5IfnQCMwzfPc8192ZMhXsOefqvkXLrtU2f7oeqQCAULNHUs+1ug9IemKroTTqAgDijdZwbeCW8ubYLSESCThSYR+uem+QNMriOWUBcEulU802XGeWPytf2QefcgC4I00vJ8+UkbyyUnDyEcSRykdx8igXVD4v8sBlKl8XecAXKt+7kw/oPpOnC6aEvq95w06+IHvT/NyTPCL5usXXFkCw6gx5cfIVRPSQd2WKGPlX7XUZAEuIygf//Yb91Wz8V1hxRrlwCRZxAKk/rYIglIHHilCwHo6dBBxJU5ity5SYMiKJRtnSkPJMBkGqAEfWeg0Ba6jWa03bH6ShU7dHamoDiiP2GnqdntwNDBuoWjUTAtQZaBsAs3vjGTkboMHcb0rW1gatyxVo0IpXliqLNPTVhgCjVe+k2ljSZqSCW5Lu+a5pOILuRZbw1v6ogwqlAJdAAwCMVkBZOjDBR2rV24DCWwESPKDgI4l4gGCjPUAg7w1A9IB+wWirQaMrYg1lAaAUHY5rHoB6hREaaQEAqtTgc37omMgU0BYNAYd3Df5aUROpAJeiCkj4SMXekoZGR8HXZ4E9A6AWb6Ro9ADEGuoHdmTc4LyggLhkXAdVVwGuCxsAnHGNvQ2oz1NAX671UgKtfgCAs5HozNXxQlIvsVFxQnRLfWPmwQAXGwpI/xTw3NwWAGCUZVd3EyyjeoDuAHVew14ZdUcSzJVaqH3dFRh9tfgRXXCBGFOMq7sZkmtZubLNCrDbwy3Uh/xQqh8c2rZt2Rslmz2SNn0o5RQgS1sZkNHVU1/qsFCr0a4EaWsc/6itDB2uJeo2PT5tPuAOYDTCzmhI9/9kHgYc838e/j8P/+U8zPZ+8B5PiavZ5kKmwr2cd2NYqHhBFfxEMjIMeCDXOfxurFJmb/w8IMwb30xuc8h/fu+3MGO5sFkMs2qfcS8a9GLzm/Me5jZzd8XrOgXBW+c0V/e/Od2OOLBEp6Mk2jLEpSzrKMkY4HvtDpcGQ4Nr2XDyqw3R2jDWP0hDnLG5eTrja2Vf+DWWUFkOzU+3GU9VIVOyGlLGfWrwFSExTKBlIzyeNIAJm/qzHTUqUUzVOkEpEjEAex+oPCqxvDBkmDV0Rz647zOcnLdnhzN5VMKXMWFoxN93D4UCN1vs6SsI9C/7jiUI3Niwz2PtofB5cvTyaDnCPu0DfgliH29DHpz/Tx9eL8vrj6dX3rfH29vTI/H5//tXYf3T6UU5vfoB);lineShape=1;" vertex="1" parent="1">
                    <mxGeometry x="467.16770298615506" y="106.25661030601714" width="12.87638586426111" height="6.695313373689783" as="geometry"/>
                </mxCell>
                <mxCell id="88" value="" style="shape=stencil(lVjbbtswDP0avxK6U3ruuv8o0HQJliVFmt3+ftQMORYVn6Bvic0j8fBOT/7pY//yvpuc+bhezt93vw+v1/3kv0zOHU773eVwlV+Tf57809v5svt2Of88vc7/31+qZP314/yrnvBnxjlKroKc+Ts/MGTL/wdfZ/Hj4bQSL+RjJ+7Jhm1xK/LcyWdydlveMbn+fOuI8zbAMxnfAzJloFHIjV8DuETBbwNioRJ6ypE8ALAlZzpAiGQA6WzbeQ0QQ7vzPqBQtB0ghebG+14TjXvS7CkCDqU0jRe/2XbEfUcbQ6ZnnRmSKJl87gDFk2EAEI59bJREyUAzcU9C7swJADxx6gGFMog+Zoo96ZUdtoKDjb4ChV8SjgMJC8yUHBXWZnKAdbJUrHZEAqwF4PqMKMuTLZWiqgJSBhDpTKZ3RA6tkGwBVAoJ4MENqWgAqmSpkLUDAHhaADEMAJCkaSg0FQByjk3z69pKKPgMBdaAECFg5IAKTb0hawA/4DD4oQCVqpXUDRGWjeqHogGPPM0DACVQJg4DAAef7orCAZGWfBjMWlAscXu99gPiwK3QrQAROK7eMDguIJWWlF+nKM7pOIQ3rHxZV74KAI1XPB3MJwF5LALArBLeduCAinFNoOGGgHM6DmaN+IY4hgbIBwHoaJXgwyp9DpDikHEZ1qXkKffBJx0IZpzYRM0OeAAaVZIZCjZFSVGlErfSdt9KTs9k0tihp7kNCisAHBOdjtY6/wCVZGLLTgNQyyqOnAIkmKJiRFUq5YiCBlEeGnuGA5YooIPPUgSOEwVyXwRkNs5orEy6zEh0FZRxYnU138s8jjqQNJQ+WmWDCOCGyLoIyI6SgVlD1CrJFlTQnhX0LC2rXQAc3NLGF4CH/cFy68q3VRG1ONZbloeBZHSpt3AnM3pLNDBzTGvfN3HUbYddybQhf0s8KPEAkmzoOQbuq/JWi6MVXVT1Shy1TKPDYCFzPwraALsSB7loKWndkbgj47Q4sIxrWbqiCk//1KeUh+Ly4/bV5u1wPM4ffdbv9VceeTR/IfLP/wA=);lineShape=1;" vertex="1" parent="1">
                    <mxGeometry x="479.9073094890332" y="99.76863355254932" width="7.0123248105726175" height="17.548225186740375" as="geometry"/>
                </mxCell>
                <mxCell id="89" value="" style="shape=stencil(lVfLctswDPwaXTEgwRfOafofmYlTa+raGcdpm78PVEUTkbQ29U2isBQB7ALgIHcv+4fn3eD55XI+/dz9GR8v+0G+Dd6Px/3uPF7saZD7Qe6eTufdj/Pp9fg4vz8/TJbT06/T72mHvzPOJco8oTy/fawQl38L32f7w3is7YNU9oFUob2v7Z2nnABAKeYK4IVS3gbY55gqgDjSCABKUrscPDFvA8RipBUgelK/DQiJuD5SEnikmInrP+RAErYBqVCp/1CEnGwDciat81CUEkh0CeRjBdBCCfyhRAqhBQgCZBLXAhhwaTpx7bSaVyBK6sn3AJBpDVRcBwDks8+cWx8cOlJpuWQrAR1JrwCygwBtnFZiQD7t9DCtgDyY0yW3ACRRjV1YlQognwpJTT7HDDWqTFluQpTSEVwhOUoi1wES4mug1AECSJ1p+KOsrFOHRcq11xM5AP0M0JLD6AdKmTmdfAtwoH5bWEtTBkxCKNeOpNwkUln2WwNAodFE0omUEV+NGp3mBIs0drUvAcCKnCsErGXGtU5DHsX1VkDqRGeiYhDXGNrebgQOIK7WZ6UGWJtLQBDWyV2diBQg+2x6KTVdo/VFlAjzoRsGHKiWpW1a4qFEw/L71TiTwf5MoRboF/MSk6+5jeexjnZ43LPda17zEt8N86a6MEWwu29jwyTAVWkJzQs7rtNzaWKf5gx2z8vAtTJHkm/Fgs2da3mDT+OknQixs8bjdEssXVz6xP+lapr7W38RE67eK/A94Yt7iD18XmKexsNhvgOtv7eXHluaL0xy/w4=);lineShape=1;" vertex="1" parent="1">
                    <mxGeometry x="496.05682815853834" y="104.25483437015873" width="1.267424571902734" height="9.680526627425339" as="geometry"/>
                </mxCell>
                <mxCell id="90" value="" style="shape=stencil(rVfbbtswDP0avxIiKevy3HX/UaDpEixLijTd1r8vNcNdSE30BuzNdXgqXs45lCe+e9k/PO8mCi/Xy/nr7sfh8bqf+NNEdDjtd5fDVZ4mvp/47ul82X25nF9Pj8vfzw8tsj19O39v/+HnggtQagNReFtezAUK/XrzeYk/Hk438QVy1vEVYh3HY4XEFlDTGCAnIClACsA4BnCBGGwJYR4DYu1qIEAnpYRARQFihFTGgEwQNIATzOx0lYH1GCgDxTGgMoSkAIhro/8MqIBRAQKE4MabjALE7MabORNkhxcSX8yYIfv519kWXJwZYPgo8AOR3am1IzQviGF2iNRq0DkJeYsPSPoEljl6YxZx6anxvFUDdszz9FkLVLYnsA/Iuq1MWyfMbLuEHvVE0AZAa9+GANSTTqvEhwA9ByFT8NhXIOkTkj834YGOJ2DHVWVsQTMpAPlqYzTxbksrzMYuXJevvUUCOQ7ZpKPVjGE1qCFA2wvOkB2X7wG0aXhV81QsFX3pZKM1adJGU3XRIp0NTyUj/7Tq+z8BGFADYnGLlsUTNfESr0Y7Wm1mj2R2/UKWJ2s1F1wbPVrPRjtFXNCpoV0A9ByqcMmpob9iNI9yyNdfYprAHXp3t6QmWKfm7hZ2s70GgFTsAdGNN4ZXZRe6CbEWT42uYYj9aBpVBHQ6GqzfleTKv9vlQqLisK6Lz2ndc3+XT+O5m4+pN2XIbn9MP1PcmK+Zl8jI03HHh3Ytd/P5t2v/drw8/P7GeDocj8snyu3v9ptEXi3fM3z/Dg==);lineShape=1;" vertex="1" parent="1">
                    <mxGeometry x="487.9828303406978" y="109.15549581363689" width="11.780715492239104" height="0.5139071126306641" as="geometry"/>
                </mxCell>
                <mxCell id="91" value="" style="shape=stencil(7VrLkhs3DPwaXVF8Ezw7zn+4yuusKptd13qdxH9vMCqOh82ZVnLKxVV70EpskQTQQAOjS3z35fHD54dLcF/eXl9+f/jr+vHt8RJ/uYRwfX58eL2+2atLfH+J7z69vD789vry9fnj7f/PH/rK/uqPlz/7N/x9wwUVg/Q/9+32TirS0j/v/HoDPF2f94AiIc6ALK4RQJLkZ0CUxgBRXEZAyQTgxRcExHgO8E1cQkCuBFAkwaUTB9iJK5o1kzt4J7XNgCaJ7FClzUbKUTzxW5Y4eyFXKe58fcT1JfALSJvjqFRR4mU/PDTW1zgi8WR9nr+/Kr1vwDDVIJF8vwWAzuuzFGrPPNtH7TzEnipuPr82CUoDQisCPHNAEg83rlLJibx9DIBEAeaD5GaAE09sakby4LQ0zHAMUPRCKdQL0SMg68gex4AoCtRXqcQPMUuYiRabREacLDoDQpPGdygA8JQKMY0MPQCWbhLJd3ZpIGcV78n6IHWOvSClcC/MkWTZjDlhIbPjucjWJ1if+HmKg/WU+7a+wfrAz6N4fsZ9W98KrHfMXwF5Y+vZ94eRSv71+oT2dIxlAVnm7saPR3vy9br4i9sHKOZorez+mv3rpfJ4wCQxUuWpPWf/WvaOpPgZg91MMK8SGWPKOPDGSBNuhALJDjDvYGkrk5gwQQM2ypaFyB2yG/V3rxBInst5VJctC4Vh50NA8SNqtnqzEfUYUJD3VpSZmK0WB/MdWpLAVFdBs7Y6ctNx2XeYGpuKEivpdoAdIDGA6SzYoYxbHQLaUsbt0ixa7WPQms3yNTlSvyI4Lg89fAaABGkAZta2aaEdIBECGSAuOySSAwyQVwBhnAHqciSmmA0AjOtWYn7YdMQOoORI3m11YEMUcfwS4GoDBO4ISJUGSCTXG6AoAjJJrgZIC4CpBQMAg+4DXFmOxDyni+fKqKhngLrswNR/ByyOYxLjAJClMT8oajwDsCLXObrswPJ9N+sSrqxMd8cthLjH0eVI1A8NhZ5ufdxpeC+kZg1JJ9CSNpR1YQcczXQ+0rdY4ttzR+jCIKY2/jsgY0fSiwzLM6ZwocpluoMVcpCsVngrsZLVUQQ0OkXSRc/sXHMsBjLK4l6qyZmqwxJht2bdalmnDI2msuKWVBZooskJd6hxSJxjnajLoCfSO/Th3axPMldxJlTdTNLYqE60BhomjH2OwNT00p+Y/GbjPGsIUK87mjeiW4aePzto6LCwQ/zZQbMI/Z876IQT8yDxztQMxse0EYubytyNtOgFCgZEH5oxj1XsGIyjdFJYkDKWhihnlmlnaveCFDq3rKM1Ox6PNnxIUCqlTX9YM1upJponwjLJsLKohPiWOMvS6tEnIwkjWzdxfDYIX7tPFhp11OD9elaglv5Ch19OnizEpUViPZXDgmklmU1itsy5+UypvFv0o1VwFhQOPWZBVEhuCSOId3MeT+yTxu5bVFdx5PsLpq4ceAeJAWSShMW0DzjkSZnKNJ/xRKZh2FTIKxI5hdH7HJvUj2y7AbaCeAxYHk/ZDoHwMmRkfgo8qut4qrEBEi1R5gfggZm1sSO15dKFZmAD5IwAVgU7QBHAJlsdsD6mJVzuAI8A1jX3Sy8ANv8LDZVIqlSKGMD7BcAubQo+IoA+StWFQJU+ivwhv/cAFhqKY9V+B75DCGhW+rOF+wB78eNXEp+uT0+3H1nsP8dfVdhbt19kxPffAQ==);lineShape=1;" vertex="1" parent="1">
                    <mxGeometry x="509.6336521013393" y="98.29591019528311" width="14.292556119992433" height="15.7659077703552" as="geometry"/>
                </mxCell>
                <mxCell id="92" value="" style="shape=stencil(rVjZbttADPwavxJLcs/nNP2PAHEao2kcOE6Pvy9Vdx0v15qgQN9saUbiOeRqozevj3cv242E1+Nh/3X7Y3d/fNzop43I7vlxe9gd7ddGbzd687A/bL8c9m/P96f/L3cLcvn1bf99ecLPEy8JMS8sCb9OV5iy/rnw+YR/2j1f4GOkmgZ8pMbreM0U3fMDaQEEu51Hgr0hrxNEqYwWSaBU1wlciMtIKCQNEJjCSNBEIa0TsnchKiXkM+Xx+ZYVCQgfR3w2jwE+9btnfKUI7G9U64AviQqwn3M3txOqQIOsaCSOhEoCcqZTiJpQEVCnRmgjIVEFhZ1mQulXrifZsjA63SopiGoRquwJAYTVgqjFm/Q3btfzVnweliihRJfJaaEMwmoWi3oCKm0jlDq9AQhGa70QLn0AiTNCnggN+dCoOR+UGCgMh0AheEbENtXmCaiYFifEEz5wwqc6EoOWs0T4VFsTokRU4jgRkNNWTLNJqDZMiNUTAnI6T8WkvafWCGnKQwKpXgjFE9BsWEyKnhBwlMI4HJpgHwol9oSMfKh9OF32KBDXpTQm2YCENiVOehOuEdLsNBIma6A8hRWNoKs9qkgsTQaSJ2TUQa3r0GX1YSfcHrDU9/8kVJ2crn12X59B2hvsTGhQXfNZS9/3t3Okrw9SoZj9K9DUitwH8+WYAzYpk0xNisTSdloddaM2qH2svoUs0oyWAV/fJUMXxG+UtpGhnp6K2za+CPIcSMasJe7VvmJPG3XS9icGOStURrxGigBvAW1u585QiM2DPOoqN7jwmUk6hsjODUiIbaX0dUoKaiLaTj7WhPbhch3f+orQ8ZYU4LHh3XoYiIHDKfgdOkB/DV/882EfM3H1eGQP+xXG8CA+phPB4wU9X7qcv+MVtEASP8rxsdDwJTh8xTpXnDLi+IiPD/eCWtVRfzJHh7Z/Pcl/jLcf758NHnZPT6evDpf3/WcGu3T6RKG3vwE=);lineShape=1;" vertex="1" parent="1">
                    <mxGeometry x="525.3479590436857" y="101.56253481881345" width="5.425800860340413" height="11.219876144039127" as="geometry"/>
                </mxCell>
                <mxCell id="93" value="" style="shape=stencil(7VrJjttGEP0aXQu9L2fH+Q8DHmeETGaM8TjL36caSrfZr8nH6JYAc5PEemLt9arJi//w7fHT14eLM9/eXl9+ffjj+vnt8eJ/ujh3fX58eL2+6aeL/3jxH768vD788vry/fnz7fvXT02yffrt5ff2D3/ecEaybyBn/uo/+NsPP9/En67PG/EgvoC4McfiWWwE8VKPxa3+W5jknSSijfVi8yQfxbL/TxJma4vkROSrhFl/vaMrxwDV95/7D0AVQyxoDnWzxVECUUkvFzsBvBMfCSBJmn3qq1gSMwVUMwFCpFFQQJ5tiFYiV8nNWRQTVylKTTOgSHUcACppHDJ3a0SAZ5GOkgMCEjNanWgQULhKkKzJ8FyK4gICrKUAE+8CBCnpLpWCpLoYzdwaJK5uZfUQ0EtngdOKSwigqaEAUKn02P/bOxQJJ24FLyUxpI+19AaAE8PukCXN9RCSeGZ07SW/6RqBpLe3UqEv2V60+wD10lwP6oZMbPAJU8MWGjhfMDUsb5VqImRr6fNlfxgacZB7fZoeys/jKkglqaryHuUTl48W5ANJVJVPBeQdCZnKF5S3TN6KWeSZPnb1jyNjQeVhPI9SPZJP6B82p1QeerwWKpk6Kl9g6pzZi0NHAouvykMnOtMnz/5PnY8dydu5cdXeNo7yAfyj9OgkoYFtKiGMrMIsEjxViYbYYck0tsNqMiw5VHv73gdkvEObUEQlJUMG5rjOQJLWMfYq7IDMB04bwnPelURtSKPvjEDzZp1N52cDoKlKUiPH7vUByOJId89V6gJgbi3LlK2J8qlSMNJqgyOA6vo8GgBPx3JVUjrXQ8kSGKDifqQAtn7VikY3AMklBcSyAEiJKiBnBERuAwx+BTCK1wAwZUufowdb4VgyN4hEkqkuyaQA1pgUAFtVqeK41cCPFBBJQSggOASwrUoBztwFKItfVSWWGwXHVTOaFYS2oSUOlQwUBcDuqYDI4lA62d/mBrchLyVXuEplKQg2gjQOZq0gDnB1AZzU6FJBbMi1Gl0AkddDWYo6cxtqxjiwzXC/Rk96X11CXcgMakYAoPLcWOk832HuB/idscgipyZmmEE8+3TKhVmlll5s8C5e2oRmH7Es9ZW3MqUvcJLRRjXpTEo3YE9SxzG6Edea0/QjKsWA527F0FamJK/MKmVLZ3sYG/nm6IMuex5tiIZvMwbPrNo+yvbbit1VyTEb1T+o8JZ+k3bsx8nIhuBHttTXvnBuDlj5Bvq+Eb9vxP/ljRj4SOp947CGodPR5wV+nBlvC4w4yGek57ZScuFjL9hR87HruA/wfb6MNuRpzLzFyd+qiB1GVnzKozs16youYxVHT5/zvB//d8D78f//4vgfmrYCGMdrQxJyKdIxqJFGlWz32xEgzm4NsXfOwzvMKnnORVqk1zbD4uAX8pLoAZGznTJu2Q4B2LI8YIiUE+rlBM3Y9HOEfYDrZH+wTpoZFcVDX/H3eTZueV4CIwv9QfPwD11FDI5yR5UxeEDi+kp5IA414Gh3NLhju340cSBu0VRGKwzSXkdZl+nP3kYa0Lcclk3Znvgdjo8tpaSjhXdxc+J3WM0MfQi38G9DDx4MVpShzfnOl1FOxfXDj/devlyfnm6vzWyv43sy+tPtHRv/8W8=);lineShape=1;" vertex="1" parent="1">
                    <mxGeometry x="531.765132643442" y="106.38125512050283" width="13.741847418616056" height="7.959502857034733" as="geometry"/>
                </mxCell>
                <mxCell id="94" value="" style="shape=stencil(lVfZbhsxDPwavxIUqfM5Tf8jQJzGaBoHTtLj78vFVo5FrafI23rNWfEYDqmd3rw+3r3sd8Kvb6fj9/2vw/3b406/7EQOz4/70+HNnnZ6u9Obh+Np/+10fH++X3+/3C2Wy9OP48/lC79XXIzU2oIS/rO+CcTri6+r/dPh+cI+NWp5tGcSAMiNahoBlUK6DiiNQh0AkqmV64BaKI0haKYk1wEtUi0DINoJwKXWKPEASIVqvA4IzMQjIlcqDI5IlEefSqUIfLKoiw6AmknBCSVRHV1qQppB5ZhiHAGZKih11P69M6D10mwClsKOpb5I3HZihcqIaKUnbpuvJNkH/e/MTfupbtXqFoBDxfdDYaoKAJaS6gEBcMkaMo8Aa6mMshqJowegfrAyRJlOANyTSmkKmkEV1DQieUABWdJAGkZAoIROsCyNMRTpTXsNEJxLShFUWiblK5EEpdV0bgIg1TCyNueS0Re5pJRmAGC3cUnEAxhU2tgqwceQkPKV3i4Xaa2ogUwDxo6zwjXUQNkPFKNGA/1gLnm2Wu2RyFQvS8ZWRf3A1KaOQ0Fb4WRuUUyNPANAP0jpUn0BaCBoo3eZWjSCtFoDsfq0IvItLTpVOmCAjjEYlwJIq8lMVA9Aq8OnASFRmKYuGnHhLL3nAcRYZgqpm3ARyr22Lr0XgIpGok4nKBy62TpujKE2iuCEYjPZZcliAKtGNRVyLVrgumQOhDHoZb9CJ1RP72RDDMiMeSxjlmKFM848DiO91XYDMB8Wj0d628RAYzedW/4M4E7HbQB3cT/vVwKzpNEvlQo9Mnt2qzfcZVSnkPs2dM2+qrNnJABWtNE+UMTxupnO/cW2ferq8GGPZNsYIOzsBdlXL5EMx3Nk3zd4fY62RAVvjzZ68Tcl7nvZtn30hGPIn8/ePv9vbw8fV92Hw9PTelO+/N9fje3Veq3W278=);lineShape=1;" vertex="1" parent="1">
                    <mxGeometry x="546.4252338629926" y="111.78957057826551" width="1.7514988897691584" height="4.5068560709359335" as="geometry"/>
                </mxCell>
                <mxCell id="95" value="" style="shape=stencil(lVjZctswDPwavWLAm3xO0//ITJzaU9fOOO7194WqoWxA0nryJssLEscCXGoITx/7l/fd4Pnjejl/3/0+vF73Q/gyeH847XeXw1WehvA8hKe382X37XL+eXqdfr+/jMjx6cf517jCn8mueGI3Wnn+O71x5NL/F18n/PFwuscnylXjPVUGBo1aVgY+UY3bBjWQC8ogJPIVGGRqSRnETMFvGzRHrGNIlVIABomcjqEwJbRDpaizWh2Fsm3gmIlZWTSGFrJF0WlqhRwoRIs9i3PlbpuuJ7YQe71FpZxBrQtlHXYLVEEQWQqlo5ZiBkCOFCgXXYkCY4hsySF7ZkBw34h1XpPwFQTtKjWdpZgoADY5oV+zBEcttGg5XzqB1zfoAc6FblQAfkG9RBG4I3BdgghrzORNdz5YPUUDZ0AIKa/2XQgHGtORN6mngtrSsk1Wb4A7NpGxz40N+CIzCTjjKWjfUy/EBtyMoNSbc2t17XsmBxLp7QjNlFCT9DTf4BUyOGpnCiSBs3nHcKYcrDOQwMHbUOHqzhk4A86wPX8TJdyrZjo9CNXpMgnFwPBjisHAkRhgW1U87Z09RaX5IGfMJJDV0Vi1k0AGB2y+RWYiWF3aIxt4A1NMmk9zJj1Y/VPwYI9ZV6gi0dbVzXyAiPeonzwVvUEIUFGNxNEG0fdDaz0CaSojwQKcZrKeN12I2ZNiT8k8FGKXM+tapNihI0rUo6yKaDRqRyYL1lOmzKOwBHUQ9RR1llqG/dvmSXa3g0fKtthZKDE0JDtz93jOku9LrBt4K4+Kg+SrtZ/gMzXmK8S6QbSndCxUwMit3OXWTO9MBbgkGjPpHaSlUD8UYY7ewUV4h8nNTl7JKghB8MHiEVdHvL3mIUk44s1lAWpawSddNKERUBuCN7cXhsQuC40qshLdRNjGy1AyC95oZnw1EnyrFg/yI5xf+OOQP65Pkhs+IsK5fjbe8AXl87PX/od4ebh9Y3g7HI/TJ4r7/+03CXk1fc8Iz/8A);lineShape=1;" vertex="1" parent="1">
                    <mxGeometry x="546.8477096039467" y="108.73684460384152" width="7.748518435298911" height="5.681032157905898" as="geometry"/>
                </mxCell>
                <mxCell id="96" value="" style="shape=stencil(lZbdUttADIWfxrdnpNX+XlN4D2YIjYc0YUKg5e3R1mOIlkSd3vnv88pHR8c7yc3L9v55MwV6OR0PT5vf88NpO8mPKYR5v90c55MeTXI7yc3j4bj5eTy87h+W8+f7/mQ/+nV462/4s3CNUEKnAr0vV2JCan+v3C3Abt6fAxmlGCAJWnWAhsoGyIKaXSCJAUoEeyUltGyAqis4QG2IFmiMFh1AVbIltYLE14FCyFYlJgLRdSITJNolGtiRKRGq7ZzqQE4jooBtI2oFO4BUkAVK84EMsrrmBhIHKGMjUkV1VIphXCGqW5zO6W1pFggITklaQK4G0CKzs0KuaMkCGSE53lARrZlU6OB8dG+TXUFbGfyBoGFG6V8zykPjCLFcB87c/OkNWoPh8hI6MBbQofJa3UdysGtbX3FZJh36YUg1GJySeqzYkr6i53KrBeXbjFYnBjQa6wBofHozmhCHoVZZHTN1QP4HkDima09Dx0whrm7+BBKyE0yc1rQ+i43ofHRBtW4tDHHaEMYwzrym7cXn1ar2AxKvKXLteWuLSODg1ZNsYgRfUc0TWz831xQcR4GYkZweBxmBBHEmRz0x/Bm0AY6garpBofHfpgdfO47HebdbNizn98cdil5adjdy+wE=);lineShape=1;" vertex="1" parent="1">
                    <mxGeometry x="550.1407856407734" y="105.22256915743742" width="0.47002294210062384" height="0.4714648152533462" as="geometry"/>
                </mxCell>
                <mxCell id="97" value="" style="shape=stencil(lVjbktowDP2avGosK749b7f/sTPLFqYUdlh6+/uKUodYTg7lLQSdWDq6e5Cnj+3L+2bw7uN8On7d/Ny9nreDfBq83x22m9PurE+DPA/y9HY8bb6cjt8Pr9ff7y8XycvTt+OPyxd+XXFM43gBeff7+sIRp78vPl/F97vDTDxQ9o24kPC6OI8UpZEv5IC8jxRadTiS+HWABAqhAahFBQBG/Z5rAaqSAxYnSrk1OUFAzFRiAxgDcVwHJFWgPSEIMWApJ8tqdFQAoAiV9gRV0gOWSqLS+iEFcgEACqXWD5mh0excZXFCqGtA6OkRruW1OErAEWqELy1gJJ8BYPLTBEjVNcsAT7mlqajzCwA4S9OMh2VfZwpGp0IZATRe2eqUBAJ8tlb/KwprKqXWc8qDB8GhgCwWgKIpl/r3BGDKgFcFiFhAAp5TQBw7ADK6UOlUQieoq32nUsYAU4rvsKSAkB/xgwIiW8CIUs7ZcqyAiONbOpXuGM3mBCGHolWjP1gALJals0EBoPYpwDpOauVZC++SrNHlTgJ1LCV8QuwAAWdcDxBE65JKkNbeaMZG97RqPtxxXJ/TuGrY0GBI60LwcS3o/xvefK/e9wnEOB8WUhQ1uaUiEFFrfxRwqa1dV0StXU8w80yZgmUZwLVBzQAe0Sqdp3VwRCeEWoVmOY3GRDXRsuRqOC4DtE934wx0XLZtVycmOP9EOwnoTDaicu9tn44ZN8VoO1BkSGtKdtTVyTUDlmKi3FYNnY3R5BoiJd8AdPpOQCX9nm9V8nhektGmqPewzOgOFNoU5QR3Jha7o0yFatkEimZ/qGVqUdzVnj+pQw5EtqvN77bwIQdoLtv9EIVQN9S7OmetibMRH0Heq3gy4gKIdLXU3sQ9CE5XN83ZKgzFgzUVTWuuDk4zcch76b4OoliXrU4c6M629qg44P3BS4K74vpwu4942+331+uM+f/2/kJfXe8+5PkP);lineShape=1;" vertex="1" parent="1">
                    <mxGeometry x="554.0159027381374" y="100.48603208725626" width="12.513846385767822" height="17.60375277612456" as="geometry"/>
                </mxCell>
                <mxCell id="98" value="" style="shape=stencil(lVbLcsIwDPyaXDW2FMvymdL/YKa0ZEqBAfr6+yrNmCKXqNObY2stW7vauKPFabM6rDsMp/Nx/7x+Hx7Om47uOsRht1kfh7OOOlp2tHjcH9dPx/3r7mH6PqzGyHH0sn8bd/iYcBShyIjC8DnN9MDpe+J+it8Ou6v4gsA2ngMUD8CQiwUwBHQABQgNICNQngfEECAEi9A9eieFQGYDEAaMDiBBJgPQOqCXIdblC4BBnFuLZmgABXqeB+gVJbYAKQ6gh2CJ0DIEhzkuEJMF9HXmNiBBslUSgeQciQnYEifRFZMCkiVOb1XIPVJvxcQC6IhJl5t+YHQbIhNINoAktUXmiEs2Q+IqxzlpJMt0ypXKOfEFq6VU/KZO7ZFYmXaOVKR1gRxcaag2ixVfzrVpZ13AZhCqzMz5TLFMl+DahnZwQ9xYBudIkoGbFhW/p2NrfVdWdVsbqar5KkVxjEnLzr8uwZ5thJa5vwC//g/oVqmvqzWe1AMcZcSWNqLqtTfjlVRbUxQgN775NyBWGmfisy1oVKE6DFzc4RIf6w4341OtxqURAL0+ALTlJ9dRozqqFVB0+zJq8ayh+gLV9DE38ei0gN5OQnMecar53+fI3/E6+Hn7PA7b7fR0ul5v30o6Nb2zaPkF);lineShape=1;" vertex="1" parent="1">
                    <mxGeometry x="572.4700966778082" y="106.3798146173558" width="0.668903072431948" height="0.5655278112866416" as="geometry"/>
                </mxCell>
                <mxCell id="99" value="" style="shape=stencil(lVfLctswDPwaXTEE+D6n6X9kJk7tqWtnHPf194WqoSxC8rq9yfICJIDFAhr808f+5X03iPu4Xs5fdz8Pr9f94D8NIofTfnc5XPVp8M+Df3o7X3ZfLufvp9fp9/vLiByfvp1/jB5+TXa1Us2jlbjf0xum4v6++Dzhj4fTEp8o1B7vyAVg4CjE3qCQ9/cNSiTuDSRQAAa5kqTOwDPlCAyEovQGlVK6b5ACVe4MQqYEToiJah9DjJTkvkGo5Pu0Jk++AAOm2gedHUVQB69p7YPOiQpIq1RypTMoQh5kSTyF/oSSSUCWCkmPVzIiKmUKxeJDBmWjwBafK6ga8QpfgX9PeXX/CvwLBWfxBcTLlteKjyCfq05TPAP/2ri+xxfYBopPFs/wPtH4164BnGbbA4oXgJeWjQXeMapXMf61A4D/2E5f4Cto4rRxHwb3yRRX8QbcL8XiC+BbWd2nQE3Rf7PFI/+ZssGrigG+pdZ9y34EsyZSXPG/AsUKxH1+2CllwQFCZd3AoGBMaSUQuGHSSrAEJNRZiR4LAAg3R7csMMT7VUOiEeCat3/Ec7KKVVILabsA0hp2NmC4HChHjWblCPcVH6j0JyQsokGIe1YngV2po9uMgRggK6KqYF+2kJqL7b6JdhJ7zIus+08ftHdtIdk2yG13mHcuTxGMPl0FTAysLpC2qHgZsWjqt702sh32DLWlzitfwzs4u6tYqmqzIv9i9y3X1HIb71un3PAMSFFXPH2wVse2OizweG8v9v4O3SdbbXQkyP+8OtzwAVB0HBXWfwbSO44KywcHGL2Q/pvBgwv934fQQ7w+3L663g7H4/TRtvzffqXpq+kLzz//AQ==);lineShape=1;" vertex="1" parent="1">
                    <mxGeometry x="574.730967768879" y="110.71391845275662" width="2.464097067839877" height="6.752546023807019" as="geometry"/>
                </mxCell>
                <mxCell id="100" value="" style="shape=stencil(lVrbct02DPya88rhHeRzmv5HZuLUnrp2xnHa5u8D9gxVcSGtJm+2DiBeAOziolv68O3x09eHW/Tf3t9e/3z45+nz++Mt/XaL8enl8eHt6V3/uqWPt/Thy+vbwx9vr99fPt////ppSI6//nr9e7zh37teqK7UoRX9j/uT6KL89+D3u/zz08tePruYFvngcibywdUG8qGcy3eXCr4+nYtX1zLsvvhz8eIkLOLJpXAunl2Pi7gevjLx6Bfx4lI7F09O1rerKSITT+vbxQkxVHR9Fe8ukKNGYybvcmfy4DZq6EblK7hNoobV7a+GDcV58n69HdhPdUJslVyD/TRXyH6yS6uxoqfGzfj+EVfk/eoqIJ+dJ+Ytrq1xok86OW91cfX84T5k/9UlWeW7K1Q+r/tPGrgkzlV+tVfa/PtEvq73n4oLdD999eckLpD7l4lim3x3ntxnm9bZoCE4T97f0J9zou/vGL5Z/Z+cV8PPrw6R+YFDRIvl7iKxmAasrCYrYQLesULBOyrJBcYVdYbUplBoEARB1Cpqd3YGNQNsqbnGYNFPNtxA2rtKVlC+KqDAKUlxAWlAeYTc0oCu1TVqnbY/VshmBZnodKxQXFl9qXZ+6IqsLYGiqYabBzJTOmC3JMjcwslVAy6vdhDhCh2dTzplqOSRchqHPEVEWKGliYLHChHt0IrLxFsVQ+uKMk0m7h8rZLzWphHCDl1cXRW6p/lfqkicPXBirsicPdKYVmCP6y11pU62JcFbUoVOYEYV2mrpXmgAJWUHuKWNv84UpK8KMoP2OL3w5paaiyQ/ytE1QQWWbirfiFlByLUqfWSPCp04X9nMtCko55ItFU1hq1Egh1YkRW/tPAvwmCYNBeJ8ikIA90OB+FJT1OhGgeBSyzNP2ysQO7Qtkd3fErGDBmSBQ2/ueKwgmIzpE4Ya42fj3o1VgYreZgXG06qA7n2h0LGc6luUnynUYg7NztBnQbS7VprCeY+sOIKaBIQu0SsqJOJ9qoDO1Gh2ogrZwEbl9+rNCpWcevxscYabOtgVuLvaQzM0VoVsrpVhpSpEawd2aMFWwbA0CeqhYJwpMMPJ3PHeXZlrCFaU4wlTaJgaX8eomC017nyI9zL7PWcKJZtD8wCyNMrKuBFxxpcY3g8FY7h0saWCCixLHIc2K7BS/dcVosElBUNiOKUgKajAmlVKcphh6TUwVjyiUUZBh0TdiS8dpgK0w5LnnewVWAtn68jtFQiQafncV4UdZZzlZJiI8iVyxj7FMAQ5RA4GZ/oE9LNUF5OHTjtjWhAg8XJG0RoFE6DGC4Iy084dbCRWcuTpa/v8/kLBVhCs5LB2KLRfNCo5UwUFgjOqUMBdE7+lPFPnXSVHz6DVLWCln0F4Wu+uQd067f8k43xa7yZ2Bo9Nr7b1Os66AhEq6kTPEBvOR1qYrfKzzgasIJ33TkxFLTKTtNN2DrRCCmWU0byGdk7iK2TESgkUBGKafYxdh0mYHeJkqF0Pi2Xf0cydaqV1VvQI3wroiUBl6Jgl1khBIDRMZ6qnCVOoyIqlUQoKxtJFaJY4pnmgUGjFESICmZIS6zuM+d/qSyVQbA0e3VtJjNmhmSGd0D62YBs7X00SoN2a07TjMUub/QRqA71wmFTwSZ0G5/r+MdlgDG0mLYW27TNWGheTmYy1z8XkR2lkfX/kyaTpEkXevU6uwuSq0pR+m0ls8pn2VyLmL2OyRyefYfUfRRp2PwGRbkwmWYThlGXABglhjySrqMHO67FUHZNbsn+PydSYDJP4Mk2PMXkm8eWnNbesgk4/TBovNHncbLNhNAUfj8FYpnef2ApapIlWCBE725FaNiGDBRooBTfjKaMK9oM9hQW1IsQ5L1WCGXZcyGdsmXvaQdGoqCjPukZK7wH8mHbKVB4m5oE2ykLHKiXQ9nowVTvPvoc8Og/rAo90Br4Q4MPajm24yMfHpkMbaaoeGtYnkc6+QjM4y2FWDE9cyQPPxdmjPk3e8H4Sy91+9UOsS3n94/+vvr48PT/fPxrb/45fiemj+xdm6eNP);lineShape=1;" vertex="1" parent="1">
                    <mxGeometry x="307.10825184432224" y="33.591550956765786" width="33.06486380298241" height="102.501275591757" as="geometry"/>
                </mxCell>
                <mxCell id="101" value="" style="shape=stencil(lVvJch03DPwaXVncSZwd5z9cZTlSxbFcsrL9fcCoOHpszDTlmy2h3yOxowndpQ8/Hj59v7+L/sfL89Pv938/fn55uEu/3MX4+O3h/vnxRf91lz7epQ9fnp7vf3t++vPb59f/f/80JMe//nj6a3zCP6+46HIcoOj/ff2Bd6X+/4NfX8W/Pn67EW8uBBBP6VpcnHQQD3ItHpLzeBrP5KvLHuUzkRfXGsrHa/mYXEgoH4h8dcWcx1/Lp+PjbuSJOlNyGeUDk6+u4nliJ/LiMt63EP3k4Bratxcin1D/wSWiz1zmr9/khclXl+oiH11pVF5kkU8uEXvl5tIqn50n0aLyLYB8J/ZSeVnPX1wl/p+7C6s+1eDMXn2G35Rv00Gu5EH/fSef1/OIq0z/fV7vsK93jV9A1gQRguvMIwRvHCJ3IQ2B1aU1KQmJGQVADITiPAGUI6cdgOoCB0SIgkbddABWNwp9pvlLAMSl0MCxAI38Rjz7BBCoWk8Aad7qvYDsCgkeqyWNHpZ9TwBt5vsrQAaA0HxRDiUe+Uh/wr4hzHp3AOIsEVeAsh4pZRfZpaMLAFBvZb6UZsk7AJ0WcQXIeofMq3Ip2ITkSMts0bKwhmjOHNBcB0DlhtM8B4BOK3MNrq53UNsHEnE1TWc+AHGmhXNAMYA8TXkO0GIFgDoVfQ4Q1wFw1K/z5lHbhbICVG+kX2h66VVLqjfmra3MCD4A0VV2pIoxrYpm9aFp6oWSW2jP2Trmpaq+xC6tNa4gQNg3yLziAThMeQro2tWtEVc7rdM9YF+ltmeZr0dUa/M0L3VtvNYjqbNkYumuyX21dIuz+TgHFHTvlmh96M3cQbs34ku9uw530AAilhYtKHCk5jIDhGmmA9BdI0cSM1Cpswi5tOTZihwdX6BZQ4qLq7eq7VlzInX++gActj8HtBnyB4CXLAUIdK08RKVjnR7OwuxgQrRX6q0iLq52UO9iVVQBMGkogB5JcPRUd0zMcIL1oR+3ugJAmun6ERzQ1kurwwdmB5nOfANg44AC+npp4QPlABQEsJhWgKzOJ3H+5Jxi8B77H+EDxDgTqCnT5nv4BgA0CFnINRxzFdBZFtCxE25d+ZEiDvb6nYzp6WbMUkDj6RvShgYhyzNa5HJGABtRRnaHI/FuvXbjrjIT+jlAq2JGQGZtZZkBdgNg9Jx2nTAqjqhlE7ufBecWQCJI54ti7sB6OJ3CYKYZYU6+YZB60QDIN4TJebyRCJx2CzjS7ADeJDKhja7HdmnIkyt7HGhGTiCualOMaogkVo9T4sZmHquVcDrAYy8mvD30OPFt4iBgMRzyjOc1WZ5/fsQWfXP+iLTqJiyjKVOqf3L+OGvSrX2JP0SkoN5qyoW8TStC7xvN+Zn/B1MNeNcZDM27DUirIFZjveElhVZxj13wUCgNeGizRWg1M7y/HATC1Xlslqb6sSmUEfn+xEHZMBXOChlN0T8pX+ez0g2A9RNaZaq5Mes1B09mVMpo21EpjY4YTTUYINOxsCjQag8D5wBwEqmZFqcTt6jaCDYEMD/SEbmab2APfjqPAmMzmk+iVp0Wm0dAIYbTSStkBHjWOXZTbSqfW4JpNSvNRtqvY30tlElWALx77GaEjMzZZgyR46HpvYOO7X43o1TGp5jdsJaN823GwYJZdTdwHg8vtyMtJy/Al3ZDc8FK2PnYMgAJARs+BQmYOkPqnXbQUYk1j2JSpQIoF5FxqOiZMzYJh7ueaL+mzowETJzZ9jJEDU0VmR3MG1r3lNweZB7wi31GyBVdCDW3aSJjgIJ5aZDRDJANXZhpQRm5FY6UaB85eF44UqQPyt00Mi3QSWHwlcBgepruVYkd6HOhR1IAhOiY04mWVOswXdRGLd0Kdp8KYGshCoC1jVpp5lO7wutQLRxgH0oyP1KcrnYAIk1kaiYgO7T7SCQZq5nANYpQrlqVCE1u6bQjGw8vAKiUGNYrQkyXTN+UqzeASIuinhgmz7dn6XNARa56UDjEvU8ePyt9aSzm4XA8frIjRaQXx/MqY6kCVtHxgLvZHjBPxMy9syChMh6hOQ8G/VLilh5ah5f3SBn9saqzailtVlcattJjGYAtxzScUDbrBicAvtAwAHCkzNlCC+BLGQOwqnWz9pFNFd0slgzA6kub1ZVsHnA3yzEKgLI71m84ALYGdZxlMa0RDLk1FNqcZFOyQuazaMVkPNag2KZewQoUAl/tM31r8DTdaxZC9pzSwipvd9FYzkiYWdt81LiSr/DsznfvEu7eFVpANYmaXUA2wWVDSma6IGJ3MROlcLLhZOLstM4JE0HSMFAPSg0/P9Aw03wLKzSBVv8o+K7gaTM8dnMjyrN3i4QOzeWD2YbZyFe8r+ecasJmnt/XrG4GuouQkIbh6xcJe7VA+byIPUig8+DRb9yI0/cc8+msMw3YffDR0ZuVUxqH3q44syrvsVHhXmCIb75wHZCC9JuXtIyfztaCAmZYT58Of/JPDbbi+o+3v2r48vj16+sfRdz+Hv8KQn/0+hcU6eN/);lineShape=1;" vertex="1" parent="1">
                    <mxGeometry x="609.8277264126709" y="9.53188708419998" width="25.45598440123903" height="131.09646977176567" as="geometry"/>
                </mxCell>
            </root>
        </mxGraphModel>
    </diagram>
</mxfile>